MajorMonoDisplay.ufo
<glyph name="exclam" format="1">
  <advance width="740"/>
  <unicode hex="0021"/>
  <outline>
    <contour>
      <point x="290" y="696" type="line"/>
      <point x="327" y="240" type="line"/>
      <point x="413" y="240" type="line"/>
      <point x="450" y="696" type="line"/>
    </contour>
    <contour>
      <point x="279" y="76" type="curve" smooth="yes"/>
      <point x="279" y="26"/>
      <point x="320" y="-15"/>
      <point x="370" y="-15" type="curve" smooth="yes"/>
      <point x="420" y="-15"/>
      <point x="461" y="26"/>
      <point x="461" y="76" type="curve" smooth="yes"/>
      <point x="461" y="126"/>
      <point x="420" y="166"/>
      <point x="370" y="166" type="curve" smooth="yes"/>
      <point x="320" y="166"/>
      <point x="279" y="126"/>
    </contour>
  </outline>
</glyph>
<glyph name="quotedbl" format="1">
  <advance width="740"/>
  <unicode hex="0022"/>
  <outline>
    <contour>
      <point x="484" y="405" type="line"/>
      <point x="538" y="696" type="line"/>
      <point x="390" y="696" type="line"/>
      <point x="390" y="405" type="line"/>
    </contour>
    <contour>
      <point x="202" y="405" type="line"/>
      <point x="296" y="405" type="line"/>
      <point x="350" y="696" type="line"/>
      <point x="202" y="696" type="line"/>
    </contour>
  </outline>
</glyph>
<glyph name="numbersign" format="1">
  <advance width="740"/>
  <unicode hex="0023"/>
  <outline>
    <contour>
      <point x="448" y="0" type="line"/>
      <point x="478" y="215" type="line"/>
      <point x="622" y="215" type="line"/>
      <point x="622" y="252" type="line"/>
      <point x="483" y="252" type="line"/>
      <point x="509" y="444" type="line"/>
      <point x="651" y="444" type="line"/>
      <point x="651" y="481" type="line"/>
      <point x="514" y="481" type="line"/>
      <point x="544" y="696" type="line"/>
      <point x="507" y="696" type="line"/>
      <point x="478" y="481" type="line"/>
      <point x="299" y="481" type="line"/>
      <point x="329" y="696" type="line"/>
      <point x="292" y="696" type="line"/>
      <point x="262" y="481" type="line"/>
      <point x="118" y="481" type="line"/>
      <point x="118" y="444" type="line"/>
      <point x="257" y="444" type="line"/>
      <point x="231" y="252" type="line"/>
      <point x="89" y="252" type="line"/>
      <point x="89" y="215" type="line"/>
      <point x="226" y="215" type="line"/>
      <point x="196" y="0" type="line"/>
      <point x="233" y="0" type="line"/>
      <point x="262" y="215" type="line"/>
      <point x="441" y="215" type="line"/>
      <point x="411" y="0" type="line"/>
    </contour>
    <contour>
      <point x="446" y="252" type="line"/>
      <point x="268" y="252" type="line"/>
      <point x="294" y="444" type="line"/>
      <point x="473" y="444" type="line"/>
    </contour>
  </outline>
</glyph>
<glyph name="dollar" format="1">
  <advance width="740"/>
  <unicode hex="0024"/>
  <outline>
    <contour>
      <point x="357" y="338" type="curve"/>
      <point x="357" y="21" type="line"/>
      <point x="221" y="29"/>
      <point x="139" y="111"/>
      <point x="140" y="233" type="curve"/>
      <point x="103" y="233" type="line"/>
      <point x="102" y="91"/>
      <point x="201" y="-6"/>
      <point x="357" y="-14" type="curve"/>
      <point x="357" y="-108" type="line"/>
      <point x="394" y="-108" type="line"/>
      <point x="394" y="-14" type="line"/>
      <point x="516" y="-9"/>
      <point x="629" y="53"/>
      <point x="629" y="183" type="curve" smooth="yes"/>
      <point x="629" y="322"/>
      <point x="514" y="343"/>
      <point x="394" y="368" type="curve"/>
      <point x="394" y="676" type="line"/>
      <point x="506" y="668"/>
      <point x="592" y="593"/>
      <point x="592" y="479" type="curve"/>
      <point x="629" y="479" type="line"/>
      <point x="629" y="612"/>
      <point x="525" y="703"/>
      <point x="394" y="712" type="curve"/>
      <point x="394" y="816" type="line"/>
      <point x="357" y="816" type="line"/>
      <point x="357" y="712" type="line"/>
      <point x="221" y="707"/>
      <point x="130" y="633"/>
      <point x="129" y="520" type="curve" smooth="yes"/>
      <point x="128" y="408"/>
      <point x="219" y="368"/>
    </contour>
    <contour>
      <point x="394" y="331" type="line"/>
      <point x="507" y="308"/>
      <point x="592" y="290"/>
      <point x="592" y="182" type="curve"/>
      <point x="592" y="83"/>
      <point x="504" y="26"/>
      <point x="394" y="21" type="curve"/>
    </contour>
    <contour>
      <point x="357" y="677" type="curve"/>
      <point x="357" y="376" type="line"/>
      <point x="245" y="400"/>
      <point x="166" y="428"/>
      <point x="166" y="520" type="curve" smooth="yes"/>
      <point x="166" y="625"/>
      <point x="261" y="672"/>
    </contour>
  </outline>
</glyph>
<glyph name="percent" format="1">
  <advance width="740"/>
  <unicode hex="0025"/>
  <outline>
    <contour>
      <point x="225" y="420" type="curve" smooth="yes"/>
      <point x="303" y="420"/>
      <point x="366" y="483"/>
      <point x="366" y="561" type="curve" smooth="yes"/>
      <point x="366" y="638"/>
      <point x="303" y="701"/>
      <point x="225" y="701" type="curve" smooth="yes"/>
      <point x="148" y="701"/>
      <point x="85" y="638"/>
      <point x="85" y="561" type="curve" smooth="yes"/>
      <point x="85" y="483"/>
      <point x="148" y="420"/>
    </contour>
    <contour>
      <point x="515" y="267" type="curve" smooth="yes"/>
      <point x="437" y="267"/>
      <point x="374" y="204"/>
      <point x="374" y="126" type="curve" smooth="yes"/>
      <point x="374" y="49"/>
      <point x="437" y="-15"/>
      <point x="515" y="-15" type="curve" smooth="yes"/>
      <point x="592" y="-15"/>
      <point x="655" y="49"/>
      <point x="655" y="126" type="curve" smooth="yes"/>
      <point x="655" y="204"/>
      <point x="592" y="267"/>
    </contour>
    <contour>
      <point x="225" y="664" type="curve" smooth="yes"/>
      <point x="283" y="664"/>
      <point x="329" y="618"/>
      <point x="329" y="561" type="curve" smooth="yes"/>
      <point x="329" y="503"/>
      <point x="283" y="457"/>
      <point x="225" y="457" type="curve" smooth="yes"/>
      <point x="168" y="457"/>
      <point x="122" y="503"/>
      <point x="122" y="561" type="curve" smooth="yes"/>
      <point x="122" y="618"/>
      <point x="168" y="664"/>
    </contour>
    <contour>
      <point x="515" y="22" type="curve" smooth="yes"/>
      <point x="458" y="22"/>
      <point x="411" y="69"/>
      <point x="411" y="126" type="curve" smooth="yes"/>
      <point x="411" y="183"/>
      <point x="458" y="230"/>
      <point x="515" y="230" type="curve" smooth="yes"/>
      <point x="572" y="230"/>
      <point x="618" y="183"/>
      <point x="618" y="126" type="curve" smooth="yes"/>
      <point x="618" y="69"/>
      <point x="572" y="22"/>
    </contour>
    <contour>
      <point x="589" y="588" type="line"/>
      <point x="125" y="124" type="line"/>
      <point x="151" y="98" type="line"/>
      <point x="615" y="562" type="line"/>
    </contour>
  </outline>
</glyph>
<glyph name="ampersand" format="1">
  <advance width="740"/>
  <unicode hex="0026"/>
  <outline>
    <contour>
      <point x="528" y="522" type="curve"/>
      <point x="528" y="627"/>
      <point x="443" y="712"/>
      <point x="338" y="712" type="curve" smooth="yes"/>
      <point x="232" y="712"/>
      <point x="147" y="627"/>
      <point x="147" y="522" type="curve" smooth="yes"/>
      <point x="147" y="481"/>
      <point x="159" y="442"/>
      <point x="183" y="410" type="curve"/>
      <point x="129" y="365"/>
      <point x="97" y="297"/>
      <point x="97" y="226" type="curve" smooth="yes"/>
      <point x="97" y="93"/>
      <point x="205" y="-15"/>
      <point x="338" y="-15" type="curve" smooth="yes"/>
      <point x="411" y="-15"/>
      <point x="476" y="17"/>
      <point x="520" y="69" type="curve"/>
      <point x="591" y="-2" type="line"/>
      <point x="644" y="-2" type="line"/>
      <point x="542" y="99" type="line"/>
      <point x="565" y="136"/>
      <point x="578" y="181"/>
      <point x="578" y="229" type="curve"/>
      <point x="645" y="229" type="line"/>
      <point x="645" y="265" type="line"/>
      <point x="542" y="265" type="line"/>
      <point x="542" y="229" type="line" smooth="yes"/>
      <point x="542" y="191"/>
      <point x="532" y="155"/>
      <point x="515" y="126" type="curve"/>
      <point x="228" y="413" type="line" smooth="yes"/>
      <point x="199" y="442"/>
      <point x="183" y="481"/>
      <point x="183" y="522" type="curve" smooth="yes"/>
      <point x="183" y="607"/>
      <point x="253" y="676"/>
      <point x="337" y="676" type="curve" smooth="yes"/>
      <point x="422" y="676"/>
      <point x="491" y="607"/>
      <point x="491" y="522" type="curve" smooth="yes"/>
      <point x="491" y="481"/>
      <point x="475" y="442"/>
      <point x="446" y="413" type="curve"/>
      <point x="472" y="387" type="line"/>
      <point x="508" y="423"/>
      <point x="528" y="471"/>
    </contour>
    <contour>
      <point x="207" y="382" type="curve"/>
      <point x="494" y="95" type="line"/>
      <point x="457" y="50"/>
      <point x="400" y="21"/>
      <point x="338" y="21" type="curve" smooth="yes"/>
      <point x="225" y="21"/>
      <point x="133" y="113"/>
      <point x="133" y="226" type="curve" smooth="yes"/>
      <point x="133" y="287"/>
      <point x="161" y="344"/>
    </contour>
  </outline>
</glyph>
<glyph name="quotesingle" format="1">
  <advance width="740"/>
  <unicode hex="0027"/>
  <outline>
    <contour>
      <point x="297" y="696" type="line"/>
      <point x="297" y="405" type="line"/>
      <point x="390" y="405" type="line"/>
      <point x="444" y="696" type="line"/>
    </contour>
  </outline>
</glyph>
<glyph name="parenleft" format="1">
  <advance width="740"/>
  <unicode hex="0028"/>
  <outline>
    <contour>
      <point x="271" y="335" type="curve" smooth="yes"/>
      <point x="271" y="174"/>
      <point x="332" y="21"/>
      <point x="442" y="-95" type="curve"/>
      <point x="469" y="-70" type="line"/>
      <point x="365" y="40"/>
      <point x="308" y="184"/>
      <point x="308" y="335" type="curve" smooth="yes"/>
      <point x="308" y="486"/>
      <point x="365" y="630"/>
      <point x="469" y="740" type="curve"/>
      <point x="442" y="765" type="line"/>
      <point x="332" y="648"/>
      <point x="271" y="496"/>
    </contour>
  </outline>
</glyph>
<glyph name="parenright" format="1">
  <advance width="740"/>
  <unicode hex="0029"/>
  <outline>
    <contour>
      <point x="298" y="-102" type="line"/>
      <point x="408" y="14"/>
      <point x="469" y="167"/>
      <point x="469" y="328" type="curve" smooth="yes"/>
      <point x="469" y="489"/>
      <point x="408" y="641"/>
      <point x="298" y="758" type="curve"/>
      <point x="271" y="733" type="line"/>
      <point x="375" y="623"/>
      <point x="432" y="479"/>
      <point x="432" y="328" type="curve" smooth="yes"/>
      <point x="432" y="177"/>
      <point x="375" y="33"/>
      <point x="271" y="-77" type="curve"/>
    </contour>
  </outline>
</glyph>
<glyph name="asterisk" format="1">
  <advance width="740"/>
  <unicode hex="002A"/>
  <outline>
    <contour>
      <point x="518" y="473" type="line"/>
      <point x="407" y="537" type="line"/>
      <point x="518" y="601" type="line"/>
      <point x="500" y="633" type="line"/>
      <point x="389" y="569" type="line"/>
      <point x="389" y="696" type="line"/>
      <point x="352" y="696" type="line"/>
      <point x="352" y="569" type="line"/>
      <point x="241" y="633" type="line"/>
      <point x="223" y="601" type="line"/>
      <point x="334" y="537" type="line"/>
      <point x="223" y="473" type="line"/>
      <point x="241" y="441" type="line"/>
      <point x="352" y="505" type="line"/>
      <point x="352" y="377" type="line"/>
      <point x="389" y="377" type="line"/>
      <point x="389" y="505" type="line"/>
      <point x="500" y="441" type="line"/>
    </contour>
  </outline>
</glyph>
<glyph name="plus" format="1">
  <advance width="740"/>
  <unicode hex="002B"/>
  <outline>
    <contour>
      <point x="177" y="325" type="line"/>
      <point x="352" y="325" type="line"/>
      <point x="352" y="151" type="line"/>
      <point x="388" y="151" type="line"/>
      <point x="388" y="325" type="line"/>
      <point x="563" y="325" type="line"/>
      <point x="563" y="362" type="line"/>
      <point x="388" y="362" type="line"/>
      <point x="388" y="536" type="line"/>
      <point x="352" y="536" type="line"/>
      <point x="352" y="362" type="line"/>
      <point x="177" y="362" type="line"/>
    </contour>
  </outline>
</glyph>
<glyph name="comma" format="1">
  <advance width="740"/>
  <unicode hex="002C"/>
  <outline>
    <contour>
      <point x="279" y="77" type="curve" smooth="yes"/>
      <point x="279" y="27"/>
      <point x="320" y="-14"/>
      <point x="370" y="-14" type="curve" smooth="yes"/>
      <point x="374" y="-14"/>
      <point x="377" y="-14"/>
      <point x="380" y="-13" type="curve"/>
      <point x="314" y="-126" type="line"/>
      <point x="357" y="-126" type="line"/>
      <point x="448" y="31" type="line" smooth="yes"/>
      <point x="456" y="45"/>
      <point x="461" y="60"/>
      <point x="461" y="77" type="curve" smooth="yes"/>
      <point x="461" y="127"/>
      <point x="420" y="167"/>
      <point x="370" y="167" type="curve" smooth="yes"/>
      <point x="320" y="167"/>
      <point x="279" y="127"/>
    </contour>
  </outline>
</glyph>
<glyph name="hyphen" format="1">
  <advance width="740"/>
  <unicode hex="002D"/>
  <outline>
    <contour>
      <point x="542" y="327" type="line"/>
      <point x="542" y="364" type="line"/>
      <point x="198" y="364" type="line"/>
      <point x="198" y="327" type="line"/>
    </contour>
  </outline>
</glyph>
<glyph name="period" format="1">
  <advance width="740"/>
  <unicode hex="002E"/>
  <outline>
    <contour>
      <point x="279" y="76" type="curve" smooth="yes"/>
      <point x="279" y="26"/>
      <point x="320" y="-15"/>
      <point x="370" y="-15" type="curve" smooth="yes"/>
      <point x="420" y="-15"/>
      <point x="461" y="26"/>
      <point x="461" y="76" type="curve" smooth="yes"/>
      <point x="461" y="126"/>
      <point x="420" y="166"/>
      <point x="370" y="166" type="curve" smooth="yes"/>
      <point x="320" y="166"/>
      <point x="279" y="126"/>
    </contour>
  </outline>
</glyph>
<glyph name="slash" format="1">
  <advance width="740"/>
  <unicode hex="002F"/>
  <outline>
    <contour>
      <point x="152" y="0" type="line"/>
      <point x="633" y="740" type="line"/>
      <point x="588" y="740" type="line"/>
      <point x="107" y="0" type="line"/>
    </contour>
  </outline>
</glyph>
<glyph name="zero" format="1">
  <advance width="740"/>
  <unicode hex="0030"/>
  <outline>
    <contour>
      <point x="605" y="475" type="line" smooth="yes"/>
      <point x="605" y="605"/>
      <point x="500" y="710"/>
      <point x="370" y="710" type="curve" smooth="yes"/>
      <point x="240" y="710"/>
      <point x="135" y="605"/>
      <point x="135" y="475" type="curve" smooth="yes"/>
      <point x="135" y="220" type="line" smooth="yes"/>
      <point x="135" y="90"/>
      <point x="240" y="-15"/>
      <point x="370" y="-15" type="curve" smooth="yes"/>
      <point x="500" y="-15"/>
      <point x="605" y="90"/>
      <point x="605" y="220" type="curve" smooth="yes"/>
    </contour>
    <contour>
      <point x="171" y="475" type="line"/>
      <point x="171" y="584"/>
      <point x="260" y="673"/>
      <point x="370" y="673" type="curve" smooth="yes"/>
      <point x="440" y="673"/>
      <point x="502" y="636"/>
      <point x="537" y="581" type="curve"/>
      <point x="184" y="150" type="line"/>
      <point x="176" y="172"/>
      <point x="171" y="195"/>
      <point x="171" y="220" type="curve"/>
    </contour>
    <contour>
      <point x="569" y="220" type="line"/>
      <point x="569" y="111"/>
      <point x="479" y="21"/>
      <point x="370" y="21" type="curve" smooth="yes"/>
      <point x="300" y="21"/>
      <point x="238" y="58"/>
      <point x="203" y="114" type="curve"/>
      <point x="556" y="545" type="line"/>
      <point x="564" y="523"/>
      <point x="569" y="499"/>
      <point x="569" y="475" type="curve"/>
    </contour>
  </outline>
</glyph>
<glyph name="one" format="1">
  <advance width="740"/>
  <unicode hex="0031"/>
  <outline>
    <contour>
      <point x="142" y="37" type="line"/>
      <point x="142" y="0" type="line"/>
      <point x="598" y="0" type="line"/>
      <point x="598" y="37" type="line"/>
      <point x="388" y="37" type="line"/>
      <point x="388" y="697" type="line"/>
      <point x="352" y="697" type="line"/>
      <point x="352" y="585"/>
      <point x="261" y="494"/>
      <point x="149" y="494" type="curve"/>
      <point x="149" y="458" type="line"/>
      <point x="235" y="458"/>
      <point x="309" y="502"/>
      <point x="352" y="569" type="curve"/>
      <point x="352" y="37" type="line"/>
    </contour>
  </outline>
</glyph>
<glyph name="two" format="1">
  <advance width="740"/>
  <unicode hex="0032"/>
  <outline>
    <contour>
      <point x="204" y="37" type="line"/>
      <point x="280" y="120"/>
      <point x="440" y="296"/>
      <point x="467" y="325" type="curve" smooth="yes"/>
      <point x="479" y="338" type="line" smooth="yes"/>
      <point x="521" y="383"/>
      <point x="573" y="439"/>
      <point x="573" y="514" type="curve"/>
      <point x="573" y="627"/>
      <point x="483" y="711"/>
      <point x="364" y="711" type="curve" smooth="yes"/>
      <point x="249" y="711"/>
      <point x="156" y="618"/>
      <point x="156" y="503" type="curve"/>
      <point x="193" y="503" type="line"/>
      <point x="193" y="598"/>
      <point x="270" y="675"/>
      <point x="364" y="675" type="curve" smooth="yes"/>
      <point x="462" y="675"/>
      <point x="536" y="606"/>
      <point x="536" y="514" type="curve"/>
      <point x="536" y="454"/>
      <point x="492" y="405"/>
      <point x="452" y="363" type="curve" smooth="yes"/>
      <point x="440" y="350" type="line" smooth="yes"/>
      <point x="410" y="318"/>
      <point x="214" y="102"/>
      <point x="154" y="37" type="curve"/>
      <point x="154" y="0" type="line"/>
      <point x="586" y="0" type="line"/>
      <point x="586" y="37" type="line"/>
    </contour>
  </outline>
</glyph>
<glyph name="three" format="1">
  <advance width="740"/>
  <unicode hex="0033"/>
  <outline>
    <contour>
      <point x="339" y="340" type="line"/>
      <point x="387" y="406" type="line"/>
      <point x="485" y="397"/>
      <point x="563" y="315"/>
      <point x="563" y="215" type="curve" smooth="yes"/>
      <point x="563" y="109"/>
      <point x="476" y="22"/>
      <point x="370" y="22" type="curve" smooth="yes"/>
      <point x="264" y="22"/>
      <point x="177" y="109"/>
      <point x="177" y="215" type="curve"/>
      <point x="141" y="215" type="line"/>
      <point x="141" y="88"/>
      <point x="244" y="-15"/>
      <point x="370" y="-15" type="curve" smooth="yes"/>
      <point x="496" y="-15"/>
      <point x="599" y="88"/>
      <point x="599" y="215" type="curve"/>
      <point x="599" y="327"/>
      <point x="518" y="420"/>
      <point x="412" y="440" type="curve"/>
      <point x="571" y="657" type="line"/>
      <point x="571" y="694" type="line"/>
      <point x="169" y="694" type="line"/>
      <point x="169" y="657" type="line"/>
      <point x="525" y="657" type="line"/>
      <point x="309" y="361" type="line"/>
    </contour>
  </outline>
</glyph>
<glyph name="four" format="1">
  <advance width="740"/>
  <unicode hex="0034"/>
  <outline>
    <contour>
      <point x="123" y="218" type="line"/>
      <point x="123" y="181" type="line"/>
      <point x="459" y="181" type="line"/>
      <point x="459" y="0" type="line"/>
      <point x="496" y="0" type="line"/>
      <point x="496" y="181" type="line"/>
      <point x="617" y="181" type="line"/>
      <point x="617" y="217" type="line"/>
      <point x="496" y="217" type="line"/>
      <point x="496" y="697" type="line"/>
      <point x="459" y="697" type="line"/>
    </contour>
    <contour>
      <point x="167" y="217" type="line"/>
      <point x="459" y="633" type="line"/>
      <point x="459" y="217" type="line"/>
    </contour>
  </outline>
</glyph>
<glyph name="five" format="1">
  <advance width="740"/>
  <unicode hex="0035"/>
  <outline>
    <contour>
      <point x="161" y="323" type="line"/>
      <point x="200" y="323" type="line"/>
      <point x="236" y="382"/>
      <point x="300" y="419"/>
      <point x="369" y="419" type="curve" smooth="yes"/>
      <point x="478" y="419"/>
      <point x="567" y="339"/>
      <point x="567" y="220" type="curve" smooth="yes"/>
      <point x="567" y="101"/>
      <point x="478" y="22"/>
      <point x="369" y="22" type="curve" smooth="yes"/>
      <point x="270" y="22"/>
      <point x="189" y="94"/>
      <point x="173" y="188" type="curve"/>
      <point x="136" y="188" type="line"/>
      <point x="152" y="74"/>
      <point x="250" y="-15"/>
      <point x="369" y="-15" type="curve" smooth="yes"/>
      <point x="498" y="-15"/>
      <point x="604" y="81"/>
      <point x="604" y="220" type="curve" smooth="yes"/>
      <point x="604" y="360"/>
      <point x="498" y="455"/>
      <point x="369" y="455" type="curve" smooth="yes"/>
      <point x="304" y="455"/>
      <point x="242" y="428"/>
      <point x="198" y="382" type="curve"/>
      <point x="198" y="658" type="line"/>
      <point x="572" y="658" type="line"/>
      <point x="572" y="695" type="line"/>
      <point x="161" y="695" type="line"/>
    </contour>
  </outline>
</glyph>
<glyph name="six" format="1">
  <advance width="740"/>
  <unicode hex="0036"/>
  <outline>
    <contour>
      <point x="436" y="694" type="line"/>
      <point x="185" y="350" type="line"/>
      <point x="157" y="312"/>
      <point x="141" y="265"/>
      <point x="141" y="215" type="curve" smooth="yes"/>
      <point x="141" y="88"/>
      <point x="244" y="-15"/>
      <point x="370" y="-15" type="curve" smooth="yes"/>
      <point x="496" y="-15"/>
      <point x="599" y="88"/>
      <point x="599" y="215" type="curve" smooth="yes"/>
      <point x="599" y="341"/>
      <point x="497" y="444"/>
      <point x="370" y="444" type="curve"/>
      <point x="341" y="444"/>
      <point x="313" y="438"/>
      <point x="288" y="428" type="curve"/>
      <point x="481" y="694" type="line"/>
    </contour>
    <contour>
      <point x="370" y="22" type="curve" smooth="yes"/>
      <point x="264" y="22"/>
      <point x="177" y="109"/>
      <point x="177" y="215" type="curve" smooth="yes"/>
      <point x="177" y="321"/>
      <point x="264" y="407"/>
      <point x="370" y="407" type="curve" smooth="yes"/>
      <point x="476" y="407"/>
      <point x="563" y="321"/>
      <point x="563" y="215" type="curve" smooth="yes"/>
      <point x="563" y="109"/>
      <point x="476" y="22"/>
    </contour>
  </outline>
</glyph>
<glyph name="seven" format="1">
  <advance width="740"/>
  <unicode hex="0037"/>
  <outline>
    <contour>
      <point x="277" y="0" type="line"/>
      <point x="600" y="660" type="line"/>
      <point x="600" y="697" type="line"/>
      <point x="140" y="697" type="line"/>
      <point x="140" y="660" type="line"/>
      <point x="559" y="660" type="line"/>
      <point x="236" y="0" type="line"/>
    </contour>
  </outline>
</glyph>
<glyph name="eight" format="1">
  <advance width="740"/>
  <unicode hex="0038"/>
  <outline>
    <contour>
      <point x="370" y="-15" type="curve" smooth="yes"/>
      <point x="488" y="-15"/>
      <point x="585" y="81"/>
      <point x="585" y="200" type="curve" smooth="yes"/>
      <point x="585" y="289"/>
      <point x="529" y="366"/>
      <point x="451" y="398" type="curve"/>
      <point x="503" y="427"/>
      <point x="538" y="482"/>
      <point x="538" y="545" type="curve" smooth="yes"/>
      <point x="538" y="638"/>
      <point x="463" y="713"/>
      <point x="370" y="713" type="curve" smooth="yes"/>
      <point x="278" y="713"/>
      <point x="202" y="638"/>
      <point x="202" y="545" type="curve" smooth="yes"/>
      <point x="202" y="482"/>
      <point x="238" y="427"/>
      <point x="289" y="398" type="curve"/>
      <point x="211" y="366"/>
      <point x="155" y="290"/>
      <point x="155" y="200" type="curve" smooth="yes"/>
      <point x="155" y="81"/>
      <point x="252" y="-15"/>
    </contour>
    <contour>
      <point x="370" y="22" type="curve" smooth="yes"/>
      <point x="272" y="22"/>
      <point x="192" y="102"/>
      <point x="192" y="200" type="curve" smooth="yes"/>
      <point x="192" y="298"/>
      <point x="272" y="378"/>
      <point x="370" y="378" type="curve" smooth="yes"/>
      <point x="468" y="378"/>
      <point x="548" y="298"/>
      <point x="548" y="200" type="curve" smooth="yes"/>
      <point x="548" y="102"/>
      <point x="468" y="22"/>
    </contour>
    <contour>
      <point x="239" y="545" type="curve"/>
      <point x="239" y="617"/>
      <point x="298" y="676"/>
      <point x="370" y="676" type="curve" smooth="yes"/>
      <point x="442" y="676"/>
      <point x="501" y="617"/>
      <point x="501" y="545" type="curve" smooth="yes"/>
      <point x="501" y="473"/>
      <point x="442" y="414"/>
      <point x="370" y="414" type="curve" smooth="yes"/>
      <point x="298" y="414"/>
      <point x="239" y="473"/>
    </contour>
  </outline>
</glyph>
<glyph name="nine" format="1">
  <advance width="740"/>
  <unicode hex="0039"/>
  <outline>
    <contour>
      <point x="304" y="0" type="line"/>
      <point x="555" y="344" type="line"/>
      <point x="555" y="345" type="line"/>
      <point x="583" y="383"/>
      <point x="599" y="429"/>
      <point x="599" y="480" type="curve" smooth="yes"/>
      <point x="599" y="607"/>
      <point x="496" y="709"/>
      <point x="370" y="709" type="curve" smooth="yes"/>
      <point x="244" y="709"/>
      <point x="141" y="607"/>
      <point x="141" y="480" type="curve" smooth="yes"/>
      <point x="141" y="354"/>
      <point x="244" y="251"/>
      <point x="370" y="251" type="curve" smooth="yes"/>
      <point x="399" y="251"/>
      <point x="427" y="256"/>
      <point x="452" y="266" type="curve"/>
      <point x="259" y="0" type="line"/>
    </contour>
    <contour>
      <point x="177" y="480" type="curve" smooth="yes"/>
      <point x="177" y="586"/>
      <point x="264" y="673"/>
      <point x="370" y="673" type="curve" smooth="yes"/>
      <point x="476" y="673"/>
      <point x="563" y="586"/>
      <point x="563" y="480" type="curve" smooth="yes"/>
      <point x="563" y="374"/>
      <point x="476" y="288"/>
      <point x="370" y="288" type="curve" smooth="yes"/>
      <point x="264" y="288"/>
      <point x="177" y="374"/>
    </contour>
  </outline>
</glyph>
<glyph name="colon" format="1">
  <advance width="740"/>
  <unicode hex="003A"/>
  <outline>
    <contour>
      <point x="370" y="-15" type="curve" smooth="yes"/>
      <point x="420" y="-15"/>
      <point x="461" y="25"/>
      <point x="461" y="76" type="curve" smooth="yes"/>
      <point x="461" y="126"/>
      <point x="420" y="166"/>
      <point x="370" y="166" type="curve" smooth="yes"/>
      <point x="320" y="166"/>
      <point x="279" y="126"/>
      <point x="279" y="76" type="curve" smooth="yes"/>
      <point x="279" y="25"/>
      <point x="320" y="-15"/>
    </contour>
    <contour>
      <point x="370" y="327" type="curve" smooth="yes"/>
      <point x="420" y="327"/>
      <point x="461" y="368"/>
      <point x="461" y="418" type="curve" smooth="yes"/>
      <point x="461" y="468"/>
      <point x="420" y="509"/>
      <point x="370" y="509" type="curve" smooth="yes"/>
      <point x="320" y="509"/>
      <point x="279" y="468"/>
      <point x="279" y="418" type="curve" smooth="yes"/>
      <point x="279" y="368"/>
      <point x="320" y="327"/>
    </contour>
  </outline>
</glyph>
<glyph name="semicolon" format="1">
  <advance width="740"/>
  <unicode hex="003B"/>
  <outline>
    <contour>
      <point x="370" y="328" type="curve" smooth="yes"/>
      <point x="420" y="328"/>
      <point x="461" y="369"/>
      <point x="461" y="419" type="curve" smooth="yes"/>
      <point x="461" y="469"/>
      <point x="420" y="510"/>
      <point x="370" y="510" type="curve" smooth="yes"/>
      <point x="320" y="510"/>
      <point x="279" y="469"/>
      <point x="279" y="419" type="curve" smooth="yes"/>
      <point x="279" y="369"/>
      <point x="320" y="328"/>
    </contour>
    <component base="quotesinglbase"/>
  </outline>
</glyph>
<glyph name="less" format="1">
  <advance width="740"/>
  <unicode hex="003C"/>
  <outline>
    <contour>
      <point x="185" y="345" type="line"/>
      <point x="450" y="80" type="line"/>
      <point x="476" y="106" type="line"/>
      <point x="237" y="345" type="line"/>
      <point x="476" y="585" type="line"/>
      <point x="450" y="611" type="line"/>
    </contour>
  </outline>
</glyph>
<glyph name="equal" format="1">
  <advance width="740"/>
  <unicode hex="003D"/>
  <outline>
    <contour>
      <point x="166" y="438" type="line"/>
      <point x="166" y="401" type="line"/>
      <point x="574" y="401" type="line"/>
      <point x="574" y="438" type="line"/>
    </contour>
    <contour>
      <point x="574" y="244" type="line"/>
      <point x="574" y="281" type="line"/>
      <point x="166" y="281" type="line"/>
      <point x="166" y="244" type="line"/>
    </contour>
  </outline>
</glyph>
<glyph name="greater" format="1">
  <advance width="740"/>
  <unicode hex="003E"/>
  <outline>
    <contour>
      <point x="235" y="106" type="line"/>
      <point x="261" y="80" type="line"/>
      <point x="526" y="345" type="line"/>
      <point x="261" y="611" type="line"/>
      <point x="235" y="585" type="line"/>
      <point x="474" y="345" type="line"/>
    </contour>
  </outline>
</glyph>
<glyph name="question" format="1">
  <advance width="740"/>
  <unicode hex="003F"/>
  <outline>
    <contour>
      <point x="360" y="164" type="line"/>
      <point x="510" y="164"/>
      <point x="631" y="286"/>
      <point x="631" y="437" type="curve"/>
      <point x="631" y="587"/>
      <point x="510" y="708"/>
      <point x="360" y="708" type="curve" smooth="yes"/>
      <point x="210" y="708"/>
      <point x="89" y="587"/>
      <point x="89" y="437" type="curve"/>
      <point x="270" y="437" type="line"/>
      <point x="270" y="487"/>
      <point x="311" y="527"/>
      <point x="360" y="527" type="curve" smooth="yes"/>
      <point x="409" y="527"/>
      <point x="450" y="487"/>
      <point x="450" y="437" type="curve" smooth="yes"/>
      <point x="450" y="388"/>
      <point x="409" y="348"/>
      <point x="360" y="348" type="curve"/>
    </contour>
    <contour>
      <point x="360" y="-15" type="curve" smooth="yes"/>
      <point x="410" y="-15"/>
      <point x="451" y="25"/>
      <point x="451" y="75" type="curve" smooth="yes"/>
      <point x="451" y="126"/>
      <point x="410" y="166"/>
      <point x="360" y="166" type="curve" smooth="yes"/>
      <point x="310" y="166"/>
      <point x="269" y="126"/>
      <point x="269" y="75" type="curve" smooth="yes"/>
      <point x="269" y="25"/>
      <point x="310" y="-15"/>
    </contour>
    <contour>
      <point x="360" y="22" type="curve" smooth="yes"/>
      <point x="330" y="22"/>
      <point x="306" y="46"/>
      <point x="306" y="75" type="curve" smooth="yes"/>
      <point x="306" y="105"/>
      <point x="330" y="129"/>
      <point x="360" y="129" type="curve" smooth="yes"/>
      <point x="390" y="129"/>
      <point x="414" y="105"/>
      <point x="414" y="75" type="curve" smooth="yes"/>
      <point x="414" y="46"/>
      <point x="390" y="22"/>
    </contour>
  </outline>
</glyph>
<glyph name="at" format="1">
  <advance width="740"/>
  <unicode hex="0040"/>
  <outline>
    <contour>
      <point x="605" y="153" type="line"/>
      <point x="642" y="153" type="line"/>
      <point x="642" y="434" type="line" smooth="yes"/>
      <point x="642" y="584"/>
      <point x="520" y="706"/>
      <point x="370" y="706" type="curve" smooth="yes"/>
      <point x="220" y="706"/>
      <point x="98" y="584"/>
      <point x="98" y="434" type="curve" smooth="yes"/>
      <point x="98" y="212" type="line" smooth="yes"/>
      <point x="98" y="62"/>
      <point x="220" y="-61"/>
      <point x="370" y="-61" type="curve" smooth="yes"/>
      <point x="443" y="-61"/>
      <point x="511" y="-32"/>
      <point x="562" y="19" type="curve"/>
      <point x="536" y="45" type="line"/>
      <point x="492" y="1"/>
      <point x="433" y="-24"/>
      <point x="370" y="-24" type="curve" smooth="yes"/>
      <point x="240" y="-24"/>
      <point x="135" y="82"/>
      <point x="135" y="212" type="curve" smooth="yes"/>
      <point x="135" y="434" type="line" smooth="yes"/>
      <point x="135" y="563"/>
      <point x="240" y="669"/>
      <point x="370" y="669" type="curve" smooth="yes"/>
      <point x="500" y="669"/>
      <point x="605" y="563"/>
      <point x="605" y="434" type="curve" smooth="yes"/>
      <point x="605" y="431" type="line"/>
      <point x="573" y="474"/>
      <point x="521" y="501"/>
      <point x="463" y="501" type="curve" smooth="yes"/>
      <point x="365" y="501"/>
      <point x="285" y="421"/>
      <point x="285" y="323" type="curve" smooth="yes"/>
      <point x="285" y="224"/>
      <point x="365" y="144"/>
      <point x="463" y="144" type="curve" smooth="yes"/>
      <point x="521" y="144"/>
      <point x="573" y="172"/>
      <point x="605" y="214" type="curve"/>
    </contour>
    <contour>
      <point x="605" y="323" type="curve" smooth="yes"/>
      <point x="605" y="244"/>
      <point x="542" y="181"/>
      <point x="463" y="181" type="curve" smooth="yes"/>
      <point x="385" y="181"/>
      <point x="321" y="244"/>
      <point x="321" y="323" type="curve" smooth="yes"/>
      <point x="321" y="401"/>
      <point x="385" y="465"/>
      <point x="463" y="465" type="curve" smooth="yes"/>
      <point x="542" y="465"/>
      <point x="605" y="401"/>
    </contour>
  </outline>
</glyph>
<glyph name="A" format="1">
  <advance width="740"/>
  <unicode hex="0041"/>
  <outline>
    <contour>
      <point x="370" y="711" type="line"/>
      <point x="42" y="0" type="line"/>
      <point x="698" y="0" type="line"/>
    </contour>
    <contour>
      <point x="370" y="623" type="line"/>
      <point x="640" y="37" type="line"/>
      <point x="100" y="37" type="line"/>
    </contour>
    <contour>
      <point x="370" y="0" type="move" name="bottom"/>
    </contour>
    <contour>
      <point x="698" y="0" type="move" name="ogonek"/>
    </contour>
    <contour>
      <point x="370" y="696" type="move" name="top"/>
    </contour>
  </outline>
</glyph>
<glyph name="B" format="1">
  <advance width="740"/>
  <unicode hex="0042"/>
  <outline>
    <contour>
      <point x="127" y="696" type="line"/>
      <point x="127" y="0" type="line"/>
      <point x="435" y="0" type="line" smooth="yes"/>
      <point x="499" y="0"/>
      <point x="529" y="9"/>
      <point x="556" y="24" type="curve" smooth="yes"/>
      <point x="613" y="56"/>
      <point x="653" y="117"/>
      <point x="653" y="188" type="curve" smooth="yes"/>
      <point x="653" y="269"/>
      <point x="595" y="336"/>
      <point x="525" y="360" type="curve"/>
      <point x="585" y="392"/>
      <point x="622" y="450"/>
      <point x="622" y="516" type="curve" smooth="yes"/>
      <point x="622" y="585"/>
      <point x="587" y="644"/>
      <point x="524" y="676" type="curve" smooth="yes"/>
      <point x="497" y="690"/>
      <point x="463" y="696"/>
      <point x="419" y="696" type="curve" smooth="yes"/>
    </contour>
    <contour>
      <point x="375" y="0" type="move" name="bottom"/>
    </contour>
    <contour>
      <point x="375" y="696" type="move" name="top"/>
    </contour>
  </outline>
</glyph>
<glyph name="C" format="1">
  <advance width="740"/>
  <unicode hex="0043"/>
  <outline>
    <contour>
      <point x="478" y="263" type="line"/>
      <point x="478" y="191"/>
      <point x="442" y="155"/>
      <point x="373" y="155" type="curve" smooth="yes"/>
      <point x="314" y="155"/>
      <point x="264" y="194"/>
      <point x="264" y="267" type="curve" smooth="yes"/>
      <point x="264" y="430" type="line" smooth="yes"/>
      <point x="264" y="503"/>
      <point x="312" y="541"/>
      <point x="370" y="541" type="curve" smooth="yes"/>
      <point x="438" y="541"/>
      <point x="474" y="502"/>
      <point x="475" y="434" type="curve"/>
      <point x="655" y="434" type="line"/>
      <point x="653" y="610"/>
      <point x="547" y="711"/>
      <point x="370" y="711" type="curve" smooth="yes"/>
      <point x="207" y="711"/>
      <point x="83" y="595"/>
      <point x="83" y="421" type="curve" smooth="yes"/>
      <point x="83" y="275" type="line" smooth="yes"/>
      <point x="83" y="99"/>
      <point x="216" y="-15"/>
      <point x="373" y="-15" type="curve" smooth="yes"/>
      <point x="548" y="-15"/>
      <point x="659" y="86"/>
      <point x="657" y="263" type="curve"/>
    </contour>
    <contour>
      <point x="373" y="0" type="move" name="bottom"/>
    </contour>
    <contour>
      <point x="373" y="696" type="move" name="top"/>
    </contour>
  </outline>
</glyph>
<glyph name="D" format="1">
  <advance width="740"/>
  <unicode hex="0044"/>
  <outline>
    <contour>
      <point x="379" y="0" type="line" smooth="yes"/>
      <point x="534" y="0"/>
      <point x="660" y="126"/>
      <point x="660" y="281" type="curve" smooth="yes"/>
      <point x="660" y="415" type="line" smooth="yes"/>
      <point x="660" y="570"/>
      <point x="534" y="696"/>
      <point x="379" y="696" type="curve"/>
      <point x="120" y="696" type="line"/>
      <point x="120" y="0" type="line"/>
    </contour>
    <contour>
      <point x="373" y="0" type="move" name="bottom"/>
    </contour>
    <contour>
      <point x="373" y="696" type="move" name="top"/>
    </contour>
  </outline>
</glyph>
<glyph name="E" format="1">
  <advance width="740"/>
  <unicode hex="0045"/>
  <outline>
    <contour>
      <point x="120" y="0" type="line"/>
      <point x="627" y="0" type="line"/>
      <point x="627" y="176" type="line"/>
      <point x="302" y="176" type="line"/>
      <point x="302" y="265" type="line"/>
      <point x="572" y="265" type="line"/>
      <point x="572" y="432" type="line"/>
      <point x="302" y="432" type="line"/>
      <point x="302" y="520" type="line"/>
      <point x="627" y="520" type="line"/>
      <point x="627" y="696" type="line"/>
      <point x="120" y="696" type="line"/>
    </contour>
    <contour>
      <point x="370" y="0" type="move" name="bottom"/>
    </contour>
    <contour>
      <point x="627" y="0" type="move" name="ogonek"/>
    </contour>
    <contour>
      <point x="370" y="696" type="move" name="top"/>
    </contour>
  </outline>
</glyph>
<glyph name="F" format="1">
  <advance width="740"/>
  <unicode hex="0046"/>
  <outline>
    <contour>
      <point x="130" y="696" type="line"/>
      <point x="130" y="0" type="line"/>
      <point x="167" y="0" type="line"/>
      <point x="167" y="260" type="line"/>
      <point x="551" y="260" type="line"/>
      <point x="551" y="436" type="line"/>
      <point x="167" y="436" type="line"/>
      <point x="167" y="659" type="line"/>
      <point x="646" y="659" type="line"/>
      <point x="646" y="696" type="line"/>
    </contour>
    <contour>
      <point x="149" y="0" type="move" name="bottom"/>
    </contour>
    <contour>
      <point x="383" y="696" type="move" name="top"/>
    </contour>
  </outline>
</glyph>
<glyph name="G" format="1">
  <advance width="740"/>
  <unicode hex="0047"/>
  <outline>
    <contour>
      <point x="365" y="674" type="curve" smooth="yes"/>
      <point x="442" y="674"/>
      <point x="503" y="650"/>
      <point x="547" y="604" type="curve" smooth="yes"/>
      <point x="581" y="568"/>
      <point x="609" y="518"/>
      <point x="610" y="466" type="curve"/>
      <point x="646" y="466" type="line"/>
      <point x="646" y="527"/>
      <point x="615" y="585"/>
      <point x="576" y="627" type="curve" smooth="yes"/>
      <point x="525" y="682"/>
      <point x="452" y="711"/>
      <point x="365" y="711" type="curve" smooth="yes"/>
      <point x="207" y="711"/>
      <point x="78" y="582"/>
      <point x="78" y="424" type="curve" smooth="yes"/>
      <point x="78" y="292" type="line" smooth="yes"/>
      <point x="78" y="238"/>
      <point x="86" y="196"/>
      <point x="102" y="159" type="curve" smooth="yes"/>
      <point x="146" y="54"/>
      <point x="248" y="-15"/>
      <point x="365" y="-15" type="curve" smooth="yes"/>
      <point x="487" y="-15"/>
      <point x="593" y="57"/>
      <point x="634" y="168" type="curve" smooth="yes"/>
      <point x="647" y="202"/>
      <point x="653" y="242"/>
      <point x="653" y="282" type="curve" smooth="yes"/>
      <point x="653" y="348" type="line"/>
      <point x="348" y="348" type="line"/>
      <point x="348" y="23" type="line"/>
      <point x="253" y="30"/>
      <point x="172" y="89"/>
      <point x="135" y="175" type="curve" smooth="yes"/>
      <point x="121" y="207"/>
      <point x="115" y="244"/>
      <point x="115" y="292" type="curve" smooth="yes"/>
      <point x="115" y="424" type="line" smooth="yes"/>
      <point x="115" y="562"/>
      <point x="228" y="674"/>
    </contour>
    <contour>
      <point x="616" y="282" type="line" smooth="yes"/>
      <point x="616" y="245"/>
      <point x="610" y="207"/>
      <point x="598" y="176" type="curve" smooth="yes"/>
      <point x="562" y="86"/>
      <point x="479" y="29"/>
      <point x="384" y="23" type="curve"/>
      <point x="384" y="312" type="line"/>
      <point x="616" y="312" type="line"/>
    </contour>
    <contour>
      <point x="367" y="0" type="move" name="bottom"/>
    </contour>
    <contour>
      <point x="367" y="696" type="move" name="top"/>
    </contour>
  </outline>
</glyph>
<glyph name="H" format="1">
  <advance width="740"/>
  <unicode hex="0048"/>
  <outline>
    <contour>
      <point x="139" y="0" type="line"/>
      <point x="139" y="462" type="line"/>
      <point x="394" y="462"/>
      <point x="601" y="255"/>
      <point x="601" y="0" type="curve"/>
      <point x="638" y="0" type="line"/>
      <point x="638" y="696" type="line"/>
      <point x="601" y="696" type="line"/>
      <point x="601" y="188" type="line"/>
      <point x="527" y="370"/>
      <point x="348" y="499"/>
      <point x="139" y="499" type="curve"/>
      <point x="139" y="696" type="line"/>
      <point x="102" y="696" type="line"/>
      <point x="102" y="0" type="line"/>
    </contour>
    <contour>
      <point x="370" y="0" type="move" name="bottom"/>
    </contour>
    <contour>
      <point x="370" y="564" type="move" name="center"/>
    </contour>
    <contour>
      <point x="370" y="696" type="move" name="top"/>
    </contour>
  </outline>
</glyph>
<glyph name="I" format="1">
  <advance width="740"/>
  <unicode hex="0049"/>
  <outline>
    <contour>
      <point x="352" y="520" type="line"/>
      <point x="352" y="176" type="line"/>
      <point x="145" y="176" type="line"/>
      <point x="145" y="0" type="line"/>
      <point x="595" y="0" type="line"/>
      <point x="595" y="176" type="line"/>
      <point x="388" y="176" type="line"/>
      <point x="388" y="520" type="line"/>
      <point x="595" y="520" type="line"/>
      <point x="595" y="696" type="line"/>
      <point x="145" y="696" type="line"/>
      <point x="145" y="520" type="line"/>
    </contour>
    <contour>
      <point x="371" y="0" type="move" name="bottom"/>
    </contour>
    <contour>
      <point x="595" y="0" type="move" name="ogonek"/>
    </contour>
    <contour>
      <point x="371" y="696" type="move" name="top"/>
    </contour>
  </outline>
</glyph>
<glyph name="J" format="1">
  <advance width="740"/>
  <unicode hex="004A"/>
  <outline>
    <contour>
      <point x="460" y="278" type="line"/>
      <point x="460" y="197"/>
      <point x="421" y="158"/>
      <point x="359" y="158" type="curve" smooth="yes"/>
      <point x="298" y="158"/>
      <point x="261" y="206"/>
      <point x="261" y="266" type="curve"/>
      <point x="79" y="266" type="line"/>
      <point x="79" y="111"/>
      <point x="206" y="-15"/>
      <point x="360" y="-15" type="curve" smooth="yes"/>
      <point x="517" y="-15"/>
      <point x="642" y="92"/>
      <point x="642" y="283" type="curve"/>
      <point x="642" y="696" type="line"/>
      <point x="264" y="696" type="line"/>
      <point x="264" y="520" type="line"/>
      <point x="460" y="520" type="line"/>
    </contour>
    <contour>
      <point x="369" y="0" type="move" name="bottom"/>
    </contour>
    <contour>
      <point x="456" y="696" type="move" name="top"/>
    </contour>
  </outline>
</glyph>
<glyph name="K" format="1">
  <advance width="740"/>
  <unicode hex="004B"/>
  <outline>
    <contour>
      <point x="670" y="696" type="line"/>
      <point x="110" y="696" type="line"/>
      <point x="110" y="0" type="line"/>
      <point x="670" y="0" type="line"/>
      <point x="380" y="406" type="line"/>
    </contour>
    <contour>
      <point x="599" y="37" type="line"/>
      <point x="147" y="37" type="line"/>
      <point x="147" y="173" type="line"/>
      <point x="354" y="380" type="line"/>
    </contour>
    <contour>
      <point x="371" y="0" type="move" name="bottom"/>
    </contour>
    <contour>
      <point x="371" y="696" type="move" name="top"/>
    </contour>
  </outline>
</glyph>
<glyph name="L" format="1">
  <advance width="740"/>
  <unicode hex="004C"/>
  <outline>
    <contour>
      <point x="181" y="177" type="line"/>
      <point x="181" y="696" type="line"/>
      <point x="144" y="696" type="line"/>
      <point x="144" y="0" type="line"/>
      <point x="674" y="0" type="line"/>
      <point x="674" y="177" type="line"/>
    </contour>
    <contour>
      <point x="411" y="0" type="move" name="bottom"/>
    </contour>
    <contour>
      <point x="192" y="369" type="move" name="center"/>
    </contour>
    <contour>
      <point x="167" y="696" type="move" name="top"/>
    </contour>
    <contour>
      <point x="560" y="696" type="move" name="topright"/>
    </contour>
  </outline>
</glyph>
<glyph name="M" format="1">
  <advance width="740"/>
  <unicode hex="004D"/>
  <outline>
    <contour>
      <point x="89" y="1" type="line"/>
      <point x="651" y="1" type="line"/>
      <point x="651" y="697" type="line"/>
      <point x="614" y="697" type="line"/>
      <point x="372" y="267" type="line"/>
      <point x="129" y="697" type="line"/>
      <point x="89" y="697" type="line"/>
    </contour>
    <contour>
      <point x="126" y="628" type="line"/>
      <point x="354" y="226" type="line"/>
      <point x="389" y="226" type="line"/>
      <point x="614" y="622" type="line"/>
      <point x="614" y="37" type="line"/>
      <point x="126" y="37" type="line"/>
    </contour>
    <contour>
      <point x="372" y="0" type="move" name="bottom"/>
    </contour>
    <contour>
      <point x="372" y="696" type="move" name="top"/>
    </contour>
  </outline>
</glyph>
<glyph name="N" format="1">
  <advance width="740"/>
  <unicode hex="004E"/>
  <outline>
    <contour>
      <point x="661" y="1" type="line"/>
      <point x="661" y="697" type="line"/>
      <point x="624" y="697" type="line"/>
      <point x="624" y="224" type="line"/>
      <point x="138" y="697" type="line"/>
      <point x="99" y="697" type="line"/>
      <point x="99" y="1" type="line"/>
    </contour>
    <contour>
      <point x="382" y="0" type="move" name="bottom"/>
    </contour>
    <contour>
      <point x="382" y="696" type="move" name="top"/>
    </contour>
  </outline>
</glyph>
<glyph name="O" format="1">
  <advance width="740"/>
  <unicode hex="004F"/>
  <outline>
    <contour>
      <point x="80" y="425" type="curve" smooth="yes"/>
      <point x="80" y="271" type="line" smooth="yes"/>
      <point x="80" y="112"/>
      <point x="210" y="-19"/>
      <point x="370" y="-19" type="curve" smooth="yes"/>
      <point x="530" y="-19"/>
      <point x="660" y="112"/>
      <point x="660" y="271" type="curve" smooth="yes"/>
      <point x="660" y="425" type="line" smooth="yes"/>
      <point x="660" y="584"/>
      <point x="530" y="715"/>
      <point x="370" y="715" type="curve" smooth="yes"/>
      <point x="210" y="715"/>
      <point x="80" y="584"/>
    </contour>
    <contour>
      <point x="262" y="271" type="curve" smooth="yes"/>
      <point x="262" y="426" type="line" smooth="yes"/>
      <point x="262" y="490"/>
      <point x="305" y="541"/>
      <point x="370" y="541" type="curve" smooth="yes"/>
      <point x="433" y="541"/>
      <point x="477" y="490"/>
      <point x="477" y="426" type="curve" smooth="yes"/>
      <point x="477" y="271" type="line" smooth="yes"/>
      <point x="477" y="208"/>
      <point x="434" y="155"/>
      <point x="370" y="155" type="curve" smooth="yes"/>
      <point x="305" y="155"/>
      <point x="262" y="208"/>
    </contour>
    <contour>
      <point x="370" y="0" type="move" name="bottom"/>
    </contour>
    <contour>
      <point x="370" y="348" type="move" name="center"/>
    </contour>
    <contour>
      <point x="583" y="696" type="move" name="horn"/>
    </contour>
    <contour>
      <point x="560" y="0" type="move" name="ogonek"/>
    </contour>
    <contour>
      <point x="370" y="696" type="move" name="top"/>
    </contour>
  </outline>
</glyph>
<glyph name="P" format="1">
  <advance width="740"/>
  <unicode hex="0050"/>
  <outline>
    <contour>
      <point x="321" y="0" type="line"/>
      <point x="321" y="211" type="line"/>
      <point x="430" y="211" type="line" smooth="yes"/>
      <point x="479" y="211"/>
      <point x="522" y="220"/>
      <point x="557" y="238" type="curve" smooth="yes"/>
      <point x="637" y="279"/>
      <point x="689" y="361"/>
      <point x="689" y="454" type="curve" smooth="yes"/>
      <point x="689" y="547"/>
      <point x="637" y="628"/>
      <point x="556" y="669" type="curve" smooth="yes"/>
      <point x="521" y="687"/>
      <point x="480" y="696"/>
      <point x="430" y="696" type="curve"/>
      <point x="139" y="696" type="line"/>
      <point x="139" y="0" type="line"/>
    </contour>
    <contour>
      <point x="231" y="0" type="move" name="bottom"/>
    </contour>
    <contour>
      <point x="397" y="696" type="move" name="top"/>
    </contour>
  </outline>
</glyph>
<glyph name="Q" format="1">
  <advance width="740"/>
  <unicode hex="0051"/>
  <outline>
    <contour>
      <point x="368" y="715" type="curve" smooth="yes"/>
      <point x="208" y="715"/>
      <point x="78" y="585"/>
      <point x="78" y="425" type="curve" smooth="yes"/>
      <point x="78" y="272" type="line" smooth="yes"/>
      <point x="78" y="112"/>
      <point x="208" y="-18"/>
      <point x="368" y="-18" type="curve" smooth="yes"/>
      <point x="421" y="-18"/>
      <point x="471" y="-3"/>
      <point x="514" y="22" type="curve"/>
      <point x="607" y="-69" type="line"/>
      <point x="730" y="59" type="line"/>
      <point x="633" y="154" type="line"/>
      <point x="649" y="191"/>
      <point x="658" y="230"/>
      <point x="658" y="272" type="curve" smooth="yes"/>
      <point x="658" y="425" type="line" smooth="yes"/>
      <point x="658" y="585"/>
      <point x="528" y="715"/>
    </contour>
    <contour>
      <point x="260" y="425" type="line" smooth="yes"/>
      <point x="260" y="484"/>
      <point x="309" y="531"/>
      <point x="367" y="531" type="curve" smooth="yes"/>
      <point x="426" y="531"/>
      <point x="474" y="484"/>
      <point x="474" y="425" type="curve" smooth="yes"/>
      <point x="474" y="272" type="line" smooth="yes"/>
      <point x="474" y="213"/>
      <point x="426" y="164"/>
      <point x="367" y="164" type="curve" smooth="yes"/>
      <point x="309" y="164"/>
      <point x="260" y="213"/>
      <point x="260" y="272" type="curve" smooth="yes"/>
    </contour>
    <contour>
      <point x="375" y="0" type="move" name="bottom"/>
    </contour>
    <contour>
      <point x="368" y="696" type="move" name="top"/>
    </contour>
  </outline>
</glyph>
<glyph name="R" format="1">
  <advance width="740"/>
  <unicode hex="0052"/>
  <outline>
    <contour>
      <point x="481" y="247" type="line"/>
      <point x="578" y="273"/>
      <point x="650" y="363"/>
      <point x="650" y="468" type="curve" smooth="yes"/>
      <point x="650" y="552"/>
      <point x="608" y="625"/>
      <point x="536" y="665" type="curve" smooth="yes"/>
      <point x="499" y="686"/>
      <point x="449" y="696"/>
      <point x="394" y="696" type="curve"/>
      <point x="123" y="696" type="line"/>
      <point x="123" y="0" type="line"/>
      <point x="658" y="0" type="line"/>
    </contour>
    <contour>
      <point x="395" y="659" type="line"/>
      <point x="440" y="659"/>
      <point x="480" y="652"/>
      <point x="510" y="637" type="curve" smooth="yes"/>
      <point x="576" y="604"/>
      <point x="613" y="540"/>
      <point x="613" y="468" type="curve" smooth="yes"/>
      <point x="613" y="375"/>
      <point x="546" y="297"/>
      <point x="458" y="279" type="curve"/>
      <point x="186" y="659" type="line"/>
    </contour>
    <contour>
      <point x="417" y="276" type="line"/>
      <point x="160" y="276" type="line"/>
      <point x="160" y="635" type="line"/>
    </contour>
    <contour>
      <point x="160" y="239" type="line"/>
      <point x="411" y="239" type="line" smooth="yes"/>
      <point x="422" y="239"/>
      <point x="442" y="240"/>
      <point x="442" y="240" type="curve"/>
      <point x="588" y="37" type="line"/>
      <point x="160" y="37" type="line"/>
    </contour>
    <contour>
      <point x="371" y="0" type="move" name="bottom"/>
    </contour>
    <contour>
      <point x="371" y="696" type="move" name="top"/>
    </contour>
  </outline>
</glyph>
<glyph name="S" format="1">
  <advance width="740"/>
  <unicode hex="0053"/>
  <outline>
    <contour>
      <point x="375" y="-18" type="curve" smooth="yes"/>
      <point x="523" y="-18"/>
      <point x="662" y="64"/>
      <point x="662" y="213" type="curve" smooth="yes"/>
      <point x="662" y="377"/>
      <point x="522" y="399"/>
      <point x="397" y="424" type="curve" smooth="yes"/>
      <point x="360" y="432"/>
      <point x="270" y="448"/>
      <point x="270" y="498" type="curve" smooth="yes"/>
      <point x="270" y="537"/>
      <point x="308" y="561"/>
      <point x="373" y="561" type="curve" smooth="yes"/>
      <point x="454" y="561"/>
      <point x="492" y="529"/>
      <point x="492" y="456" type="curve"/>
      <point x="655" y="456" type="line"/>
      <point x="655" y="472"/>
      <point x="657" y="527"/>
      <point x="628" y="579" type="curve" smooth="yes"/>
      <point x="577" y="672"/>
      <point x="486" y="716"/>
      <point x="366" y="716" type="curve" smooth="yes"/>
      <point x="221" y="716"/>
      <point x="88" y="643"/>
      <point x="88" y="493" type="curve" smooth="yes"/>
      <point x="88" y="339"/>
      <point x="231" y="299"/>
      <point x="353" y="275" type="curve" smooth="yes"/>
      <point x="400" y="266"/>
      <point x="481" y="257"/>
      <point x="481" y="208" type="curve" smooth="yes"/>
      <point x="481" y="160"/>
      <point x="436" y="139"/>
      <point x="369" y="139" type="curve" smooth="yes"/>
      <point x="286" y="139"/>
      <point x="236" y="179"/>
      <point x="237" y="256" type="curve"/>
      <point x="74" y="256" type="line"/>
      <point x="72" y="69"/>
      <point x="186" y="-18"/>
    </contour>
    <contour>
      <point x="375" y="0" type="move" name="bottom"/>
    </contour>
    <contour>
      <point x="375" y="696" type="move" name="top"/>
    </contour>
  </outline>
</glyph>
<glyph name="T" format="1">
  <advance width="740"/>
  <unicode hex="0054"/>
  <outline>
    <contour>
      <point x="388" y="0" type="line"/>
      <point x="388" y="520" type="line"/>
      <point x="651" y="520" type="line"/>
      <point x="651" y="696" type="line"/>
      <point x="89" y="696" type="line"/>
      <point x="89" y="520" type="line"/>
      <point x="352" y="520" type="line"/>
      <point x="352" y="0" type="line"/>
    </contour>
    <contour>
      <point x="370" y="0" type="move" name="bottom"/>
    </contour>
    <contour>
      <point x="370" y="304" type="move" name="center"/>
    </contour>
    <contour>
      <point x="370" y="696" type="move" name="top"/>
    </contour>
  </outline>
</glyph>
<glyph name="U" format="1">
  <advance width="740"/>
  <unicode hex="0055"/>
  <outline>
    <contour>
      <point x="370" y="-15" type="curve" smooth="yes"/>
      <point x="525" y="-15"/>
      <point x="651" y="111"/>
      <point x="651" y="266" type="curve" smooth="yes"/>
      <point x="651" y="696" type="line"/>
      <point x="89" y="696" type="line"/>
      <point x="89" y="266" type="line" smooth="yes"/>
      <point x="89" y="111"/>
      <point x="215" y="-15"/>
    </contour>
    <contour>
      <point x="370" y="0" type="move" name="bottom"/>
    </contour>
    <contour>
      <point x="651" y="696" type="move" name="horn"/>
    </contour>
    <contour>
      <point x="560" y="0" type="move" name="ogonek"/>
    </contour>
    <contour>
      <point x="370" y="696" type="move" name="top"/>
    </contour>
  </outline>
</glyph>
<glyph name="V" format="1">
  <advance width="740"/>
  <unicode hex="0056"/>
  <outline>
    <contour>
      <point x="370" y="-14" type="line"/>
      <point x="698" y="697" type="line"/>
      <point x="42" y="697" type="line"/>
    </contour>
    <contour>
      <point x="100" y="660" type="line"/>
      <point x="641" y="660" type="line"/>
      <point x="370" y="74" type="line"/>
    </contour>
    <contour>
      <point x="371" y="0" type="move" name="bottom"/>
    </contour>
    <contour>
      <point x="371" y="696" type="move" name="top"/>
    </contour>
  </outline>
</glyph>
<glyph name="W" format="1">
  <advance width="740"/>
  <unicode hex="0057"/>
  <outline>
    <contour>
      <point x="246" y="69" type="line"/>
      <point x="78" y="696" type="line"/>
      <point x="40" y="696" type="line"/>
      <point x="227" y="0" type="line"/>
      <point x="266" y="0" type="line"/>
      <point x="370" y="387" type="line"/>
      <point x="474" y="0" type="line"/>
      <point x="513" y="0" type="line"/>
      <point x="700" y="696" type="line"/>
      <point x="287" y="696" type="line"/>
      <point x="351" y="458" type="line"/>
    </contour>
    <contour>
      <point x="494" y="69" type="line"/>
      <point x="389" y="458" type="line"/>
      <point x="335" y="659" type="line"/>
      <point x="652" y="659" type="line"/>
    </contour>
    <contour>
      <point x="370" y="0" type="move" name="bottom"/>
    </contour>
    <contour>
      <point x="370" y="696" type="move" name="top"/>
    </contour>
  </outline>
</glyph>
<glyph name="X" format="1">
  <advance width="740"/>
  <unicode hex="0058"/>
  <outline>
    <contour>
      <point x="666" y="0" type="line"/>
      <point x="393" y="348" type="line"/>
      <point x="666" y="696" type="line"/>
      <point x="75" y="696" type="line"/>
      <point x="348" y="348" type="line"/>
      <point x="75" y="0" type="line"/>
    </contour>
    <contour>
      <point x="150" y="659" type="line"/>
      <point x="591" y="659" type="line"/>
      <point x="370" y="378" type="line"/>
    </contour>
    <contour>
      <point x="150" y="37" type="line"/>
      <point x="370" y="318" type="line"/>
      <point x="591" y="37" type="line"/>
    </contour>
    <contour>
      <point x="370" y="0" type="move" name="bottom"/>
    </contour>
    <contour>
      <point x="370" y="696" type="move" name="top"/>
    </contour>
  </outline>
</glyph>
<glyph name="Y" format="1">
  <advance width="740"/>
  <unicode hex="0059"/>
  <outline>
    <contour>
      <point x="352" y="285" type="line"/>
      <point x="352" y="0" type="line"/>
      <point x="389" y="0" type="line"/>
      <point x="389" y="285" type="line"/>
      <point x="667" y="696" type="line"/>
      <point x="73" y="696" type="line"/>
    </contour>
    <contour>
      <point x="370" y="0" type="move" name="bottom"/>
    </contour>
    <contour>
      <point x="370" y="696" type="move" name="top"/>
    </contour>
  </outline>
</glyph>
<glyph name="Z" format="1">
  <advance width="740"/>
  <unicode hex="005A"/>
  <outline>
    <contour>
      <point x="112" y="37" type="line"/>
      <point x="112" y="0" type="line"/>
      <point x="629" y="0" type="line"/>
      <point x="629" y="696" type="line"/>
      <point x="123" y="696" type="line"/>
      <point x="123" y="659" type="line"/>
      <point x="581" y="659" type="line"/>
    </contour>
    <contour>
      <point x="158" y="37" type="line"/>
      <point x="592" y="612" type="line"/>
      <point x="592" y="37" type="line"/>
    </contour>
    <contour>
      <point x="371" y="0" type="move" name="bottom"/>
    </contour>
    <contour>
      <point x="371" y="696" type="move" name="top"/>
    </contour>
  </outline>
</glyph>
<glyph name="bracketleft" format="1">
  <advance width="740"/>
  <unicode hex="005B"/>
  <outline>
    <contour>
      <point x="270" y="-93" type="line"/>
      <point x="471" y="-93" type="line"/>
      <point x="471" y="-56" type="line"/>
      <point x="306" y="-56" type="line"/>
      <point x="306" y="737" type="line"/>
      <point x="471" y="737" type="line"/>
      <point x="471" y="773" type="line"/>
      <point x="270" y="773" type="line"/>
    </contour>
  </outline>
</glyph>
<glyph name="backslash" format="1">
  <advance width="740"/>
  <unicode hex="005C"/>
  <outline>
    <contour>
      <point x="588" y="0" type="line"/>
      <point x="633" y="0" type="line"/>
      <point x="152" y="740" type="line"/>
      <point x="107" y="740" type="line"/>
    </contour>
  </outline>
</glyph>
<glyph name="bracketright" format="1">
  <advance width="740"/>
  <unicode hex="005D"/>
  <outline>
    <contour>
      <point x="435" y="737" type="line"/>
      <point x="435" y="-56" type="line"/>
      <point x="270" y="-56" type="line"/>
      <point x="270" y="-93" type="line"/>
      <point x="471" y="-93" type="line"/>
      <point x="471" y="773" type="line"/>
      <point x="270" y="773" type="line"/>
      <point x="270" y="737" type="line"/>
    </contour>
  </outline>
</glyph>
<glyph name="asciicircum" format="1">
  <advance width="740"/>
  <unicode hex="005E"/>
  <outline>
    <contour>
      <point x="248" y="744" type="line"/>
      <point x="370" y="866" type="line"/>
      <point x="492" y="744" type="line"/>
      <point x="519" y="770" type="line"/>
      <point x="370" y="918" type="line"/>
      <point x="222" y="770" type="line"/>
    </contour>
  </outline>
</glyph>
<glyph name="underscore" format="1">
  <advance width="740"/>
  <unicode hex="005F"/>
  <outline>
    <contour>
      <point x="102" y="-39" type="line"/>
      <point x="638" y="-39" type="line"/>
      <point x="638" y="-2" type="line"/>
      <point x="102" y="-2" type="line"/>
    </contour>
  </outline>
</glyph>
<glyph name="grave" format="1">
  <advance width="740"/>
  <unicode hex="0060"/>
  <outline>
    <contour>
      <point x="309" y="912" type="line"/>
      <point x="466" y="766" type="line"/>
      <point x="447" y="741" type="line"/>
      <point x="274" y="867" type="line"/>
    </contour>
  </outline>
</glyph>
<glyph name="a" format="1">
  <advance width="740"/>
  <unicode hex="0061"/>
  <outline>
    <contour>
      <point x="65" y="0" type="line"/>
      <point x="104" y="0" type="line"/>
      <point x="199" y="230" type="line"/>
      <point x="542" y="230" type="line"/>
      <point x="636" y="0" type="line"/>
      <point x="676" y="0" type="line"/>
      <point x="390" y="696" type="line"/>
      <point x="351" y="696" type="line"/>
    </contour>
    <contour>
      <point x="370" y="648" type="line"/>
      <point x="527" y="266" type="line"/>
      <point x="214" y="266" type="line"/>
    </contour>
    <contour>
      <point x="370" y="0" type="move" name="bottom"/>
    </contour>
    <contour>
      <point x="676" y="0" type="move" name="ogonek"/>
    </contour>
    <contour>
      <point x="370" y="696" type="move" name="top"/>
    </contour>
  </outline>
</glyph>
<glyph name="b" format="1">
  <advance width="740"/>
  <unicode hex="0062"/>
  <outline>
    <contour>
      <point x="510" y="676" type="curve" smooth="yes"/>
      <point x="483" y="690"/>
      <point x="449" y="696"/>
      <point x="405" y="696" type="curve" smooth="yes"/>
      <point x="127" y="696" type="line"/>
      <point x="127" y="0" type="line"/>
      <point x="419" y="0" type="line" smooth="yes"/>
      <point x="483" y="0"/>
      <point x="513" y="9"/>
      <point x="540" y="24" type="curve" smooth="yes"/>
      <point x="597" y="56"/>
      <point x="635" y="118"/>
      <point x="635" y="188" type="curve" smooth="yes"/>
      <point x="635" y="267"/>
      <point x="582" y="336"/>
      <point x="512" y="360" type="curve"/>
      <point x="572" y="392"/>
      <point x="608" y="450"/>
      <point x="608" y="516" type="curve" smooth="yes"/>
      <point x="608" y="585"/>
      <point x="573" y="644"/>
    </contour>
    <contour>
      <point x="518" y="52" type="curve" smooth="yes"/>
      <point x="498" y="42"/>
      <point x="474" y="36"/>
      <point x="420" y="36" type="curve" smooth="yes"/>
      <point x="163" y="36" type="line"/>
      <point x="163" y="337" type="line"/>
      <point x="433" y="337" type="line" smooth="yes"/>
      <point x="473" y="337"/>
      <point x="495" y="332"/>
      <point x="514" y="323" type="curve" smooth="yes"/>
      <point x="566" y="299"/>
      <point x="599" y="247"/>
      <point x="599" y="187" type="curve" smooth="yes"/>
      <point x="599" y="129"/>
      <point x="567" y="77"/>
    </contour>
    <contour>
      <point x="494" y="389" type="curve" smooth="yes"/>
      <point x="473" y="378"/>
      <point x="449" y="373"/>
      <point x="411" y="373" type="curve" smooth="yes"/>
      <point x="163" y="373" type="line"/>
      <point x="163" y="659" type="line"/>
      <point x="393" y="659" type="line" smooth="yes"/>
      <point x="424" y="659"/>
      <point x="461" y="658"/>
      <point x="487" y="647" type="curve" smooth="yes"/>
      <point x="534" y="627"/>
      <point x="572" y="580"/>
      <point x="572" y="516" type="curve" smooth="yes"/>
      <point x="572" y="461"/>
      <point x="541" y="413"/>
    </contour>
    <contour>
      <point x="361" y="0" type="move" name="bottom"/>
    </contour>
    <contour>
      <point x="361" y="696" type="move" name="top"/>
    </contour>
  </outline>
</glyph>
<glyph name="c" format="1">
  <advance width="740"/>
  <unicode hex="0063"/>
  <outline>
    <contour>
      <point x="131" y="266" type="curve" smooth="yes"/>
      <point x="131" y="430" type="line" smooth="yes"/>
      <point x="131" y="564"/>
      <point x="240" y="674"/>
      <point x="375" y="674" type="curve" smooth="yes"/>
      <point x="512" y="674"/>
      <point x="614" y="586"/>
      <point x="617" y="464" type="curve"/>
      <point x="653" y="464" type="line"/>
      <point x="653" y="605"/>
      <point x="531" y="711"/>
      <point x="375" y="711" type="curve" smooth="yes"/>
      <point x="220" y="711"/>
      <point x="95" y="585"/>
      <point x="95" y="430" type="curve" smooth="yes"/>
      <point x="95" y="266" type="line" smooth="yes"/>
      <point x="95" y="111"/>
      <point x="222" y="-15"/>
      <point x="377" y="-15" type="curve" smooth="yes"/>
      <point x="535" y="-15"/>
      <point x="655" y="92"/>
      <point x="655" y="232" type="curve"/>
      <point x="619" y="232" type="line"/>
      <point x="616" y="111"/>
      <point x="516" y="22"/>
      <point x="377" y="22" type="curve" smooth="yes"/>
      <point x="243" y="22"/>
      <point x="131" y="132"/>
    </contour>
    <contour>
      <point x="373" y="0" type="move" name="bottom"/>
    </contour>
    <contour>
      <point x="373" y="696" type="move" name="top"/>
    </contour>
  </outline>
</glyph>
<glyph name="d" format="1">
  <advance width="740"/>
  <unicode hex="0064"/>
  <outline>
    <contour>
      <point x="363" y="696" type="curve" smooth="yes"/>
      <point x="106" y="696" type="line"/>
      <point x="106" y="0" type="line"/>
      <point x="363" y="0" type="line" smooth="yes"/>
      <point x="517" y="0"/>
      <point x="644" y="126"/>
      <point x="644" y="281" type="curve" smooth="yes"/>
      <point x="644" y="415" type="line" smooth="yes"/>
      <point x="644" y="570"/>
      <point x="517" y="696"/>
    </contour>
    <contour>
      <point x="607" y="281" type="line" smooth="yes"/>
      <point x="607" y="146"/>
      <point x="497" y="37"/>
      <point x="362" y="37" type="curve" smooth="yes"/>
      <point x="143" y="37" type="line"/>
      <point x="143" y="659" type="line"/>
      <point x="362" y="659" type="line" smooth="yes"/>
      <point x="497" y="659"/>
      <point x="607" y="550"/>
      <point x="607" y="415" type="curve" smooth="yes"/>
    </contour>
    <contour>
      <point x="355" y="0" type="move" name="bottom"/>
    </contour>
    <contour>
      <point x="355" y="696" type="move" name="top"/>
    </contour>
  </outline>
</glyph>
<glyph name="e" format="1">
  <advance width="740"/>
  <unicode hex="0065"/>
  <outline>
    <contour>
      <point x="130" y="0" type="line"/>
      <point x="620" y="0" type="line"/>
      <point x="620" y="37" type="line"/>
      <point x="167" y="37" type="line"/>
      <point x="167" y="340" type="line"/>
      <point x="561" y="340" type="line"/>
      <point x="561" y="377" type="line"/>
      <point x="167" y="377" type="line"/>
      <point x="167" y="659" type="line"/>
      <point x="620" y="659" type="line"/>
      <point x="620" y="696" type="line"/>
      <point x="130" y="696" type="line"/>
    </contour>
    <contour>
      <point x="374" y="0" type="move" name="bottom"/>
    </contour>
    <contour>
      <point x="620" y="0" type="move" name="ogonek"/>
    </contour>
    <contour>
      <point x="374" y="696" type="move" name="top"/>
    </contour>
  </outline>
</glyph>
<glyph name="f" format="1">
  <advance width="740"/>
  <unicode hex="0066"/>
  <outline>
    <contour>
      <point x="139" y="0" type="line"/>
      <point x="176" y="0" type="line"/>
      <point x="176" y="330" type="line"/>
      <point x="566" y="330" type="line"/>
      <point x="566" y="367" type="line"/>
      <point x="176" y="367" type="line"/>
      <point x="176" y="659" type="line"/>
      <point x="658" y="659" type="line"/>
      <point x="658" y="696" type="line"/>
      <point x="139" y="696" type="line"/>
    </contour>
    <contour>
      <point x="158" y="0" type="move" name="bottom"/>
    </contour>
    <contour>
      <point x="400" y="696" type="move" name="top"/>
    </contour>
  </outline>
</glyph>
<glyph name="g" format="1">
  <advance width="740"/>
  <unicode hex="0067"/>
  <outline>
    <contour>
      <point x="615" y="0" type="line"/>
      <point x="652" y="0" type="line"/>
      <point x="652" y="344" type="line"/>
      <point x="365" y="344" type="line"/>
      <point x="365" y="307" type="line"/>
      <point x="615" y="307" type="line"/>
      <point x="615" y="272" type="line" smooth="yes"/>
      <point x="615" y="134"/>
      <point x="506" y="22"/>
      <point x="365" y="22" type="curve" smooth="yes"/>
      <point x="227" y="22"/>
      <point x="115" y="134"/>
      <point x="115" y="282" type="curve" smooth="yes"/>
      <point x="115" y="422" type="line" smooth="yes"/>
      <point x="115" y="564"/>
      <point x="225" y="674"/>
      <point x="365" y="674" type="curve" smooth="yes"/>
      <point x="441" y="674"/>
      <point x="503" y="650"/>
      <point x="547" y="604" type="curve" smooth="yes"/>
      <point x="581" y="568"/>
      <point x="609" y="518"/>
      <point x="610" y="466" type="curve"/>
      <point x="646" y="466" type="line"/>
      <point x="646" y="527"/>
      <point x="615" y="585"/>
      <point x="576" y="627" type="curve" smooth="yes"/>
      <point x="525" y="682"/>
      <point x="452" y="711"/>
      <point x="365" y="711" type="curve" smooth="yes"/>
      <point x="205" y="711"/>
      <point x="78" y="584"/>
      <point x="78" y="422" type="curve" smooth="yes"/>
      <point x="78" y="282" type="line" smooth="yes"/>
      <point x="78" y="114"/>
      <point x="207" y="-15"/>
      <point x="365" y="-15" type="curve" smooth="yes"/>
      <point x="472" y="-15"/>
      <point x="579" y="50"/>
      <point x="615" y="143" type="curve"/>
    </contour>
    <contour>
      <point x="367" y="0" type="move" name="bottom"/>
    </contour>
    <contour>
      <point x="367" y="696" type="move" name="top"/>
    </contour>
  </outline>
</glyph>
<glyph name="i" format="1">
  <advance width="740"/>
  <unicode hex="0069"/>
  <outline>
    <contour>
      <point x="145" y="696" type="line"/>
      <point x="145" y="659" type="line"/>
      <point x="352" y="659" type="line"/>
      <point x="352" y="37" type="line"/>
      <point x="145" y="37" type="line"/>
      <point x="145" y="0" type="line"/>
      <point x="596" y="0" type="line"/>
      <point x="596" y="37" type="line"/>
      <point x="388" y="37" type="line"/>
      <point x="388" y="659" type="line"/>
      <point x="596" y="659" type="line"/>
      <point x="596" y="696" type="line"/>
    </contour>
    <contour>
      <point x="370" y="0" type="move" name="bottom"/>
    </contour>
    <contour>
      <point x="595" y="0" type="move" name="ogonek"/>
    </contour>
    <contour>
      <point x="370" y="696" type="move" name="top"/>
    </contour>
  </outline>
</glyph>
<glyph name="j" format="1">
  <advance width="740"/>
  <unicode hex="006A"/>
  <outline>
    <contour>
      <point x="358" y="-15" type="curve" smooth="yes"/>
      <point x="513" y="-15"/>
      <point x="639" y="109"/>
      <point x="639" y="276" type="curve" smooth="yes"/>
      <point x="639" y="696" type="line"/>
      <point x="291" y="696" type="line"/>
      <point x="291" y="659" type="line"/>
      <point x="603" y="659" type="line"/>
      <point x="603" y="276" type="line" smooth="yes"/>
      <point x="603" y="130"/>
      <point x="493" y="22"/>
      <point x="358" y="22" type="curve" smooth="yes"/>
      <point x="234" y="22"/>
      <point x="131" y="113"/>
      <point x="117" y="233" type="curve"/>
      <point x="80" y="233" type="line"/>
      <point x="94" y="93"/>
      <point x="214" y="-15"/>
    </contour>
    <contour>
      <point x="364" y="0" type="move" name="bottom"/>
    </contour>
    <contour>
      <point x="464" y="696" type="move" name="top"/>
    </contour>
  </outline>
</glyph>
<glyph name="k" format="1">
  <advance width="740"/>
  <unicode hex="006B"/>
  <outline>
    <contour>
      <point x="110" y="696" type="line"/>
      <point x="110" y="0" type="line"/>
      <point x="147" y="0" type="line"/>
      <point x="147" y="173" type="line"/>
      <point x="354" y="380" type="line"/>
      <point x="626" y="0" type="line"/>
      <point x="670" y="0" type="line"/>
      <point x="380" y="406" type="line"/>
      <point x="671" y="696" type="line"/>
      <point x="619" y="696" type="line"/>
      <point x="147" y="225" type="line"/>
      <point x="147" y="696" type="line"/>
    </contour>
    <contour>
      <point x="368" y="0" type="move" name="bottom"/>
    </contour>
    <contour>
      <point x="368" y="696" type="move" name="top"/>
    </contour>
  </outline>
</glyph>
<glyph name="l" format="1">
  <advance width="740"/>
  <unicode hex="006C"/>
  <outline>
    <contour>
      <point x="677" y="0" type="line"/>
      <point x="677" y="37" type="line"/>
      <point x="192" y="37" type="line"/>
      <point x="192" y="696" type="line"/>
      <point x="155" y="696" type="line"/>
      <point x="155" y="0" type="line"/>
    </contour>
    <contour>
      <point x="418" y="0" type="move" name="bottom"/>
    </contour>
    <contour>
      <point x="192" y="349" type="move" name="center"/>
    </contour>
    <contour>
      <point x="174" y="696" type="move" name="top"/>
    </contour>
    <contour>
      <point x="560" y="696" type="move" name="topright"/>
    </contour>
  </outline>
</glyph>
<glyph name="m" format="1">
  <advance width="740"/>
  <unicode hex="006D"/>
  <outline>
    <contour>
      <point x="126" y="627" type="line"/>
      <point x="354" y="225" type="line"/>
      <point x="389" y="225" type="line"/>
      <point x="614" y="622" type="line"/>
      <point x="614" y="0" type="line"/>
      <point x="651" y="0" type="line"/>
      <point x="651" y="696" type="line"/>
      <point x="614" y="696" type="line"/>
      <point x="372" y="267" type="line"/>
      <point x="129" y="696" type="line"/>
      <point x="89" y="696" type="line"/>
      <point x="89" y="0" type="line"/>
      <point x="126" y="0" type="line"/>
    </contour>
    <contour>
      <point x="372" y="0" type="move" name="bottom"/>
    </contour>
    <contour>
      <point x="372" y="696" type="move" name="top"/>
    </contour>
  </outline>
</glyph>
<glyph name="n" format="1">
  <advance width="740"/>
  <unicode hex="006E"/>
  <outline>
    <contour>
      <point x="135" y="0" type="line"/>
      <point x="135" y="648" type="line"/>
      <point x="623" y="172" type="line"/>
      <point x="623" y="0" type="line"/>
      <point x="660" y="0" type="line"/>
      <point x="660" y="696" type="line"/>
      <point x="623" y="696" type="line"/>
      <point x="623" y="224" type="line"/>
      <point x="137" y="696" type="line"/>
      <point x="98" y="696" type="line"/>
      <point x="98" y="0" type="line"/>
    </contour>
    <contour>
      <point x="383" y="0" type="move" name="bottom"/>
    </contour>
    <contour>
      <point x="383" y="696" type="move" name="top"/>
    </contour>
  </outline>
</glyph>
<glyph name="o" format="1">
  <advance width="740"/>
  <unicode hex="006F"/>
  <outline>
    <contour>
      <point x="370" y="711" type="curve" smooth="yes"/>
      <point x="212" y="711"/>
      <point x="83" y="582"/>
      <point x="83" y="424" type="curve" smooth="yes"/>
      <point x="83" y="272" type="line" smooth="yes"/>
      <point x="83" y="114"/>
      <point x="212" y="-15"/>
      <point x="370" y="-15" type="curve" smooth="yes"/>
      <point x="528" y="-15"/>
      <point x="657" y="114"/>
      <point x="657" y="272" type="curve" smooth="yes"/>
      <point x="657" y="424" type="line" smooth="yes"/>
      <point x="657" y="582"/>
      <point x="528" y="711"/>
    </contour>
    <contour>
      <point x="120" y="272" type="curve" smooth="yes"/>
      <point x="120" y="424" type="line" smooth="yes"/>
      <point x="120" y="562"/>
      <point x="232" y="674"/>
      <point x="370" y="674" type="curve" smooth="yes"/>
      <point x="508" y="674"/>
      <point x="620" y="562"/>
      <point x="620" y="424" type="curve" smooth="yes"/>
      <point x="620" y="272" type="line" smooth="yes"/>
      <point x="620" y="134"/>
      <point x="508" y="22"/>
      <point x="370" y="22" type="curve" smooth="yes"/>
      <point x="232" y="22"/>
      <point x="120" y="134"/>
    </contour>
    <contour>
      <point x="370" y="0" type="move" name="bottom"/>
    </contour>
    <contour>
      <point x="370" y="348" type="move" name="center"/>
    </contour>
    <contour>
      <point x="583" y="696" type="move" name="horn"/>
    </contour>
    <contour>
      <point x="560" y="0" type="move" name="ogonek"/>
    </contour>
    <contour>
      <point x="370" y="696" type="move" name="top"/>
    </contour>
  </outline>
</glyph>
<glyph name="p" format="1">
  <advance width="740"/>
  <unicode hex="0070"/>
  <outline>
    <contour>
      <point x="176" y="211" type="line"/>
      <point x="419" y="211" type="line" smooth="yes"/>
      <point x="468" y="211"/>
      <point x="511" y="220"/>
      <point x="546" y="238" type="curve" smooth="yes"/>
      <point x="626" y="279"/>
      <point x="678" y="361"/>
      <point x="678" y="454" type="curve" smooth="yes"/>
      <point x="678" y="602"/>
      <point x="559" y="696"/>
      <point x="419" y="696" type="curve" smooth="yes"/>
      <point x="139" y="696" type="line"/>
      <point x="139" y="0" type="line"/>
      <point x="176" y="0" type="line"/>
    </contour>
    <contour>
      <point x="176" y="659" type="line"/>
      <point x="419" y="659" type="line" smooth="yes"/>
      <point x="461" y="659"/>
      <point x="494" y="653"/>
      <point x="523" y="639" type="curve" smooth="yes"/>
      <point x="594" y="606"/>
      <point x="641" y="534"/>
      <point x="641" y="454" type="curve" smooth="yes"/>
      <point x="641" y="373"/>
      <point x="595" y="301"/>
      <point x="524" y="268" type="curve" smooth="yes"/>
      <point x="495" y="254"/>
      <point x="460" y="248"/>
      <point x="419" y="248" type="curve" smooth="yes"/>
      <point x="176" y="248" type="line"/>
    </contour>
    <contour>
      <point x="158" y="0" type="move" name="bottom"/>
    </contour>
    <contour>
      <point x="392" y="696" type="move" name="top"/>
    </contour>
  </outline>
</glyph>
<glyph name="q" format="1">
  <advance width="740"/>
  <unicode hex="0071"/>
  <outline>
    <contour>
      <point x="581" y="81" type="line"/>
      <point x="626" y="132"/>
      <point x="655" y="199"/>
      <point x="655" y="273" type="curve"/>
      <point x="655" y="425" type="line" smooth="yes"/>
      <point x="655" y="583"/>
      <point x="526" y="712"/>
      <point x="368" y="712" type="curve" smooth="yes"/>
      <point x="209" y="712"/>
      <point x="81" y="583"/>
      <point x="81" y="425" type="curve" smooth="yes"/>
      <point x="81" y="273" type="line" smooth="yes"/>
      <point x="81" y="115"/>
      <point x="209" y="-14"/>
      <point x="368" y="-14" type="curve" smooth="yes"/>
      <point x="439" y="-14"/>
      <point x="504" y="12"/>
      <point x="554" y="56" type="curve"/>
      <point x="632" y="-33" type="line"/>
      <point x="659" y="-9" type="line"/>
    </contour>
    <contour>
      <point x="618" y="273" type="line" smooth="yes"/>
      <point x="618" y="211"/>
      <point x="594" y="153"/>
      <point x="556" y="109" type="curve"/>
      <point x="453" y="227" type="line"/>
      <point x="425" y="203" type="line"/>
      <point x="530" y="83" type="line"/>
      <point x="486" y="46"/>
      <point x="430" y="23"/>
      <point x="368" y="23" type="curve" smooth="yes"/>
      <point x="230" y="23"/>
      <point x="117" y="135"/>
      <point x="117" y="273" type="curve" smooth="yes"/>
      <point x="117" y="425" type="line" smooth="yes"/>
      <point x="117" y="563"/>
      <point x="230" y="675"/>
      <point x="368" y="675" type="curve" smooth="yes"/>
      <point x="506" y="675"/>
      <point x="618" y="563"/>
      <point x="618" y="425" type="curve" smooth="yes"/>
    </contour>
    <contour>
      <point x="371" y="0" type="move" name="bottom"/>
    </contour>
    <contour>
      <point x="371" y="696" type="move" name="top"/>
    </contour>
  </outline>
</glyph>
<glyph name="r" format="1">
  <advance width="740"/>
  <unicode hex="0072"/>
  <outline>
    <contour>
      <point x="521" y="673" type="curve" smooth="yes"/>
      <point x="486" y="689"/>
      <point x="447" y="696"/>
      <point x="388" y="696" type="curve" smooth="yes"/>
      <point x="123" y="696" type="line"/>
      <point x="123" y="0" type="line"/>
      <point x="160" y="0" type="line"/>
      <point x="160" y="239" type="line"/>
      <point x="411" y="239" type="line" smooth="yes"/>
      <point x="422" y="239"/>
      <point x="443" y="240"/>
      <point x="443" y="240" type="curve"/>
      <point x="614" y="0" type="line"/>
      <point x="658" y="0" type="line"/>
      <point x="481" y="247" type="line"/>
      <point x="578" y="274"/>
      <point x="650" y="363"/>
      <point x="650" y="468" type="curve" smooth="yes"/>
      <point x="650" y="557"/>
      <point x="602" y="635"/>
    </contour>
    <contour>
      <point x="160" y="276" type="line"/>
      <point x="160" y="659" type="line"/>
      <point x="388" y="659" type="line" smooth="yes"/>
      <point x="432" y="659"/>
      <point x="469" y="655"/>
      <point x="498" y="643" type="curve" smooth="yes"/>
      <point x="571" y="612"/>
      <point x="613" y="544"/>
      <point x="613" y="468" type="curve" smooth="yes"/>
      <point x="613" y="363"/>
      <point x="527" y="276"/>
      <point x="421" y="276" type="curve" smooth="yes"/>
    </contour>
    <contour>
      <point x="370" y="0" type="move" name="bottom"/>
    </contour>
    <contour>
      <point x="370" y="696" type="move" name="top"/>
    </contour>
  </outline>
</glyph>
<glyph name="s" format="1">
  <advance width="740"/>
  <unicode hex="0073"/>
  <outline>
    <contour>
      <point x="385" y="333" type="curve" smooth="yes"/>
      <point x="504" y="309"/>
      <point x="596" y="294"/>
      <point x="595" y="182" type="curve"/>
      <point x="595" y="78"/>
      <point x="499" y="20"/>
      <point x="382" y="20" type="curve"/>
      <point x="233" y="20"/>
      <point x="142" y="105"/>
      <point x="143" y="233" type="curve"/>
      <point x="106" y="233" type="line"/>
      <point x="105" y="85"/>
      <point x="213" y="-15"/>
      <point x="382" y="-15" type="curve" smooth="yes"/>
      <point x="510" y="-15"/>
      <point x="632" y="48"/>
      <point x="632" y="183" type="curve" smooth="yes"/>
      <point x="632" y="322"/>
      <point x="516" y="343"/>
      <point x="396" y="368" type="curve" smooth="yes"/>
      <point x="265" y="395"/>
      <point x="169" y="418"/>
      <point x="169" y="520" type="curve" smooth="yes"/>
      <point x="169" y="631"/>
      <point x="275" y="677"/>
      <point x="376" y="677" type="curve" smooth="yes"/>
      <point x="498" y="677"/>
      <point x="595" y="600"/>
      <point x="595" y="479" type="curve"/>
      <point x="632" y="479" type="line"/>
      <point x="632" y="619"/>
      <point x="517" y="712"/>
      <point x="377" y="712" type="curve" smooth="yes"/>
      <point x="231" y="712"/>
      <point x="134" y="637"/>
      <point x="132" y="520" type="curve"/>
      <point x="131" y="401"/>
      <point x="233" y="363"/>
    </contour>
    <contour>
      <point x="378" y="0" type="move" name="bottom"/>
    </contour>
    <contour>
      <point x="378" y="696" type="move" name="top"/>
    </contour>
  </outline>
</glyph>
<glyph name="t" format="1">
  <advance width="740"/>
  <unicode hex="0074"/>
  <outline>
    <contour>
      <point x="89" y="696" type="line"/>
      <point x="89" y="659" type="line"/>
      <point x="352" y="659" type="line"/>
      <point x="352" y="0" type="line"/>
      <point x="388" y="0" type="line"/>
      <point x="388" y="659" type="line"/>
      <point x="651" y="659" type="line"/>
      <point x="651" y="696" type="line"/>
    </contour>
    <contour>
      <point x="370" y="0" type="move" name="bottom"/>
    </contour>
    <contour>
      <point x="370" y="364" type="move" name="center"/>
    </contour>
    <contour>
      <point x="370" y="696" type="move" name="top"/>
    </contour>
  </outline>
</glyph>
<glyph name="v" format="1">
  <advance width="740"/>
  <unicode hex="0076"/>
  <outline>
    <contour>
      <point x="63" y="696" type="line"/>
      <point x="349" y="0" type="line"/>
      <point x="388" y="0" type="line"/>
      <point x="674" y="696" type="line"/>
      <point x="635" y="696" type="line"/>
      <point x="369" y="49" type="line"/>
      <point x="103" y="696" type="line"/>
    </contour>
    <contour>
      <point x="370" y="0" type="move" name="bottom"/>
    </contour>
    <contour>
      <point x="370" y="696" type="move" name="top"/>
    </contour>
  </outline>
</glyph>
<glyph name="w" format="1">
  <advance width="740"/>
  <unicode hex="0077"/>
  <outline>
    <contour>
      <point x="662" y="696" type="line"/>
      <point x="494" y="69" type="line"/>
      <point x="389" y="458" type="line"/>
      <point x="325" y="696" type="line"/>
      <point x="287" y="696" type="line"/>
      <point x="351" y="458" type="line"/>
      <point x="246" y="69" type="line"/>
      <point x="78" y="696" type="line"/>
      <point x="40" y="696" type="line"/>
      <point x="227" y="0" type="line"/>
      <point x="266" y="0" type="line"/>
      <point x="370" y="387" type="line"/>
      <point x="474" y="0" type="line"/>
      <point x="513" y="0" type="line"/>
      <point x="700" y="696" type="line"/>
    </contour>
    <contour>
      <point x="370" y="0" type="move" name="bottom"/>
    </contour>
    <contour>
      <point x="370" y="696" type="move" name="top"/>
    </contour>
  </outline>
</glyph>
<glyph name="x" format="1">
  <advance width="740"/>
  <unicode hex="0078"/>
  <outline>
    <contour>
      <point x="79" y="0" type="line"/>
      <point x="127" y="0" type="line"/>
      <point x="370" y="317" type="line"/>
      <point x="614" y="0" type="line"/>
      <point x="661" y="0" type="line"/>
      <point x="394" y="348" type="line"/>
      <point x="661" y="696" type="line"/>
      <point x="614" y="696" type="line"/>
      <point x="370" y="379" type="line"/>
      <point x="127" y="696" type="line"/>
      <point x="79" y="696" type="line"/>
      <point x="346" y="348" type="line"/>
    </contour>
    <contour>
      <point x="370" y="0" type="move" name="bottom"/>
    </contour>
    <contour>
      <point x="370" y="696" type="move" name="top"/>
    </contour>
  </outline>
</glyph>
<glyph name="y" format="1">
  <advance width="740"/>
  <unicode hex="0079"/>
  <outline>
    <contour>
      <point x="80" y="696" type="line"/>
      <point x="352" y="285" type="line"/>
      <point x="352" y="0" type="line"/>
      <point x="389" y="0" type="line"/>
      <point x="389" y="285" type="line"/>
      <point x="660" y="696" type="line"/>
      <point x="616" y="696" type="line"/>
      <point x="371" y="324" type="line"/>
      <point x="124" y="696" type="line"/>
    </contour>
    <contour>
      <point x="371" y="0" type="move" name="bottom"/>
    </contour>
    <contour>
      <point x="371" y="696" type="move" name="top"/>
    </contour>
  </outline>
</glyph>
<glyph name="z" format="1">
  <advance width="740"/>
  <unicode hex="007A"/>
  <outline>
    <contour>
      <point x="123" y="696" type="line"/>
      <point x="123" y="659" type="line"/>
      <point x="581" y="659" type="line"/>
      <point x="112" y="37" type="line"/>
      <point x="112" y="0" type="line"/>
      <point x="629" y="0" type="line"/>
      <point x="629" y="37" type="line"/>
      <point x="158" y="37" type="line"/>
      <point x="628" y="659" type="line"/>
      <point x="629" y="696" type="line"/>
    </contour>
    <contour>
      <point x="370" y="0" type="move" name="bottom"/>
    </contour>
    <contour>
      <point x="370" y="696" type="move" name="top"/>
    </contour>
  </outline>
</glyph>
<glyph name="braceleft" format="1">
  <advance width="740"/>
  <unicode hex="007B"/>
  <outline>
    <contour>
      <point x="352" y="566" type="line" smooth="yes"/>
      <point x="352" y="505"/>
      <point x="301" y="454"/>
      <point x="239" y="454" type="curve"/>
      <point x="239" y="417" type="line"/>
      <point x="301" y="417"/>
      <point x="352" y="367"/>
      <point x="352" y="305" type="curve" smooth="yes"/>
      <point x="352" y="145" type="line" smooth="yes"/>
      <point x="352" y="63"/>
      <point x="418" y="-4"/>
      <point x="501" y="-4" type="curve"/>
      <point x="501" y="33" type="line"/>
      <point x="439" y="33"/>
      <point x="388" y="84"/>
      <point x="388" y="145" type="curve" smooth="yes"/>
      <point x="388" y="305" type="line" smooth="yes"/>
      <point x="388" y="362"/>
      <point x="357" y="411"/>
      <point x="311" y="436" type="curve"/>
      <point x="357" y="461"/>
      <point x="388" y="510"/>
      <point x="388" y="566" type="curve" smooth="yes"/>
      <point x="388" y="726" type="line" smooth="yes"/>
      <point x="388" y="788"/>
      <point x="439" y="839"/>
      <point x="501" y="839" type="curve"/>
      <point x="501" y="875" type="line"/>
      <point x="418" y="875"/>
      <point x="352" y="808"/>
      <point x="352" y="726" type="curve" smooth="yes"/>
    </contour>
  </outline>
</glyph>
<glyph name="bar" format="1">
  <advance width="740"/>
  <unicode hex="007C"/>
  <outline>
    <contour>
      <point x="352" y="773" type="line"/>
      <point x="352" y="-93" type="line"/>
      <point x="388" y="-93" type="line"/>
      <point x="388" y="773" type="line"/>
    </contour>
  </outline>
</glyph>
<glyph name="braceright" format="1">
  <advance width="740"/>
  <unicode hex="007D"/>
  <outline>
    <contour>
      <point x="239" y="33" type="curve"/>
      <point x="239" y="-4" type="line"/>
      <point x="322" y="-4"/>
      <point x="388" y="63"/>
      <point x="388" y="145" type="curve" smooth="yes"/>
      <point x="388" y="305" type="line" smooth="yes"/>
      <point x="388" y="367"/>
      <point x="439" y="417"/>
      <point x="501" y="417" type="curve"/>
      <point x="501" y="454" type="line"/>
      <point x="439" y="454"/>
      <point x="388" y="505"/>
      <point x="388" y="566" type="curve" smooth="yes"/>
      <point x="388" y="726" type="line" smooth="yes"/>
      <point x="388" y="809"/>
      <point x="322" y="875"/>
      <point x="239" y="875" type="curve"/>
      <point x="239" y="839" type="line"/>
      <point x="301" y="839"/>
      <point x="352" y="788"/>
      <point x="352" y="726" type="curve" smooth="yes"/>
      <point x="352" y="566" type="line" smooth="yes"/>
      <point x="352" y="510"/>
      <point x="383" y="461"/>
      <point x="429" y="436" type="curve"/>
      <point x="383" y="411"/>
      <point x="352" y="361"/>
      <point x="352" y="305" type="curve" smooth="yes"/>
      <point x="352" y="145" type="line" smooth="yes"/>
      <point x="352" y="83"/>
      <point x="301" y="33"/>
    </contour>
  </outline>
</glyph>
<glyph name="asciitilde" format="1">
  <advance width="740"/>
  <unicode hex="007E"/>
  <outline>
    <contour>
      <point x="110" y="310" type="curve"/>
      <point x="138" y="286" type="line"/>
      <point x="162" y="313"/>
      <point x="204" y="348"/>
      <point x="262" y="348" type="curve" smooth="yes"/>
      <point x="290" y="348"/>
      <point x="322" y="339"/>
      <point x="357" y="317" type="curve" smooth="yes"/>
      <point x="402" y="289"/>
      <point x="443" y="278"/>
      <point x="479" y="278" type="curve"/>
      <point x="553" y="278"/>
      <point x="606" y="325"/>
      <point x="630" y="351" type="curve"/>
      <point x="602" y="376" type="line"/>
      <point x="578" y="349"/>
      <point x="536" y="315"/>
      <point x="479" y="315" type="curve" smooth="yes"/>
      <point x="449" y="315"/>
      <point x="415" y="324"/>
      <point x="376" y="348" type="curve" smooth="yes"/>
      <point x="334" y="375"/>
      <point x="296" y="385"/>
      <point x="262" y="385" type="curve" smooth="yes"/>
      <point x="188" y="385"/>
      <point x="135" y="337"/>
    </contour>
  </outline>
</glyph>
<glyph name="exclamdown" format="1">
  <advance width="740"/>
  <unicode hex="00A1"/>
  <outline>
    <contour>
      <point x="290" y="0" type="line"/>
      <point x="450" y="0" type="line"/>
      <point x="413" y="456" type="line"/>
      <point x="327" y="456" type="line"/>
    </contour>
    <contour>
      <point x="370" y="530" type="curve" smooth="yes"/>
      <point x="420" y="530"/>
      <point x="461" y="570"/>
      <point x="461" y="620" type="curve" smooth="yes"/>
      <point x="461" y="670"/>
      <point x="420" y="711"/>
      <point x="370" y="711" type="curve" smooth="yes"/>
      <point x="320" y="711"/>
      <point x="279" y="670"/>
      <point x="279" y="620" type="curve" smooth="yes"/>
      <point x="279" y="570"/>
      <point x="320" y="530"/>
    </contour>
  </outline>
</glyph>
<glyph name="cent" format="1">
  <advance width="740"/>
  <unicode hex="00A2"/>
  <outline>
    <contour>
      <point x="613" y="262" type="curve"/>
      <point x="579" y="276" type="line"/>
      <point x="547" y="200"/>
      <point x="477" y="150"/>
      <point x="397" y="144" type="curve"/>
      <point x="397" y="578" type="line"/>
      <point x="475" y="572"/>
      <point x="545" y="523"/>
      <point x="577" y="450" type="curve"/>
      <point x="611" y="465" type="line"/>
      <point x="572" y="552"/>
      <point x="490" y="609"/>
      <point x="397" y="615" type="curve"/>
      <point x="397" y="710" type="line"/>
      <point x="360" y="710" type="line"/>
      <point x="360" y="615" type="line"/>
      <point x="230" y="605"/>
      <point x="127" y="495"/>
      <point x="127" y="361" type="curve" smooth="yes"/>
      <point x="127" y="227"/>
      <point x="230" y="117"/>
      <point x="360" y="107" type="curve"/>
      <point x="360" y="12" type="line"/>
      <point x="397" y="12" type="line"/>
      <point x="397" y="107" type="line"/>
      <point x="492" y="113"/>
      <point x="575" y="172"/>
    </contour>
    <contour>
      <point x="164" y="361" type="curve" smooth="yes"/>
      <point x="164" y="475"/>
      <point x="250" y="568"/>
      <point x="360" y="578" type="curve"/>
      <point x="360" y="144" type="line"/>
      <point x="250" y="154"/>
      <point x="164" y="247"/>
    </contour>
  </outline>
</glyph>
<glyph name="sterling" format="1">
  <advance width="740"/>
  <unicode hex="00A3"/>
  <outline>
    <contour>
      <point x="182" y="36" type="line"/>
      <point x="214" y="64"/>
      <point x="235" y="106"/>
      <point x="235" y="152" type="curve" smooth="yes"/>
      <point x="235" y="342" type="line"/>
      <point x="461" y="342" type="line"/>
      <point x="461" y="379" type="line"/>
      <point x="235" y="379" type="line"/>
      <point x="235" y="496" type="line" smooth="yes"/>
      <point x="235" y="600"/>
      <point x="319" y="684"/>
      <point x="422" y="684" type="curve" smooth="yes"/>
      <point x="526" y="684"/>
      <point x="610" y="600"/>
      <point x="610" y="496" type="curve"/>
      <point x="647" y="496" type="line"/>
      <point x="647" y="620"/>
      <point x="546" y="721"/>
      <point x="422" y="721" type="curve" smooth="yes"/>
      <point x="299" y="721"/>
      <point x="198" y="620"/>
      <point x="198" y="496" type="curve" smooth="yes"/>
      <point x="198" y="379" type="line"/>
      <point x="82" y="379" type="line"/>
      <point x="82" y="342" type="line"/>
      <point x="198" y="342" type="line"/>
      <point x="198" y="152" type="line" smooth="yes"/>
      <point x="198" y="88"/>
      <point x="146" y="36"/>
      <point x="82" y="36" type="curve"/>
      <point x="82" y="0" type="line"/>
      <point x="495" y="0" type="line" smooth="yes"/>
      <point x="585" y="0"/>
      <point x="658" y="73"/>
      <point x="658" y="162" type="curve"/>
      <point x="621" y="162" type="line"/>
      <point x="621" y="93"/>
      <point x="564" y="36"/>
      <point x="495" y="36" type="curve" smooth="yes"/>
    </contour>
  </outline>
</glyph>
<glyph name="currency" format="1">
  <advance width="740"/>
  <unicode hex="00A4"/>
  <outline>
    <contour>
      <point x="482" y="480" type="line"/>
      <point x="449" y="506"/>
      <point x="410" y="519"/>
      <point x="370" y="519" type="curve" smooth="yes"/>
      <point x="330" y="519"/>
      <point x="291" y="506"/>
      <point x="259" y="480" type="curve"/>
      <point x="198" y="540" type="line"/>
      <point x="172" y="514" type="line"/>
      <point x="232" y="454" type="line"/>
      <point x="180" y="389"/>
      <point x="180" y="295"/>
      <point x="232" y="231" type="curve"/>
      <point x="172" y="170" type="line"/>
      <point x="198" y="144" type="line"/>
      <point x="259" y="205" type="line"/>
      <point x="291" y="178"/>
      <point x="330" y="165"/>
      <point x="370" y="165" type="curve" smooth="yes"/>
      <point x="410" y="165"/>
      <point x="449" y="178"/>
      <point x="481" y="205" type="curve"/>
      <point x="542" y="144" type="line"/>
      <point x="568" y="170" type="line"/>
      <point x="508" y="231" type="line"/>
      <point x="560" y="295"/>
      <point x="560" y="389"/>
      <point x="508" y="454" type="curve"/>
      <point x="568" y="514" type="line"/>
      <point x="542" y="540" type="line"/>
    </contour>
    <contour>
      <point x="271" y="441" type="curve" smooth="yes"/>
      <point x="298" y="469"/>
      <point x="334" y="482"/>
      <point x="370" y="482" type="curve" smooth="yes"/>
      <point x="406" y="482"/>
      <point x="442" y="469"/>
      <point x="469" y="441" type="curve" smooth="yes"/>
      <point x="524" y="387"/>
      <point x="524" y="298"/>
      <point x="469" y="243" type="curve" smooth="yes"/>
      <point x="442" y="216"/>
      <point x="406" y="202"/>
      <point x="370" y="202" type="curve" smooth="yes"/>
      <point x="334" y="202"/>
      <point x="298" y="216"/>
      <point x="271" y="243" type="curve" smooth="yes"/>
      <point x="216" y="298"/>
      <point x="216" y="387"/>
    </contour>
  </outline>
</glyph>
<glyph name="yen" format="1">
  <advance width="740"/>
  <unicode hex="00A5"/>
  <outline>
    <contour>
      <point x="389" y="282" type="line"/>
      <point x="588" y="282" type="line"/>
      <point x="588" y="318" type="line"/>
      <point x="411" y="318" type="line"/>
      <point x="660" y="696" type="line"/>
      <point x="616" y="696" type="line"/>
      <point x="371" y="324" type="line"/>
      <point x="125" y="696" type="line"/>
      <point x="80" y="696" type="line"/>
      <point x="330" y="318" type="line"/>
      <point x="152" y="318" type="line"/>
      <point x="152" y="282" type="line"/>
      <point x="352" y="282" type="line"/>
      <point x="352" y="177" type="line"/>
      <point x="152" y="177" type="line"/>
      <point x="152" y="140" type="line"/>
      <point x="352" y="140" type="line"/>
      <point x="352" y="0" type="line"/>
      <point x="389" y="0" type="line"/>
      <point x="389" y="140" type="line"/>
      <point x="588" y="140" type="line"/>
      <point x="588" y="177" type="line"/>
      <point x="389" y="177" type="line"/>
    </contour>
  </outline>
</glyph>
<glyph name="brokenbar" format="1">
  <advance width="740"/>
  <unicode hex="00A6"/>
  <outline>
    <contour>
      <point x="352" y="773" type="line"/>
      <point x="352" y="425" type="line"/>
      <point x="388" y="425" type="line"/>
      <point x="388" y="773" type="line"/>
    </contour>
    <contour>
      <point x="388" y="-93" type="line"/>
      <point x="388" y="255" type="line"/>
      <point x="352" y="255" type="line"/>
      <point x="352" y="-93" type="line"/>
    </contour>
  </outline>
</glyph>
<glyph name="section" format="1">
  <advance width="740"/>
  <unicode hex="00A7"/>
  <outline>
    <contour>
      <point x="350" y="-61" type="curve" smooth="yes"/>
      <point x="279" y="-61"/>
      <point x="214" y="-2"/>
      <point x="215" y="71" type="curve"/>
      <point x="178" y="71" type="line"/>
      <point x="177" y="-22"/>
      <point x="259" y="-97"/>
      <point x="350" y="-97" type="curve"/>
      <point x="441" y="-98"/>
      <point x="526" y="-50"/>
      <point x="526" y="56" type="curve" smooth="yes"/>
      <point x="526" y="95"/>
      <point x="507" y="146"/>
      <point x="464" y="170" type="curve"/>
      <point x="510" y="186"/>
      <point x="543" y="235"/>
      <point x="544" y="290" type="curve" smooth="yes"/>
      <point x="545" y="382"/>
      <point x="490" y="407"/>
      <point x="416" y="436" type="curve" smooth="yes"/>
      <point x="379" y="450"/>
      <point x="345" y="459"/>
      <point x="301" y="477" type="curve" smooth="yes"/>
      <point x="267" y="491"/>
      <point x="237" y="532"/>
      <point x="237" y="570" type="curve"/>
      <point x="237" y="635"/>
      <point x="284" y="675"/>
      <point x="362" y="675" type="curve" smooth="yes"/>
      <point x="433" y="675"/>
      <point x="490" y="616"/>
      <point x="490" y="546" type="curve"/>
      <point x="526" y="546" type="line"/>
      <point x="527" y="636"/>
      <point x="453" y="711"/>
      <point x="362" y="711" type="curve" smooth="yes"/>
      <point x="263" y="711"/>
      <point x="201" y="657"/>
      <point x="200" y="570" type="curve"/>
      <point x="200" y="528"/>
      <point x="228" y="481"/>
      <point x="268" y="456" type="curve"/>
      <point x="218" y="431"/>
      <point x="185" y="389"/>
      <point x="185" y="331" type="curve"/>
      <point x="184" y="286"/>
      <point x="212" y="233"/>
      <point x="274" y="208" type="curve" smooth="yes"/>
      <point x="329" y="186"/>
      <point x="369" y="170"/>
      <point x="436" y="143" type="curve" smooth="yes"/>
      <point x="476" y="126"/>
      <point x="490" y="92"/>
      <point x="490" y="56" type="curve" smooth="yes"/>
      <point x="490" y="-26"/>
      <point x="425" y="-61"/>
    </contour>
    <contour>
      <point x="508" y="290" type="curve" smooth="yes"/>
      <point x="507" y="230"/>
      <point x="460" y="197"/>
      <point x="425" y="187" type="curve"/>
      <point x="371" y="208"/>
      <point x="321" y="225"/>
      <point x="286" y="243" type="curve" smooth="yes"/>
      <point x="242" y="265"/>
      <point x="221" y="296"/>
      <point x="221" y="331" type="curve"/>
      <point x="222" y="385"/>
      <point x="258" y="422"/>
      <point x="309" y="435" type="curve"/>
      <point x="398" y="405" type="line"/>
      <point x="459" y="383"/>
      <point x="509" y="364"/>
    </contour>
  </outline>
</glyph>
<glyph name="copyright" format="1">
  <advance width="740"/>
  <unicode hex="00A9"/>
  <outline>
    <contour>
      <point x="110" y="352" type="curve" smooth="yes"/>
      <point x="110" y="209"/>
      <point x="227" y="92"/>
      <point x="370" y="92" type="curve" smooth="yes"/>
      <point x="513" y="92"/>
      <point x="630" y="209"/>
      <point x="630" y="352" type="curve" smooth="yes"/>
      <point x="630" y="495"/>
      <point x="513" y="612"/>
      <point x="370" y="612" type="curve" smooth="yes"/>
      <point x="227" y="612"/>
      <point x="110" y="495"/>
    </contour>
    <contour>
      <point x="147" y="352" type="curve" smooth="yes"/>
      <point x="147" y="475"/>
      <point x="247" y="575"/>
      <point x="370" y="575" type="curve" smooth="yes"/>
      <point x="493" y="575"/>
      <point x="593" y="475"/>
      <point x="593" y="352" type="curve" smooth="yes"/>
      <point x="593" y="229"/>
      <point x="493" y="129"/>
      <point x="370" y="129" type="curve" smooth="yes"/>
      <point x="247" y="129"/>
      <point x="147" y="229"/>
    </contour>
    <contour>
      <point x="500" y="408" type="line"/>
      <point x="478" y="458"/>
      <point x="429" y="490"/>
      <point x="375" y="490" type="curve" smooth="yes"/>
      <point x="299" y="490"/>
      <point x="237" y="428"/>
      <point x="237" y="352" type="curve" smooth="yes"/>
      <point x="237" y="276"/>
      <point x="299" y="213"/>
      <point x="375" y="213" type="curve" smooth="yes"/>
      <point x="430" y="213"/>
      <point x="480" y="247"/>
      <point x="501" y="298" type="curve"/>
      <point x="467" y="312" type="line"/>
      <point x="452" y="275"/>
      <point x="415" y="250"/>
      <point x="375" y="250" type="curve" smooth="yes"/>
      <point x="319" y="250"/>
      <point x="274" y="296"/>
      <point x="274" y="352" type="curve" smooth="yes"/>
      <point x="274" y="408"/>
      <point x="319" y="454"/>
      <point x="375" y="454" type="curve" smooth="yes"/>
      <point x="414" y="454"/>
      <point x="450" y="430"/>
      <point x="466" y="394" type="curve"/>
    </contour>
  </outline>
</glyph>
<glyph name="ordfeminine" format="1">
  <advance width="740"/>
  <unicode hex="00AA"/>
  <outline>
    <contour>
      <point x="373" y="353" type="curve" smooth="yes"/>
      <point x="431" y="353"/>
      <point x="483" y="381"/>
      <point x="515" y="423" type="curve"/>
      <point x="515" y="362" type="line"/>
      <point x="552" y="362" type="line"/>
      <point x="552" y="697" type="line"/>
      <point x="515" y="697" type="line"/>
      <point x="515" y="640" type="line"/>
      <point x="483" y="683"/>
      <point x="431" y="710"/>
      <point x="373" y="710" type="curve" smooth="yes"/>
      <point x="275" y="710"/>
      <point x="195" y="630"/>
      <point x="195" y="532" type="curve" smooth="yes"/>
      <point x="195" y="433"/>
      <point x="275" y="353"/>
    </contour>
    <contour>
      <point x="231" y="532" type="curve" smooth="yes"/>
      <point x="231" y="610"/>
      <point x="295" y="674"/>
      <point x="373" y="674" type="curve" smooth="yes"/>
      <point x="452" y="674"/>
      <point x="515" y="610"/>
      <point x="515" y="532" type="curve" smooth="yes"/>
      <point x="515" y="453"/>
      <point x="452" y="390"/>
      <point x="373" y="390" type="curve" smooth="yes"/>
      <point x="295" y="390"/>
      <point x="231" y="453"/>
    </contour>
  </outline>
</glyph>
<glyph name="guillemotleft" format="1">
  <advance width="740"/>
  <unicode hex="00AB"/>
  <outline>
    <contour>
      <point x="338" y="340" type="line"/>
      <point x="515" y="111" type="line"/>
      <point x="544" y="134" type="line"/>
      <point x="385" y="340" type="line"/>
      <point x="544" y="547" type="line"/>
      <point x="515" y="569" type="line"/>
    </contour>
    <contour>
      <point x="338" y="111" type="line"/>
      <point x="367" y="134" type="line"/>
      <point x="207" y="340" type="line"/>
      <point x="367" y="547" type="line"/>
      <point x="338" y="569" type="line"/>
      <point x="161" y="340" type="line"/>
    </contour>
  </outline>
</glyph>
<glyph name="logicalnot" format="1">
  <advance width="740"/>
  <unicode hex="00AC"/>
  <outline>
    <contour>
      <point x="198" y="394" type="line"/>
      <point x="198" y="357" type="line"/>
      <point x="505" y="357" type="line"/>
      <point x="505" y="267" type="line"/>
      <point x="542" y="267" type="line"/>
      <point x="542" y="394" type="line"/>
    </contour>
  </outline>
</glyph>
<glyph name="softhyphen" format="1">
  <advance width="740"/>
  <unicode hex="00AD"/>
  <outline>
    <contour>
      <point x="198" y="364" type="line"/>
      <point x="198" y="327" type="line"/>
      <point x="542" y="327" type="line"/>
      <point x="542" y="364" type="line"/>
    </contour>
  </outline>
</glyph>
<glyph name="registered" format="1">
  <advance width="740"/>
  <unicode hex="00AE"/>
  <outline>
    <contour>
      <point x="110" y="352" type="curve" smooth="yes"/>
      <point x="110" y="209"/>
      <point x="227" y="92"/>
      <point x="370" y="92" type="curve" smooth="yes"/>
      <point x="513" y="92"/>
      <point x="630" y="209"/>
      <point x="630" y="352" type="curve" smooth="yes"/>
      <point x="630" y="495"/>
      <point x="513" y="612"/>
      <point x="370" y="612" type="curve" smooth="yes"/>
      <point x="227" y="612"/>
      <point x="110" y="495"/>
    </contour>
    <contour>
      <point x="147" y="352" type="curve" smooth="yes"/>
      <point x="147" y="475"/>
      <point x="247" y="575"/>
      <point x="370" y="575" type="curve" smooth="yes"/>
      <point x="493" y="575"/>
      <point x="593" y="475"/>
      <point x="593" y="352" type="curve" smooth="yes"/>
      <point x="593" y="229"/>
      <point x="493" y="129"/>
      <point x="370" y="129" type="curve" smooth="yes"/>
      <point x="247" y="129"/>
      <point x="147" y="229"/>
    </contour>
    <contour>
      <point x="392" y="294" type="curve"/>
      <point x="447" y="217" type="line"/>
      <point x="493" y="217" type="line"/>
      <point x="431" y="303" type="line"/>
      <point x="463" y="319"/>
      <point x="486" y="352"/>
      <point x="486" y="391" type="curve" smooth="yes"/>
      <point x="486" y="444"/>
      <point x="443" y="487"/>
      <point x="390" y="487" type="curve" smooth="yes"/>
      <point x="269" y="487" type="line"/>
      <point x="269" y="217" type="line"/>
      <point x="306" y="217" type="line"/>
      <point x="306" y="294" type="line"/>
      <point x="390" y="294" type="line"/>
      <point x="390" y="294"/>
      <point x="391" y="294"/>
    </contour>
    <contour>
      <point x="390" y="331" type="curve" smooth="yes"/>
      <point x="306" y="331" type="line"/>
      <point x="306" y="451" type="line"/>
      <point x="390" y="451" type="line" smooth="yes"/>
      <point x="423" y="451"/>
      <point x="450" y="424"/>
      <point x="450" y="391" type="curve" smooth="yes"/>
      <point x="450" y="358"/>
      <point x="423" y="331"/>
    </contour>
  </outline>
</glyph>
<glyph name="macron" format="1">
  <advance width="740"/>
  <unicode hex="00AF"/>
  <outline>
    <contour>
      <point x="518" y="766" type="line"/>
      <point x="518" y="803" type="line"/>
      <point x="222" y="803" type="line"/>
      <point x="222" y="766" type="line"/>
    </contour>
  </outline>
</glyph>
<glyph name="degree" format="1">
  <advance width="740"/>
  <unicode hex="00B0"/>
  <outline>
    <contour>
      <point x="371" y="414" type="curve" smooth="yes"/>
      <point x="450" y="414"/>
      <point x="514" y="478"/>
      <point x="514" y="557" type="curve" smooth="yes"/>
      <point x="514" y="636"/>
      <point x="450" y="700"/>
      <point x="371" y="700" type="curve" smooth="yes"/>
      <point x="292" y="700"/>
      <point x="228" y="636"/>
      <point x="228" y="557" type="curve" smooth="yes"/>
      <point x="228" y="478"/>
      <point x="292" y="414"/>
    </contour>
    <contour>
      <point x="371" y="663" type="curve" smooth="yes"/>
      <point x="429" y="663"/>
      <point x="477" y="616"/>
      <point x="477" y="557" type="curve" smooth="yes"/>
      <point x="477" y="498"/>
      <point x="429" y="451"/>
      <point x="371" y="451" type="curve" smooth="yes"/>
      <point x="312" y="451"/>
      <point x="264" y="499"/>
      <point x="264" y="557" type="curve" smooth="yes"/>
      <point x="264" y="616"/>
      <point x="312" y="663"/>
    </contour>
  </outline>
</glyph>
<glyph name="plusminus" format="1">
  <advance width="740"/>
  <unicode hex="00B1"/>
  <outline>
    <contour>
      <point x="178" y="366" type="line"/>
      <point x="178" y="329" type="line"/>
      <point x="352" y="329" type="line"/>
      <point x="352" y="155" type="line"/>
      <point x="389" y="155" type="line"/>
      <point x="389" y="329" type="line"/>
      <point x="563" y="329" type="line"/>
      <point x="563" y="366" type="line"/>
      <point x="389" y="366" type="line"/>
      <point x="389" y="540" type="line"/>
      <point x="352" y="540" type="line"/>
      <point x="352" y="366" type="line"/>
    </contour>
    <contour>
      <point x="178" y="0" type="line"/>
      <point x="563" y="0" type="line"/>
      <point x="563" y="37" type="line"/>
      <point x="178" y="37" type="line"/>
    </contour>
  </outline>
</glyph>
<glyph name="twosuperior" format="1">
  <advance width="740"/>
  <unicode hex="00B2"/>
  <outline>
    <contour>
      <point x="291" y="366" type="line"/>
      <point x="335" y="415"/>
      <point x="402" y="489"/>
      <point x="415" y="502" type="curve" smooth="yes"/>
      <point x="421" y="508" type="line" smooth="yes"/>
      <point x="442" y="532"/>
      <point x="469" y="561"/>
      <point x="469" y="600" type="curve" smooth="yes"/>
      <point x="469" y="659"/>
      <point x="422" y="703"/>
      <point x="360" y="703" type="curve" smooth="yes"/>
      <point x="300" y="703"/>
      <point x="251" y="654"/>
      <point x="251" y="594" type="curve" smooth="yes"/>
      <point x="251" y="589" type="line"/>
      <point x="279" y="589" type="line"/>
      <point x="279" y="594" type="line" smooth="yes"/>
      <point x="279" y="639"/>
      <point x="315" y="675"/>
      <point x="360" y="675" type="curve" smooth="yes"/>
      <point x="406" y="675"/>
      <point x="441" y="643"/>
      <point x="441" y="600" type="curve" smooth="yes"/>
      <point x="441" y="572"/>
      <point x="419" y="548"/>
      <point x="400" y="527" type="curve" smooth="yes"/>
      <point x="394" y="521" type="line" smooth="yes"/>
      <point x="378" y="505"/>
      <point x="281" y="400"/>
      <point x="251" y="367" type="curve" smooth="yes"/>
      <point x="250" y="365" type="line"/>
      <point x="250" y="338" type="line"/>
      <point x="475" y="338" type="line"/>
      <point x="475" y="366" type="line"/>
    </contour>
  </outline>
</glyph>
<glyph name="threesuperior" format="1">
  <advance width="740"/>
  <unicode hex="00B3"/>
  <outline>
    <contour>
      <point x="475" y="671" type="line"/>
      <point x="475" y="696" type="line"/>
      <point x="264" y="696" type="line"/>
      <point x="264" y="668" type="line"/>
      <point x="437" y="668" type="line"/>
      <point x="332" y="524" type="line"/>
      <point x="355" y="507" type="line"/>
      <point x="380" y="542" type="line"/>
      <point x="426" y="536"/>
      <point x="461" y="498"/>
      <point x="461" y="452" type="curve" smooth="yes"/>
      <point x="461" y="401"/>
      <point x="420" y="360"/>
      <point x="369" y="360" type="curve" smooth="yes"/>
      <point x="319" y="360"/>
      <point x="278" y="401"/>
      <point x="278" y="452" type="curve"/>
      <point x="278" y="459" type="line"/>
      <point x="255" y="459" type="line"/>
      <point x="250" y="459" type="line"/>
      <point x="250" y="459"/>
      <point x="250" y="452"/>
      <point x="250" y="452" type="curve"/>
      <point x="250" y="386"/>
      <point x="304" y="332"/>
      <point x="370" y="332" type="curve" smooth="yes"/>
      <point x="435" y="332"/>
      <point x="489" y="386"/>
      <point x="489" y="452" type="curve" smooth="yes"/>
      <point x="489" y="506"/>
      <point x="452" y="554"/>
      <point x="399" y="567" type="curve"/>
    </contour>
  </outline>
</glyph>
<glyph name="acute" format="1">
  <advance width="740"/>
  <unicode hex="00B4"/>
  <outline>
    <contour>
      <point x="274" y="766" type="line"/>
      <point x="293" y="741" type="line"/>
      <point x="466" y="867" type="line"/>
      <point x="431" y="912" type="line"/>
    </contour>
  </outline>
</glyph>
<glyph name="micro" format="1">
  <advance width="740"/>
  <unicode hex="00B5"/>
  <outline>
    <contour>
      <point x="139" y="-171" type="line"/>
      <point x="176" y="-171" type="line"/>
      <point x="176" y="102" type="line"/>
      <point x="212" y="30"/>
      <point x="282" y="-15"/>
      <point x="370" y="-15" type="curve" smooth="yes"/>
      <point x="458" y="-15"/>
      <point x="528" y="29"/>
      <point x="564" y="102" type="curve"/>
      <point x="564" y="-1" type="line"/>
      <point x="601" y="-1" type="line"/>
      <point x="601" y="506" type="line"/>
      <point x="564" y="506" type="line"/>
      <point x="564" y="231" type="line"/>
      <point x="557" y="111"/>
      <point x="472" y="23"/>
      <point x="370" y="23" type="curve" smooth="yes"/>
      <point x="267" y="23"/>
      <point x="183" y="106"/>
      <point x="176" y="223" type="curve"/>
      <point x="176" y="506" type="line"/>
      <point x="139" y="506" type="line"/>
    </contour>
  </outline>
</glyph>
<glyph name="paragraph" format="1">
  <advance width="740"/>
  <unicode hex="00B6"/>
  <outline>
    <contour>
      <point x="337" y="248" type="curve"/>
      <point x="354" y="248" type="line"/>
      <point x="354" y="-147" type="line"/>
      <point x="391" y="-147" type="line"/>
      <point x="391" y="659" type="line"/>
      <point x="508" y="659" type="line"/>
      <point x="508" y="-147" type="line"/>
      <point x="545" y="-147" type="line"/>
      <point x="545" y="696" type="line"/>
      <point x="337" y="696" type="line" smooth="yes"/>
      <point x="213" y="696"/>
      <point x="113" y="596"/>
      <point x="113" y="472" type="curve" smooth="yes"/>
      <point x="113" y="348"/>
      <point x="213" y="248"/>
    </contour>
  </outline>
</glyph>
<glyph name="periodcentered" format="1">
  <advance width="740"/>
  <unicode hex="00B7"/>
  <outline>
    <contour>
      <point x="279" y="343" type="curve" smooth="yes"/>
      <point x="279" y="293"/>
      <point x="320" y="252"/>
      <point x="370" y="252" type="curve" smooth="yes"/>
      <point x="420" y="252"/>
      <point x="461" y="293"/>
      <point x="461" y="343" type="curve" smooth="yes"/>
      <point x="461" y="393"/>
      <point x="420" y="433"/>
      <point x="370" y="433" type="curve" smooth="yes"/>
      <point x="320" y="433"/>
      <point x="279" y="393"/>
    </contour>
  </outline>
</glyph>
<glyph name="cedilla" format="1">
  <advance width="740"/>
  <unicode hex="00B8"/>
  <outline>
    <contour>
      <point x="341" y="-156" type="line"/>
      <point x="374" y="-173" type="line"/>
      <point x="458" y="-4" type="line"/>
      <point x="424" y="10" type="line"/>
    </contour>
  </outline>
</glyph>
<glyph name="onesuperior" format="1">
  <advance width="740"/>
  <unicode hex="00B9"/>
  <outline>
    <contour>
      <point x="379" y="366" type="line"/>
      <point x="379" y="696" type="line"/>
      <point x="350" y="696" type="line"/>
      <point x="350" y="691" type="line" smooth="yes"/>
      <point x="350" y="638"/>
      <point x="307" y="595"/>
      <point x="254" y="595" type="curve" smooth="yes"/>
      <point x="249" y="595" type="line"/>
      <point x="249" y="567" type="line"/>
      <point x="254" y="567" type="line" smooth="yes"/>
      <point x="292" y="567"/>
      <point x="327" y="584"/>
      <point x="350" y="613" type="curve"/>
      <point x="350" y="366" type="line"/>
      <point x="246" y="366" type="line"/>
      <point x="246" y="338" type="line"/>
      <point x="483" y="338" type="line"/>
      <point x="483" y="366" type="line"/>
    </contour>
  </outline>
</glyph>
<glyph name="ordmasculine" format="1">
  <advance width="740"/>
  <unicode hex="00BA"/>
  <outline>
    <contour>
      <point x="371" y="354" type="curve" smooth="yes"/>
      <point x="470" y="354"/>
      <point x="549" y="433"/>
      <point x="549" y="532" type="curve" smooth="yes"/>
      <point x="549" y="630"/>
      <point x="470" y="710"/>
      <point x="371" y="710" type="curve" smooth="yes"/>
      <point x="273" y="710"/>
      <point x="193" y="630"/>
      <point x="193" y="532" type="curve" smooth="yes"/>
      <point x="193" y="433"/>
      <point x="273" y="354"/>
    </contour>
    <contour>
      <point x="371" y="672" type="curve" smooth="yes"/>
      <point x="448" y="672"/>
      <point x="511" y="610"/>
      <point x="511" y="532" type="curve" smooth="yes"/>
      <point x="511" y="454"/>
      <point x="448" y="392"/>
      <point x="371" y="392" type="curve" smooth="yes"/>
      <point x="293" y="392"/>
      <point x="230" y="455"/>
      <point x="230" y="532" type="curve" smooth="yes"/>
      <point x="230" y="610"/>
      <point x="293" y="672"/>
    </contour>
  </outline>
</glyph>
<glyph name="guillemotright" format="1">
  <advance width="740"/>
  <unicode hex="00BB"/>
  <outline>
    <contour>
      <point x="356" y="340" type="line"/>
      <point x="196" y="547" type="line"/>
      <point x="225" y="569" type="line"/>
      <point x="402" y="340" type="line"/>
      <point x="225" y="111" type="line"/>
      <point x="196" y="134" type="line"/>
    </contour>
    <contour>
      <point x="373" y="134" type="line"/>
      <point x="533" y="340" type="line"/>
      <point x="373" y="547" type="line"/>
      <point x="402" y="569" type="line"/>
      <point x="579" y="340" type="line"/>
      <point x="402" y="111" type="line"/>
    </contour>
  </outline>
</glyph>
<glyph name="onequarter" format="1">
  <advance width="740"/>
  <unicode hex="00BC"/>
  <outline>
    <contour>
      <point x="592" y="585" type="line"/>
      <point x="128" y="121" type="line"/>
      <point x="151" y="98" type="line"/>
      <point x="615" y="562" type="line"/>
    </contour>
    <contour>
      <point x="179" y="366" type="line"/>
      <point x="179" y="696" type="line"/>
      <point x="150" y="696" type="line"/>
      <point x="150" y="691" type="line" smooth="yes"/>
      <point x="150" y="638"/>
      <point x="107" y="595"/>
      <point x="54" y="595" type="curve" smooth="yes"/>
      <point x="49" y="595" type="line"/>
      <point x="49" y="567" type="line"/>
      <point x="54" y="567" type="line" smooth="yes"/>
      <point x="92" y="567"/>
      <point x="127" y="584"/>
      <point x="150" y="613" type="curve"/>
      <point x="150" y="366" type="line"/>
      <point x="50" y="366" type="line"/>
      <point x="50" y="338" type="line"/>
      <point x="279" y="338" type="line"/>
      <point x="279" y="366" type="line"/>
    </contour>
    <contour>
      <point x="587" y="358" type="line"/>
      <point x="561" y="358" type="line"/>
      <point x="392" y="114" type="line"/>
      <point x="391" y="113" type="line"/>
      <point x="391" y="90" type="line"/>
      <point x="559" y="90" type="line"/>
      <point x="559" y="0" type="line"/>
      <point x="587" y="0" type="line"/>
      <point x="587" y="90" type="line"/>
      <point x="648" y="90" type="line"/>
      <point x="648" y="118" type="line"/>
      <point x="587" y="118" type="line"/>
    </contour>
    <contour>
      <point x="559" y="306" type="line"/>
      <point x="559" y="118" type="line"/>
      <point x="428" y="118" type="line"/>
    </contour>
  </outline>
</glyph>
<glyph name="onehalf" format="1">
  <advance width="740"/>
  <unicode hex="00BD"/>
  <outline>
    <contour>
      <point x="592" y="585" type="line"/>
      <point x="128" y="121" type="line"/>
      <point x="151" y="98" type="line"/>
      <point x="615" y="562" type="line"/>
    </contour>
    <contour>
      <point x="179" y="366" type="line"/>
      <point x="179" y="696" type="line"/>
      <point x="150" y="696" type="line"/>
      <point x="150" y="691" type="line" smooth="yes"/>
      <point x="150" y="638"/>
      <point x="107" y="595"/>
      <point x="54" y="595" type="curve" smooth="yes"/>
      <point x="49" y="595" type="line"/>
      <point x="49" y="567" type="line"/>
      <point x="54" y="567" type="line" smooth="yes"/>
      <point x="92" y="567"/>
      <point x="127" y="584"/>
      <point x="150" y="613" type="curve"/>
      <point x="150" y="366" type="line"/>
      <point x="50" y="366" type="line"/>
      <point x="50" y="338" type="line"/>
      <point x="279" y="338" type="line"/>
      <point x="279" y="366" type="line"/>
    </contour>
    <contour>
      <point x="467" y="28" type="line"/>
      <point x="511" y="77"/>
      <point x="579" y="151"/>
      <point x="592" y="164" type="curve" smooth="yes"/>
      <point x="597" y="170" type="line" smooth="yes"/>
      <point x="619" y="194"/>
      <point x="646" y="223"/>
      <point x="646" y="262" type="curve" smooth="yes"/>
      <point x="646" y="321"/>
      <point x="599" y="365"/>
      <point x="536" y="365" type="curve" smooth="yes"/>
      <point x="476" y="365"/>
      <point x="427" y="316"/>
      <point x="427" y="256" type="curve" smooth="yes"/>
      <point x="427" y="251" type="line"/>
      <point x="455" y="251" type="line"/>
      <point x="455" y="256" type="line" smooth="yes"/>
      <point x="455" y="301"/>
      <point x="492" y="337"/>
      <point x="536" y="337" type="curve" smooth="yes"/>
      <point x="582" y="337"/>
      <point x="617" y="305"/>
      <point x="617" y="262" type="curve" smooth="yes"/>
      <point x="617" y="234"/>
      <point x="596" y="210"/>
      <point x="577" y="190" type="curve" smooth="yes"/>
      <point x="571" y="183" type="line" smooth="yes"/>
      <point x="555" y="167"/>
      <point x="457" y="62"/>
      <point x="428" y="29" type="curve" smooth="yes"/>
      <point x="426" y="27" type="line"/>
      <point x="426" y="0" type="line"/>
      <point x="652" y="0" type="line"/>
      <point x="652" y="28" type="line"/>
    </contour>
  </outline>
</glyph>
<glyph name="threequarters" format="1">
  <advance width="740"/>
  <unicode hex="00BE"/>
  <outline>
    <contour>
      <point x="592" y="585" type="line"/>
      <point x="128" y="121" type="line"/>
      <point x="151" y="98" type="line"/>
      <point x="615" y="562" type="line"/>
    </contour>
    <contour>
      <point x="275" y="671" type="line"/>
      <point x="275" y="696" type="line"/>
      <point x="64" y="696" type="line"/>
      <point x="64" y="668" type="line"/>
      <point x="237" y="668" type="line"/>
      <point x="132" y="524" type="line"/>
      <point x="155" y="507" type="line"/>
      <point x="180" y="542" type="line"/>
      <point x="226" y="536"/>
      <point x="261" y="498"/>
      <point x="261" y="452" type="curve" smooth="yes"/>
      <point x="261" y="401"/>
      <point x="220" y="360"/>
      <point x="169" y="360" type="curve" smooth="yes"/>
      <point x="119" y="360"/>
      <point x="78" y="401"/>
      <point x="78" y="452" type="curve"/>
      <point x="78" y="459" type="line"/>
      <point x="55" y="459" type="line"/>
      <point x="50" y="459" type="line"/>
      <point x="50" y="459"/>
      <point x="50" y="452"/>
      <point x="50" y="452" type="curve"/>
      <point x="50" y="386"/>
      <point x="104" y="332"/>
      <point x="170" y="332" type="curve" smooth="yes"/>
      <point x="235" y="332"/>
      <point x="289" y="386"/>
      <point x="289" y="452" type="curve" smooth="yes"/>
      <point x="289" y="506"/>
      <point x="252" y="554"/>
      <point x="199" y="567" type="curve"/>
    </contour>
    <contour>
      <point x="587" y="358" type="line"/>
      <point x="561" y="358" type="line"/>
      <point x="392" y="114" type="line"/>
      <point x="391" y="113" type="line"/>
      <point x="391" y="90" type="line"/>
      <point x="559" y="90" type="line"/>
      <point x="559" y="0" type="line"/>
      <point x="587" y="0" type="line"/>
      <point x="587" y="90" type="line"/>
      <point x="648" y="90" type="line"/>
      <point x="648" y="118" type="line"/>
      <point x="587" y="118" type="line"/>
    </contour>
    <contour>
      <point x="559" y="306" type="line"/>
      <point x="559" y="118" type="line"/>
      <point x="428" y="118" type="line"/>
    </contour>
  </outline>
</glyph>
<glyph name="questiondown" format="1">
  <advance width="740"/>
  <unicode hex="00BF"/>
  <outline>
    <contour>
      <point x="360" y="708" type="curve" smooth="yes"/>
      <point x="310" y="708"/>
      <point x="269" y="668"/>
      <point x="269" y="618" type="curve" smooth="yes"/>
      <point x="269" y="567"/>
      <point x="310" y="527"/>
      <point x="360" y="527" type="curve" smooth="yes"/>
      <point x="410" y="527"/>
      <point x="451" y="567"/>
      <point x="451" y="618" type="curve" smooth="yes"/>
      <point x="451" y="668"/>
      <point x="410" y="708"/>
    </contour>
    <contour>
      <point x="360" y="671" type="curve" smooth="yes"/>
      <point x="390" y="671"/>
      <point x="414" y="647"/>
      <point x="414" y="618" type="curve" smooth="yes"/>
      <point x="414" y="588"/>
      <point x="390" y="564"/>
      <point x="360" y="564" type="curve" smooth="yes"/>
      <point x="330" y="564"/>
      <point x="306" y="588"/>
      <point x="306" y="618" type="curve" smooth="yes"/>
      <point x="306" y="647"/>
      <point x="330" y="671"/>
    </contour>
    <contour>
      <point x="450" y="256" type="line"/>
      <point x="450" y="206"/>
      <point x="409" y="166"/>
      <point x="360" y="166" type="curve" smooth="yes"/>
      <point x="311" y="166"/>
      <point x="270" y="206"/>
      <point x="270" y="256" type="curve" smooth="yes"/>
      <point x="270" y="305"/>
      <point x="311" y="345"/>
      <point x="360" y="345" type="curve"/>
      <point x="360" y="529" type="line"/>
      <point x="210" y="529"/>
      <point x="89" y="407"/>
      <point x="89" y="256" type="curve"/>
      <point x="89" y="106"/>
      <point x="210" y="-15"/>
      <point x="360" y="-15" type="curve" smooth="yes"/>
      <point x="510" y="-15"/>
      <point x="631" y="106"/>
      <point x="631" y="256" type="curve"/>
    </contour>
  </outline>
</glyph>
<glyph name="Aacute" format="1">
  <advance width="740"/>
  <unicode hex="00C1"/>
  <outline>
    <component base="A"/>
    <component base="acutecomb" xOffset="6"/>
    <contour>
      <point x="370" y="0" type="move" name="bottom"/>
    </contour>
    <contour>
      <point x="698" y="0" type="move" name="ogonek"/>
    </contour>
    <contour>
      <point x="370" y="898" type="move" name="top"/>
    </contour>
  </outline>
</glyph>
<glyph name="Atilde" format="1">
  <advance width="740"/>
  <unicode hex="00C3"/>
  <outline>
    <component base="A"/>
    <component base="tildecomb" xOffset="-2"/>
    <contour>
      <point x="370" y="0" type="move" name="bottom"/>
    </contour>
    <contour>
      <point x="698" y="0" type="move" name="ogonek"/>
    </contour>
    <contour>
      <point x="370" y="930" type="move" name="top"/>
    </contour>
  </outline>
</glyph>
<glyph name="AE" format="1">
  <advance width="740"/>
  <unicode hex="00C6"/>
  <outline>
    <contour>
      <point x="56" y="0" type="line"/>
      <point x="152" y="230" type="line"/>
      <point x="373" y="230" type="line"/>
      <point x="373" y="0" type="line"/>
      <point x="707" y="0" type="line"/>
      <point x="707" y="37" type="line"/>
      <point x="410" y="37" type="line"/>
      <point x="410" y="340" type="line"/>
      <point x="650" y="340" type="line"/>
      <point x="650" y="377" type="line"/>
      <point x="410" y="377" type="line"/>
      <point x="410" y="659" type="line"/>
      <point x="707" y="659" type="line"/>
      <point x="707" y="696" type="line"/>
      <point x="314" y="696" type="line"/>
      <point x="16" y="0" type="line"/>
    </contour>
    <contour>
      <point x="168" y="266" type="line"/>
      <point x="337" y="659" type="line"/>
      <point x="373" y="659" type="line"/>
      <point x="373" y="266" type="line"/>
    </contour>
    <contour>
      <point x="389" y="0" type="move" name="bottom"/>
    </contour>
    <contour>
      <point x="496" y="696" type="move" name="top"/>
    </contour>
  </outline>
</glyph>
<glyph name="Egrave" format="1">
  <advance width="740"/>
  <unicode hex="00C8"/>
  <outline>
    <component base="E"/>
    <component base="gravecomb" xOffset="-6"/>
    <contour>
      <point x="370" y="0" type="move" name="bottom"/>
    </contour>
    <contour>
      <point x="627" y="0" type="move" name="ogonek"/>
    </contour>
    <contour>
      <point x="370" y="930" type="move" name="top"/>
    </contour>
  </outline>
</glyph>
<glyph name="Edieresis" format="1">
  <advance width="740"/>
  <unicode hex="00CB"/>
  <outline>
    <component base="E"/>
    <component base="dieresis" xOffset="-0.500"/>
    <contour>
      <point x="370" y="0" type="move" name="bottom"/>
    </contour>
    <contour>
      <point x="627" y="0" type="move" name="ogonek"/>
    </contour>
    <contour>
      <point x="370" y="696" type="move" name="top"/>
    </contour>
  </outline>
</glyph>
<glyph name="Igrave" format="1">
  <advance width="740"/>
  <unicode hex="00CC"/>
  <outline>
    <component base="I"/>
    <component base="gravecomb" xOffset="-5"/>
    <contour>
      <point x="371" y="0" type="move" name="bottom"/>
    </contour>
    <contour>
      <point x="595" y="0" type="move" name="ogonek"/>
    </contour>
    <contour>
      <point x="371" y="930" type="move" name="top"/>
    </contour>
  </outline>
</glyph>
<glyph name="Icircumflex" format="1">
  <advance width="740"/>
  <unicode hex="00CE"/>
  <outline>
    <component base="I"/>
    <component base="circumflex"/>
    <contour>
      <point x="371" y="0" type="move" name="bottom"/>
    </contour>
    <contour>
      <point x="595" y="0" type="move" name="ogonek"/>
    </contour>
    <contour>
      <point x="371" y="696" type="move" name="top"/>
    </contour>
  </outline>
</glyph>
<glyph name="Eth" format="1">
  <advance width="740"/>
  <unicode hex="00D0"/>
  <outline>
    <contour>
      <point x="20" y="366" type="line"/>
      <point x="20" y="330" type="line"/>
      <point x="363" y="330" type="line"/>
      <point x="363" y="366" type="line"/>
    </contour>
    <component base="D"/>
  </outline>
</glyph>
<glyph name="Ntilde" format="1">
  <advance width="740"/>
  <unicode hex="00D1"/>
  <outline>
    <component base="N"/>
    <component base="tildecomb" xOffset="10"/>
    <contour>
      <point x="382" y="0" type="move" name="bottom"/>
    </contour>
    <contour>
      <point x="382" y="930" type="move" name="top"/>
    </contour>
  </outline>
</glyph>
<glyph name="multiply" format="1">
  <advance width="740"/>
  <unicode hex="00D7"/>
  <outline>
    <contour>
      <point x="226" y="503" type="line"/>
      <point x="370" y="359" type="line"/>
      <point x="514" y="503" type="line"/>
      <point x="540" y="477" type="line"/>
      <point x="396" y="333" type="line"/>
      <point x="540" y="189" type="line"/>
      <point x="514" y="163" type="line"/>
      <point x="370" y="307" type="line"/>
      <point x="226" y="163" type="line"/>
      <point x="200" y="189" type="line"/>
      <point x="344" y="333" type="line"/>
      <point x="200" y="477" type="line"/>
    </contour>
  </outline>
</glyph>
<glyph name="Ugrave" format="1">
  <advance width="740"/>
  <unicode hex="00D9"/>
  <outline>
    <component base="U"/>
    <component base="gravecomb" xOffset="-6"/>
    <contour>
      <point x="370" y="0" type="move" name="bottom"/>
    </contour>
    <contour>
      <point x="651" y="696" type="move" name="horn"/>
    </contour>
    <contour>
      <point x="560" y="0" type="move" name="ogonek"/>
    </contour>
    <contour>
      <point x="370" y="930" type="move" name="top"/>
    </contour>
  </outline>
</glyph>
<glyph name="Ucircumflex" format="1">
  <advance width="740"/>
  <unicode hex="00DB"/>
  <outline>
    <component base="U"/>
    <component base="circumflexcomb"/>
    <contour>
      <point x="370" y="0" type="move" name="bottom"/>
    </contour>
    <contour>
      <point x="651" y="696" type="move" name="horn"/>
    </contour>
    <contour>
      <point x="370" y="696" type="move" name="top"/>
    </contour>
  </outline>
</glyph>
<glyph name="Udieresis" format="1">
  <advance width="740"/>
  <unicode hex="00DC"/>
  <outline>
    <component base="U"/>
    <component base="dieresis" xOffset="-0.500"/>
    <contour>
      <point x="370" y="0" type="move" name="bottom"/>
    </contour>
    <contour>
      <point x="651" y="696" type="move" name="horn"/>
    </contour>
    <contour>
      <point x="560" y="0" type="move" name="ogonek"/>
    </contour>
    <contour>
      <point x="370" y="696" type="move" name="top"/>
    </contour>
  </outline>
</glyph>
<glyph name="Thorn" format="1">
  <advance width="740"/>
  <unicode hex="00DE"/>
  <outline>
    <contour>
      <point x="419" y="596" type="curve" smooth="yes"/>
      <point x="176" y="596" type="line"/>
      <point x="176" y="707" type="line"/>
      <point x="139" y="707" type="line"/>
      <point x="139" y="0" type="line"/>
      <point x="176" y="0" type="line"/>
      <point x="176" y="111" type="line"/>
      <point x="419" y="111" type="line" smooth="yes"/>
      <point x="468" y="111"/>
      <point x="511" y="120"/>
      <point x="546" y="138" type="curve" smooth="yes"/>
      <point x="626" y="179"/>
      <point x="678" y="261"/>
      <point x="678" y="354" type="curve" smooth="yes"/>
      <point x="678" y="502"/>
      <point x="559" y="596"/>
    </contour>
    <contour>
      <point x="419" y="559" type="line" smooth="yes"/>
      <point x="461" y="559"/>
      <point x="494" y="553"/>
      <point x="523" y="539" type="curve" smooth="yes"/>
      <point x="594" y="506"/>
      <point x="641" y="434"/>
      <point x="641" y="354" type="curve" smooth="yes"/>
      <point x="641" y="273"/>
      <point x="595" y="201"/>
      <point x="524" y="168" type="curve" smooth="yes"/>
      <point x="495" y="154"/>
      <point x="460" y="148"/>
      <point x="419" y="148" type="curve" smooth="yes"/>
      <point x="176" y="148" type="line"/>
      <point x="176" y="559" type="line"/>
    </contour>
  </outline>
</glyph>
<glyph name="germandbls" format="1">
  <advance width="740"/>
  <unicode hex="00DF"/>
  <outline>
    <contour>
      <point x="398" y="0" type="line"/>
      <point x="556" y="0"/>
      <point x="649" y="102"/>
      <point x="648" y="228" type="curve" smooth="yes"/>
      <point x="648" y="351"/>
      <point x="545" y="449"/>
      <point x="418" y="449" type="curve"/>
      <point x="387" y="449" type="line"/>
      <point x="387" y="412" type="line"/>
      <point x="418" y="412" type="line"/>
      <point x="525" y="412"/>
      <point x="612" y="331"/>
      <point x="612" y="228" type="curve" smooth="yes"/>
      <point x="611" y="122"/>
      <point x="536" y="37"/>
      <point x="398" y="37" type="curve"/>
      <point x="317" y="37" type="line"/>
      <point x="317" y="0" type="line"/>
    </contour>
    <contour>
      <point x="427" y="439" type="line"/>
      <point x="609" y="660" type="line"/>
      <point x="609" y="696" type="line"/>
      <point x="129" y="696" type="line"/>
      <point x="128" y="0" type="line"/>
      <point x="165" y="0" type="line"/>
      <point x="166" y="659" type="line"/>
      <point x="561" y="660" type="line"/>
      <point x="387" y="449" type="line"/>
    </contour>
  </outline>
</glyph>
<glyph name="agrave" format="1">
  <advance width="740"/>
  <unicode hex="00E0"/>
  <outline>
    <component base="a"/>
    <component base="gravecomb" xOffset="-6"/>
    <contour>
      <point x="370" y="0" type="move" name="bottom"/>
    </contour>
    <contour>
      <point x="676" y="0" type="move" name="ogonek"/>
    </contour>
    <contour>
      <point x="370" y="696" type="move" name="top"/>
    </contour>
  </outline>
</glyph>
<glyph name="aacute" format="1">
  <advance width="740"/>
  <unicode hex="00E1"/>
  <outline>
    <component base="a"/>
    <component base="acutecomb" xOffset="6"/>
    <contour>
      <point x="370" y="0" type="move" name="bottom"/>
    </contour>
    <contour>
      <point x="676" y="0" type="move" name="ogonek"/>
    </contour>
    <contour>
      <point x="370" y="898" type="move" name="top"/>
    </contour>
  </outline>
</glyph>
<glyph name="ae" format="1">
  <advance width="740"/>
  <unicode hex="00E6"/>
  <outline>
    <contour>
      <point x="641" y="340" type="line"/>
      <point x="641" y="377" type="line"/>
      <point x="401" y="377" type="line"/>
      <point x="401" y="659" type="line"/>
      <point x="698" y="659" type="line"/>
      <point x="698" y="696" type="line"/>
      <point x="305" y="696" type="line"/>
      <point x="7" y="0" type="line"/>
      <point x="47" y="0" type="line"/>
      <point x="143" y="230" type="line"/>
      <point x="364" y="230" type="line"/>
      <point x="364" y="0" type="line"/>
      <point x="698" y="0" type="line"/>
      <point x="698" y="37" type="line"/>
      <point x="401" y="37" type="line"/>
      <point x="401" y="340" type="line"/>
    </contour>
    <contour>
      <point x="328" y="659" type="line"/>
      <point x="364" y="659" type="line"/>
      <point x="364" y="266" type="line"/>
      <point x="159" y="266" type="line"/>
    </contour>
  </outline>
</glyph>
<glyph name="ecircumflex" format="1">
  <advance width="740"/>
  <unicode hex="00EA"/>
  <outline>
    <component base="e"/>
    <component base="circumflex"/>
    <contour>
      <point x="374" y="0" type="move" name="bottom"/>
    </contour>
    <contour>
      <point x="620" y="0" type="move" name="ogonek"/>
    </contour>
    <contour>
      <point x="374" y="696" type="move" name="top"/>
    </contour>
  </outline>
</glyph>
<glyph name="idieresis" format="1">
  <advance width="740"/>
  <unicode hex="00EF"/>
  <outline>
    <component base="dotlessi"/>
    <component base="dieresiscomb"/>
    <contour>
      <point x="370" y="0" type="move" name="bottom"/>
    </contour>
    <contour>
      <point x="595" y="0" type="move" name="ogonek"/>
    </contour>
    <contour>
      <point x="370" y="696" type="move" name="top"/>
    </contour>
  </outline>
</glyph>
<glyph name="ocircumflex" format="1">
  <advance width="740"/>
  <unicode hex="00F4"/>
  <outline>
    <component base="o"/>
    <component base="circumflex"/>
    <contour>
      <point x="370" y="0" type="move" name="bottom"/>
    </contour>
    <contour>
      <point x="370" y="348" type="move" name="center"/>
    </contour>
    <contour>
      <point x="583" y="696" type="move" name="horn"/>
    </contour>
    <contour>
      <point x="560" y="0" type="move" name="ogonek"/>
    </contour>
    <contour>
      <point x="370" y="696" type="move" name="top"/>
    </contour>
  </outline>
</glyph>
<glyph name="divide" format="1">
  <advance width="740"/>
  <unicode hex="00F7"/>
  <outline>
    <contour>
      <point x="456" y="503" type="curve" smooth="yes"/>
      <point x="456" y="551"/>
      <point x="418" y="589"/>
      <point x="370" y="589" type="curve" smooth="yes"/>
      <point x="322" y="589"/>
      <point x="284" y="551"/>
      <point x="284" y="503" type="curve" smooth="yes"/>
      <point x="284" y="455"/>
      <point x="322" y="417"/>
      <point x="370" y="417" type="curve" smooth="yes"/>
      <point x="418" y="417"/>
      <point x="456" y="455"/>
    </contour>
    <contour>
      <point x="456" y="194" type="curve" smooth="yes"/>
      <point x="456" y="242"/>
      <point x="418" y="280"/>
      <point x="370" y="280" type="curve" smooth="yes"/>
      <point x="322" y="280"/>
      <point x="284" y="242"/>
      <point x="284" y="194" type="curve" smooth="yes"/>
      <point x="284" y="147"/>
      <point x="322" y="108"/>
      <point x="370" y="108" type="curve" smooth="yes"/>
      <point x="418" y="108"/>
      <point x="456" y="147"/>
    </contour>
    <contour>
      <point x="570" y="367" type="line"/>
      <point x="171" y="367" type="line"/>
      <point x="171" y="330" type="line"/>
      <point x="570" y="330" type="line"/>
    </contour>
    <contour>
      <point x="370" y="145" type="curve" smooth="yes"/>
      <point x="343" y="145"/>
      <point x="321" y="167"/>
      <point x="321" y="194" type="curve" smooth="yes"/>
      <point x="321" y="221"/>
      <point x="343" y="244"/>
      <point x="370" y="244" type="curve" smooth="yes"/>
      <point x="397" y="244"/>
      <point x="419" y="221"/>
      <point x="419" y="194" type="curve" smooth="yes"/>
      <point x="419" y="167"/>
      <point x="397" y="145"/>
    </contour>
    <contour>
      <point x="321" y="503" type="curve" smooth="yes"/>
      <point x="321" y="530"/>
      <point x="343" y="552"/>
      <point x="370" y="552" type="curve" smooth="yes"/>
      <point x="397" y="552"/>
      <point x="419" y="530"/>
      <point x="419" y="503" type="curve" smooth="yes"/>
      <point x="419" y="476"/>
      <point x="397" y="454"/>
      <point x="370" y="454" type="curve" smooth="yes"/>
      <point x="343" y="454"/>
      <point x="321" y="476"/>
    </contour>
  </outline>
</glyph>
<glyph name="ucircumflex" format="1">
  <advance width="740"/>
  <unicode hex="00FB"/>
  <outline>
    <component base="u"/>
    <component base="circumflex"/>
    <contour>
      <point x="370" y="0" type="move" name="bottom"/>
    </contour>
    <contour>
      <point x="651" y="696" type="move" name="horn"/>
    </contour>
    <contour>
      <point x="560" y="0" type="move" name="ogonek"/>
    </contour>
    <contour>
      <point x="370" y="696" type="move" name="top"/>
    </contour>
  </outline>
</glyph>
<glyph name="yacute" format="1">
  <advance width="740"/>
  <unicode hex="00FD"/>
  <outline>
    <component base="y"/>
    <component base="acutecomb" xOffset="7"/>
    <contour>
      <point x="371" y="0" type="move" name="bottom"/>
    </contour>
    <contour>
      <point x="371" y="898" type="move" name="top"/>
    </contour>
  </outline>
</glyph>
<glyph name="Aogonek" format="1">
  <advance width="740"/>
  <unicode hex="0104"/>
  <outline>
    <component base="A"/>
    <component base="ogonekcomb" xOffset="327"/>
    <contour>
      <point x="370" y="0" type="move" name="bottom"/>
    </contour>
    <contour>
      <point x="698" y="0" type="move" name="ogonek"/>
    </contour>
    <contour>
      <point x="370" y="696" type="move" name="top"/>
    </contour>
  </outline>
</glyph>
<glyph name="cdotaccent" format="1">
  <advance width="740"/>
  <unicode hex="010B"/>
  <outline>
    <component base="c"/>
    <component base="dotaccentcomb" xOffset="3"/>
    <contour>
      <point x="366" y="0" type="move" name="bottom"/>
    </contour>
    <contour>
      <point x="366" y="696" type="move" name="top"/>
    </contour>
  </outline>
</glyph>
<glyph name="dcaron" format="1">
  <advance width="740"/>
  <unicode hex="010F"/>
  <outline>
    <contour>
      <point x="121" y="0" type="line"/>
      <point x="378" y="0" type="line" smooth="yes"/>
      <point x="533" y="0"/>
      <point x="659" y="126"/>
      <point x="659" y="281" type="curve" smooth="yes"/>
      <point x="659" y="415" type="line" smooth="yes"/>
      <point x="659" y="570"/>
      <point x="533" y="696"/>
      <point x="378" y="696" type="curve" smooth="yes"/>
      <point x="121" y="696" type="line"/>
    </contour>
    <contour>
      <point x="622" y="281" type="line" smooth="yes"/>
      <point x="622" y="146"/>
      <point x="512" y="37"/>
      <point x="378" y="37" type="curve" smooth="yes"/>
      <point x="158" y="37" type="line"/>
      <point x="158" y="659" type="line"/>
      <point x="378" y="659" type="line" smooth="yes"/>
      <point x="512" y="659"/>
      <point x="622" y="550"/>
      <point x="622" y="415" type="curve" smooth="yes"/>
    </contour>
    <contour>
      <point x="492" y="922" type="line"/>
      <point x="370" y="800" type="line"/>
      <point x="248" y="922" type="line"/>
      <point x="222" y="896" type="line"/>
      <point x="370" y="748" type="line"/>
      <point x="518" y="896" type="line"/>
    </contour>
  </outline>
</glyph>
<glyph name="dcroat" format="1">
  <advance width="740"/>
  <unicode hex="0111"/>
  <outline>
    <contour>
      <point x="20" y="366" type="line"/>
      <point x="20" y="330" type="line"/>
      <point x="363" y="330" type="line"/>
      <point x="363" y="366" type="line"/>
    </contour>
    <contour>
      <point x="363" y="696" type="line"/>
      <point x="106" y="696" type="line"/>
      <point x="106" y="0" type="line"/>
      <point x="363" y="0" type="line" smooth="yes"/>
      <point x="517" y="0"/>
      <point x="644" y="126"/>
      <point x="644" y="281" type="curve" smooth="yes"/>
      <point x="644" y="415" type="line"/>
      <point x="644" y="570"/>
      <point x="517" y="696"/>
      <point x="363" y="696" type="curve"/>
    </contour>
    <contour>
      <point x="607" y="281" type="line" smooth="yes"/>
      <point x="607" y="146"/>
      <point x="497" y="37"/>
      <point x="362" y="37" type="curve" smooth="yes"/>
      <point x="143" y="37" type="line"/>
      <point x="143" y="659" type="line"/>
      <point x="362" y="659" type="line" smooth="yes"/>
      <point x="497" y="659"/>
      <point x="607" y="550"/>
      <point x="607" y="415" type="curve" smooth="yes"/>
    </contour>
  </outline>
</glyph>
<glyph name="Edotaccent" format="1">
  <advance width="740"/>
  <unicode hex="0116"/>
  <outline>
    <component base="E"/>
    <component base="dotaccentcomb"/>
    <contour>
      <point x="369" y="0" type="move" name="bottom"/>
    </contour>
    <contour>
      <point x="627" y="0" type="move" name="ogonek"/>
    </contour>
    <contour>
      <point x="370" y="696" type="move" name="top"/>
    </contour>
  </outline>
</glyph>
<glyph name="gbreve" format="1">
  <advance width="740"/>
  <unicode hex="011F"/>
  <outline>
    <contour>
      <point x="365" y="711" type="curve" smooth="yes"/>
      <point x="205" y="711"/>
      <point x="78" y="584"/>
      <point x="78" y="422" type="curve" smooth="yes"/>
      <point x="78" y="282" type="line" smooth="yes"/>
      <point x="78" y="114"/>
      <point x="207" y="-15"/>
      <point x="365" y="-15" type="curve" smooth="yes"/>
      <point x="472" y="-15"/>
      <point x="579" y="50"/>
      <point x="615" y="143" type="curve"/>
      <point x="615" y="0" type="line"/>
      <point x="652" y="0" type="line"/>
      <point x="652" y="344" type="line"/>
      <point x="365" y="344" type="line"/>
      <point x="365" y="307" type="line"/>
      <point x="615" y="307" type="line"/>
      <point x="615" y="272" type="line" smooth="yes"/>
      <point x="615" y="134"/>
      <point x="506" y="22"/>
      <point x="365" y="22" type="curve" smooth="yes"/>
      <point x="227" y="22"/>
      <point x="115" y="134"/>
      <point x="115" y="282" type="curve" smooth="yes"/>
      <point x="115" y="422" type="line" smooth="yes"/>
      <point x="115" y="564"/>
      <point x="225" y="674"/>
      <point x="365" y="674" type="curve" smooth="yes"/>
      <point x="502" y="674"/>
      <point x="606" y="587"/>
      <point x="609" y="466" type="curve"/>
      <point x="645" y="466" type="line"/>
      <point x="645" y="606"/>
      <point x="521" y="711"/>
    </contour>
    <contour>
      <point x="524" y="876" type="curve"/>
      <point x="491" y="892" type="line"/>
      <point x="469" y="844"/>
      <point x="422" y="814"/>
      <point x="370" y="814" type="curve" smooth="yes"/>
      <point x="318" y="814"/>
      <point x="271" y="844"/>
      <point x="249" y="892" type="curve"/>
      <point x="216" y="876" type="line"/>
      <point x="243" y="816"/>
      <point x="304" y="777"/>
      <point x="370" y="777" type="curve" smooth="yes"/>
      <point x="436" y="777"/>
      <point x="497" y="816"/>
    </contour>
  </outline>
</glyph>
<glyph name="Gdotaccent" format="1">
  <advance width="740"/>
  <unicode hex="0120"/>
  <outline>
    <component base="G"/>
    <component base="dotaccentcomb" xOffset="-3"/>
    <contour>
      <point x="367" y="0" type="move" name="bottom"/>
    </contour>
    <contour>
      <point x="367" y="696" type="move" name="top"/>
    </contour>
  </outline>
</glyph>
<glyph name="gdotaccent" format="1">
  <advance width="740"/>
  <unicode hex="0121"/>
  <outline>
    <contour>
      <point x="605" y="197" type="curve" smooth="yes"/>
      <point x="573" y="96"/>
      <point x="477" y="22"/>
      <point x="365" y="22" type="curve" smooth="yes"/>
      <point x="227" y="22"/>
      <point x="115" y="134"/>
      <point x="115" y="282" type="curve" smooth="yes"/>
      <point x="115" y="422" type="line" smooth="yes"/>
      <point x="115" y="564"/>
      <point x="225" y="674"/>
      <point x="365" y="674" type="curve" smooth="yes"/>
      <point x="441" y="674"/>
      <point x="503" y="650"/>
      <point x="547" y="604" type="curve" smooth="yes"/>
      <point x="581" y="568"/>
      <point x="609" y="518"/>
      <point x="610" y="466" type="curve"/>
      <point x="646" y="466" type="line"/>
      <point x="646" y="527"/>
      <point x="615" y="585"/>
      <point x="576" y="627" type="curve" smooth="yes"/>
      <point x="525" y="682"/>
      <point x="452" y="711"/>
      <point x="365" y="711" type="curve" smooth="yes"/>
      <point x="205" y="711"/>
      <point x="78" y="584"/>
      <point x="78" y="422" type="curve" smooth="yes"/>
      <point x="78" y="282" type="line" smooth="yes"/>
      <point x="78" y="114"/>
      <point x="207" y="-15"/>
      <point x="365" y="-15" type="curve" smooth="yes"/>
      <point x="472" y="-15"/>
      <point x="579" y="50"/>
      <point x="615" y="143" type="curve"/>
      <point x="615" y="0" type="line"/>
      <point x="652" y="0" type="line"/>
      <point x="652" y="344" type="line"/>
      <point x="365" y="344" type="line"/>
      <point x="365" y="307" type="line"/>
      <point x="615" y="307" type="line"/>
      <point x="615" y="272" type="line" smooth="yes"/>
      <point x="615" y="246"/>
      <point x="612" y="221"/>
    </contour>
    <component base="dotaccentcomb" xOffset="-3.010"/>
    <contour>
      <point x="367" y="0" type="move" name="bottom"/>
    </contour>
    <contour>
      <point x="367" y="696" type="move" name="top"/>
    </contour>
  </outline>
</glyph>
<glyph name="Gcommaaccent" format="1">
  <advance width="740"/>
  <unicode hex="0122"/>
  <outline>
    <contour>
      <point x="376" y="-223" type="line"/>
      <point x="416" y="-154" type="line" smooth="yes"/>
      <point x="424" y="-139"/>
      <point x="430" y="-126"/>
      <point x="430" y="-113" type="curve" smooth="yes"/>
      <point x="430" y="-78"/>
      <point x="402" y="-50"/>
      <point x="367" y="-50" type="curve" smooth="yes"/>
      <point x="332" y="-50"/>
      <point x="304" y="-78"/>
      <point x="304" y="-113" type="curve" smooth="yes"/>
      <point x="304" y="-147"/>
      <point x="332" y="-175"/>
      <point x="365" y="-176" type="curve"/>
      <point x="338" y="-223" type="line"/>
    </contour>
    <component base="G"/>
    <contour>
      <point x="367" y="0" type="move" name="bottom"/>
    </contour>
    <contour>
      <point x="367" y="696" type="move" name="top"/>
    </contour>
  </outline>
</glyph>
<glyph name="gcommaaccent" format="1">
  <advance width="740"/>
  <unicode hex="0123"/>
  <outline>
    <contour>
      <point x="605" y="197" type="curve" smooth="yes"/>
      <point x="573" y="96"/>
      <point x="477" y="22"/>
      <point x="365" y="22" type="curve" smooth="yes"/>
      <point x="227" y="22"/>
      <point x="115" y="134"/>
      <point x="115" y="282" type="curve" smooth="yes"/>
      <point x="115" y="422" type="line" smooth="yes"/>
      <point x="115" y="564"/>
      <point x="225" y="674"/>
      <point x="365" y="674" type="curve" smooth="yes"/>
      <point x="441" y="674"/>
      <point x="503" y="650"/>
      <point x="547" y="604" type="curve" smooth="yes"/>
      <point x="581" y="568"/>
      <point x="609" y="518"/>
      <point x="610" y="466" type="curve"/>
      <point x="646" y="466" type="line"/>
      <point x="646" y="527"/>
      <point x="615" y="585"/>
      <point x="576" y="627" type="curve" smooth="yes"/>
      <point x="525" y="682"/>
      <point x="452" y="711"/>
      <point x="365" y="711" type="curve" smooth="yes"/>
      <point x="205" y="711"/>
      <point x="78" y="584"/>
      <point x="78" y="422" type="curve" smooth="yes"/>
      <point x="78" y="282" type="line" smooth="yes"/>
      <point x="78" y="114"/>
      <point x="207" y="-15"/>
      <point x="365" y="-15" type="curve" smooth="yes"/>
      <point x="472" y="-15"/>
      <point x="579" y="50"/>
      <point x="615" y="143" type="curve"/>
      <point x="615" y="0" type="line"/>
      <point x="652" y="0" type="line"/>
      <point x="652" y="344" type="line"/>
      <point x="365" y="344" type="line"/>
      <point x="365" y="307" type="line"/>
      <point x="615" y="307" type="line"/>
      <point x="615" y="272" type="line" smooth="yes"/>
      <point x="615" y="246"/>
      <point x="612" y="221"/>
    </contour>
    <contour>
      <point x="376" y="-223" type="line"/>
      <point x="416" y="-154" type="line" smooth="yes"/>
      <point x="424" y="-139"/>
      <point x="430" y="-126"/>
      <point x="430" y="-113" type="curve" smooth="yes"/>
      <point x="430" y="-78"/>
      <point x="402" y="-50"/>
      <point x="367" y="-50" type="curve" smooth="yes"/>
      <point x="332" y="-50"/>
      <point x="304" y="-78"/>
      <point x="304" y="-113" type="curve" smooth="yes"/>
      <point x="304" y="-147"/>
      <point x="332" y="-175"/>
      <point x="365" y="-176" type="curve"/>
      <point x="338" y="-223" type="line"/>
    </contour>
    <contour>
      <point x="367" y="0" type="move" name="bottom"/>
    </contour>
    <contour>
      <point x="367" y="696" type="move" name="top"/>
    </contour>
  </outline>
</glyph>
<glyph name="hcircumflex" format="1">
  <advance width="740"/>
  <unicode hex="0125"/>
  <outline>
    <contour>
      <point x="601" y="696" type="line"/>
      <point x="601" y="367" type="line"/>
      <point x="139" y="367" type="line"/>
      <point x="139" y="696" type="line"/>
      <point x="102" y="696" type="line"/>
      <point x="102" y="0" type="line"/>
      <point x="139" y="0" type="line"/>
      <point x="139" y="330" type="line"/>
      <point x="601" y="330" type="line"/>
      <point x="601" y="0" type="line"/>
      <point x="638" y="0" type="line"/>
      <point x="638" y="696" type="line"/>
    </contour>
    <component base="circumflexcomb"/>
  </outline>
</glyph>
<glyph name="dotlessi" format="1">
  <advance width="740"/>
  <unicode hex="0131"/>
  <outline>
    <contour>
      <point x="145" y="37" type="line"/>
      <point x="145" y="0" type="line"/>
      <point x="595" y="0" type="line"/>
      <point x="595" y="37" type="line"/>
      <point x="388" y="37" type="line"/>
      <point x="388" y="659" type="line"/>
      <point x="595" y="659" type="line"/>
      <point x="595" y="696" type="line"/>
      <point x="145" y="696" type="line"/>
      <point x="145" y="659" type="line"/>
      <point x="352" y="659" type="line"/>
      <point x="352" y="37" type="line"/>
    </contour>
  </outline>
</glyph>
<glyph name="jcircumflex" format="1">
  <advance width="740"/>
  <unicode hex="0135"/>
  <outline>
    <contour>
      <point x="333" y="744" type="line"/>
      <point x="455" y="866" type="line"/>
      <point x="577" y="744" type="line"/>
      <point x="603" y="770" type="line"/>
      <point x="455" y="918" type="line"/>
      <point x="307" y="770" type="line"/>
    </contour>
    <component base="dotlessj"/>
  </outline>
</glyph>
<glyph name="Kcommaaccent" format="1">
  <advance width="740"/>
  <unicode hex="0136"/>
  <outline>
    <contour>
      <point x="380" y="-223" type="line"/>
      <point x="420" y="-154" type="line" smooth="yes"/>
      <point x="428" y="-139"/>
      <point x="434" y="-126"/>
      <point x="434" y="-113" type="curve" smooth="yes"/>
      <point x="434" y="-78"/>
      <point x="406" y="-50"/>
      <point x="371" y="-50" type="curve" smooth="yes"/>
      <point x="336" y="-50"/>
      <point x="308" y="-78"/>
      <point x="308" y="-113" type="curve" smooth="yes"/>
      <point x="308" y="-147"/>
      <point x="336" y="-175"/>
      <point x="369" y="-176" type="curve"/>
      <point x="342" y="-223" type="line"/>
    </contour>
    <component base="K"/>
    <contour>
      <point x="371" y="0" type="move" name="bottom"/>
    </contour>
    <contour>
      <point x="371" y="696" type="move" name="top"/>
    </contour>
  </outline>
</glyph>
<glyph name="kcommaaccent" format="1">
  <advance width="740"/>
  <unicode hex="0137"/>
  <outline>
    <contour>
      <point x="377" y="-223" type="line"/>
      <point x="417" y="-154" type="line" smooth="yes"/>
      <point x="425" y="-139"/>
      <point x="431" y="-126"/>
      <point x="431" y="-113" type="curve" smooth="yes"/>
      <point x="431" y="-78"/>
      <point x="403" y="-50"/>
      <point x="368" y="-50" type="curve" smooth="yes"/>
      <point x="333" y="-50"/>
      <point x="305" y="-78"/>
      <point x="305" y="-113" type="curve" smooth="yes"/>
      <point x="305" y="-147"/>
      <point x="333" y="-175"/>
      <point x="366" y="-176" type="curve"/>
      <point x="339" y="-223" type="line"/>
    </contour>
    <component base="kgreenlandic"/>
    <contour>
      <point x="368" y="0" type="move" name="bottom"/>
    </contour>
    <contour>
      <point x="368" y="696" type="move" name="top"/>
    </contour>
  </outline>
</glyph>
<glyph name="kgreenlandic" format="1">
  <advance width="740"/>
  <unicode hex="0138"/>
  <outline>
    <contour>
      <point x="671" y="696" type="line"/>
      <point x="619" y="696" type="line"/>
      <point x="147" y="225" type="line"/>
      <point x="147" y="696" type="line"/>
      <point x="110" y="696" type="line"/>
      <point x="110" y="0" type="line"/>
      <point x="147" y="0" type="line"/>
      <point x="147" y="173" type="line"/>
      <point x="354" y="380" type="line"/>
      <point x="626" y="0" type="line"/>
      <point x="670" y="0" type="line"/>
      <point x="380" y="406" type="line"/>
    </contour>
  </outline>
</glyph>
<glyph name="Lacute" format="1">
  <advance width="740"/>
  <unicode hex="0139"/>
  <outline>
    <component base="L"/>
    <component base="acutecomb" xOffset="-197"/>
    <contour>
      <point x="411" y="0" type="move" name="bottom"/>
    </contour>
    <contour>
      <point x="163" y="696" type="move" name="top"/>
    </contour>
  </outline>
</glyph>
<glyph name="Lcommaaccent" format="1">
  <advance width="740"/>
  <unicode hex="013B"/>
  <outline>
    <contour>
      <point x="425" y="-223" type="line"/>
      <point x="465" y="-154" type="line" smooth="yes"/>
      <point x="473" y="-139"/>
      <point x="479" y="-126"/>
      <point x="479" y="-113" type="curve" smooth="yes"/>
      <point x="479" y="-78"/>
      <point x="451" y="-50"/>
      <point x="416" y="-50" type="curve" smooth="yes"/>
      <point x="381" y="-50"/>
      <point x="353" y="-78"/>
      <point x="353" y="-113" type="curve" smooth="yes"/>
      <point x="353" y="-147"/>
      <point x="381" y="-175"/>
      <point x="414" y="-176" type="curve"/>
      <point x="387" y="-223" type="line"/>
    </contour>
    <component base="L"/>
    <contour>
      <point x="416" y="0" type="move" name="bottom"/>
    </contour>
    <contour>
      <point x="238" y="696" type="move" name="top"/>
    </contour>
  </outline>
</glyph>
<glyph name="lcommaaccent" format="1">
  <advance width="740"/>
  <unicode hex="013C"/>
  <outline>
    <contour>
      <point x="431" y="-223" type="line"/>
      <point x="471" y="-154" type="line" smooth="yes"/>
      <point x="479" y="-139"/>
      <point x="485" y="-126"/>
      <point x="485" y="-113" type="curve" smooth="yes"/>
      <point x="485" y="-78"/>
      <point x="457" y="-50"/>
      <point x="422" y="-50" type="curve" smooth="yes"/>
      <point x="387" y="-50"/>
      <point x="359" y="-78"/>
      <point x="359" y="-113" type="curve" smooth="yes"/>
      <point x="359" y="-147"/>
      <point x="387" y="-175"/>
      <point x="420" y="-176" type="curve"/>
      <point x="393" y="-223" type="line"/>
    </contour>
    <component base="l"/>
    <contour>
      <point x="422" y="0" type="move" name="bottom"/>
    </contour>
    <contour>
      <point x="174" y="696" type="move" name="top"/>
    </contour>
  </outline>
</glyph>
<glyph name="Lcaron" format="1">
  <advance width="740"/>
  <unicode hex="013D"/>
  <outline>
    <contour>
      <point x="517" y="485" type="line"/>
      <point x="555" y="478" type="line"/>
      <point x="603" y="689" type="line"/>
      <point x="566" y="696" type="line"/>
    </contour>
    <component base="L"/>
    <contour>
      <point x="411" y="0" type="move" name="bottom"/>
    </contour>
    <contour>
      <point x="167" y="696" type="move" name="top"/>
    </contour>
    <contour>
      <point x="560" y="696" type="move" name="topright"/>
    </contour>
  </outline>
</glyph>
<glyph name="lcaron" format="1">
  <advance width="740"/>
  <unicode hex="013E"/>
  <outline>
    <contour>
      <point x="380" y="492" type="line"/>
      <point x="417" y="485" type="line"/>
      <point x="466" y="696" type="line"/>
      <point x="429" y="703" type="line"/>
    </contour>
    <component base="l"/>
  </outline>
</glyph>
<glyph name="Ldot" format="1">
  <advance width="740"/>
  <unicode hex="013F"/>
  <outline>
    <component base="L"/>
    <component base="periodcentered" xOffset="180" yOffset="50"/>
    <contour>
      <point x="411" y="0" type="move" name="bottom"/>
    </contour>
    <contour>
      <point x="192" y="369" type="move" name="center"/>
    </contour>
    <contour>
      <point x="167" y="696" type="move" name="top"/>
    </contour>
    <contour>
      <point x="560" y="696" type="move" name="topright"/>
    </contour>
  </outline>
</glyph>
<glyph name="Lslash" format="1">
  <advance width="740"/>
  <unicode hex="0141"/>
  <outline>
    <component base="L"/>
    <component base="slashcomb" xOffset="-178" yOffset="21"/>
    <contour>
      <point x="411" y="0" type="move" name="bottom"/>
    </contour>
    <contour>
      <point x="192" y="369" type="move" name="center"/>
    </contour>
    <contour>
      <point x="167" y="696" type="move" name="top"/>
    </contour>
    <contour>
      <point x="560" y="696" type="move" name="topright"/>
    </contour>
  </outline>
</glyph>
<glyph name="lslash" format="1">
  <advance width="740"/>
  <unicode hex="0142"/>
  <outline>
    <component base="l"/>
    <component base="slashcomb" xOffset="-178" yOffset="1"/>
    <contour>
      <point x="418" y="0" type="move" name="bottom"/>
    </contour>
    <contour>
      <point x="192" y="349" type="move" name="center"/>
    </contour>
    <contour>
      <point x="174" y="696" type="move" name="top"/>
    </contour>
    <contour>
      <point x="560" y="696" type="move" name="topright"/>
    </contour>
  </outline>
</glyph>
<glyph name="Ncommaaccent" format="1">
  <advance width="740"/>
  <unicode hex="0145"/>
  <outline>
    <contour>
      <point x="391" y="-223" type="line"/>
      <point x="431" y="-154" type="line" smooth="yes"/>
      <point x="439" y="-139"/>
      <point x="445" y="-126"/>
      <point x="445" y="-113" type="curve" smooth="yes"/>
      <point x="445" y="-78"/>
      <point x="417" y="-50"/>
      <point x="382" y="-50" type="curve" smooth="yes"/>
      <point x="347" y="-50"/>
      <point x="319" y="-78"/>
      <point x="319" y="-113" type="curve" smooth="yes"/>
      <point x="319" y="-147"/>
      <point x="347" y="-175"/>
      <point x="380" y="-176" type="curve"/>
      <point x="353" y="-223" type="line"/>
    </contour>
    <component base="N"/>
    <contour>
      <point x="382" y="0" type="move" name="bottom"/>
    </contour>
    <contour>
      <point x="382" y="696" type="move" name="top"/>
    </contour>
  </outline>
</glyph>
<glyph name="ncommaaccent" format="1">
  <advance width="740"/>
  <unicode hex="0146"/>
  <outline>
    <contour>
      <point x="392" y="-223" type="line"/>
      <point x="432" y="-154" type="line" smooth="yes"/>
      <point x="440" y="-139"/>
      <point x="446" y="-126"/>
      <point x="446" y="-113" type="curve" smooth="yes"/>
      <point x="446" y="-78"/>
      <point x="418" y="-50"/>
      <point x="383" y="-50" type="curve" smooth="yes"/>
      <point x="348" y="-50"/>
      <point x="320" y="-78"/>
      <point x="320" y="-113" type="curve" smooth="yes"/>
      <point x="320" y="-147"/>
      <point x="348" y="-175"/>
      <point x="381" y="-176" type="curve"/>
      <point x="354" y="-223" type="line"/>
    </contour>
    <component base="n"/>
    <contour>
      <point x="383" y="0" type="move" name="bottom"/>
    </contour>
    <contour>
      <point x="383" y="696" type="move" name="top"/>
    </contour>
  </outline>
</glyph>
<glyph name="Eng" format="1">
  <advance width="740"/>
  <unicode hex="014A"/>
  <outline>
    <contour>
      <point x="661" y="23" type="line"/>
      <point x="624" y="23" type="line"/>
      <point x="624" y="-5" type="line"/>
      <point x="624" y="-63"/>
      <point x="592" y="-96"/>
      <point x="541" y="-96" type="curve"/>
      <point x="540" y="-131" type="line"/>
      <point x="609" y="-131"/>
      <point x="661" y="-83"/>
      <point x="661" y="-5" type="curve" smooth="yes"/>
    </contour>
    <component base="N"/>
  </outline>
</glyph>
<glyph name="eng" format="1">
  <advance width="740"/>
  <unicode hex="014B"/>
  <outline>
    <contour>
      <point x="660" y="23" type="line"/>
      <point x="623" y="23" type="line"/>
      <point x="623" y="-5" type="line"/>
      <point x="623" y="-63"/>
      <point x="591" y="-96"/>
      <point x="540" y="-96" type="curve"/>
      <point x="539" y="-131" type="line"/>
      <point x="608" y="-131"/>
      <point x="660" y="-83"/>
      <point x="660" y="-5" type="curve" smooth="yes"/>
    </contour>
    <component base="n"/>
  </outline>
</glyph>
<glyph name="Omacron" format="1">
  <advance width="740"/>
  <unicode hex="014C"/>
  <outline>
    <contour>
      <point x="660" y="271" type="curve" smooth="yes"/>
      <point x="660" y="425" type="line" smooth="yes"/>
      <point x="660" y="584"/>
      <point x="530" y="715"/>
      <point x="370" y="715" type="curve" smooth="yes"/>
      <point x="210" y="715"/>
      <point x="80" y="584"/>
      <point x="80" y="425" type="curve" smooth="yes"/>
      <point x="80" y="271" type="line" smooth="yes"/>
      <point x="80" y="112"/>
      <point x="210" y="-19"/>
      <point x="370" y="-19" type="curve" smooth="yes"/>
      <point x="530" y="-19"/>
      <point x="660" y="112"/>
    </contour>
    <contour>
      <point x="262" y="426" type="line" smooth="yes"/>
      <point x="262" y="490"/>
      <point x="305" y="541"/>
      <point x="370" y="541" type="curve" smooth="yes"/>
      <point x="433" y="541"/>
      <point x="477" y="490"/>
      <point x="477" y="426" type="curve" smooth="yes"/>
      <point x="477" y="271" type="line" smooth="yes"/>
      <point x="477" y="208"/>
      <point x="434" y="155"/>
      <point x="370" y="155" type="curve" smooth="yes"/>
      <point x="305" y="155"/>
      <point x="262" y="208"/>
      <point x="262" y="271" type="curve" smooth="yes"/>
    </contour>
    <contour>
      <point x="222" y="803" type="line"/>
      <point x="222" y="766" type="line"/>
      <point x="518" y="766" type="line"/>
      <point x="518" y="803" type="line"/>
    </contour>
  </outline>
</glyph>
<glyph name="omacron" format="1">
  <advance width="740"/>
  <unicode hex="014D"/>
  <outline>
    <component base="o"/>
    <component base="macroncomb"/>
    <contour>
      <point x="370" y="0" type="move" name="bottom"/>
    </contour>
    <contour>
      <point x="370" y="696" type="move" name="top"/>
    </contour>
  </outline>
</glyph>
<glyph name="Obreve" format="1">
  <advance width="740"/>
  <unicode hex="014E"/>
  <outline>
    <contour>
      <point x="660" y="425" type="line" smooth="yes"/>
      <point x="660" y="584"/>
      <point x="530" y="715"/>
      <point x="370" y="715" type="curve" smooth="yes"/>
      <point x="210" y="715"/>
      <point x="80" y="584"/>
      <point x="80" y="425" type="curve" smooth="yes"/>
      <point x="80" y="271" type="line" smooth="yes"/>
      <point x="80" y="112"/>
      <point x="210" y="-19"/>
      <point x="370" y="-19" type="curve" smooth="yes"/>
      <point x="530" y="-19"/>
      <point x="660" y="112"/>
      <point x="660" y="271" type="curve" smooth="yes"/>
    </contour>
    <contour>
      <point x="370" y="541" type="curve" smooth="yes"/>
      <point x="433" y="541"/>
      <point x="477" y="490"/>
      <point x="477" y="426" type="curve" smooth="yes"/>
      <point x="477" y="271" type="line" smooth="yes"/>
      <point x="477" y="208"/>
      <point x="434" y="155"/>
      <point x="370" y="155" type="curve" smooth="yes"/>
      <point x="305" y="155"/>
      <point x="262" y="208"/>
      <point x="262" y="271" type="curve" smooth="yes"/>
      <point x="262" y="426" type="line" smooth="yes"/>
      <point x="262" y="490"/>
      <point x="305" y="541"/>
    </contour>
    <contour>
      <point x="491" y="892" type="line"/>
      <point x="469" y="844"/>
      <point x="422" y="814"/>
      <point x="370" y="814" type="curve" smooth="yes"/>
      <point x="318" y="814"/>
      <point x="271" y="844"/>
      <point x="249" y="892" type="curve"/>
      <point x="216" y="876" type="line"/>
      <point x="243" y="816"/>
      <point x="304" y="777"/>
      <point x="370" y="777" type="curve" smooth="yes"/>
      <point x="436" y="777"/>
      <point x="497" y="816"/>
      <point x="524" y="876" type="curve"/>
    </contour>
  </outline>
</glyph>
<glyph name="OE" format="1">
  <advance width="740"/>
  <unicode hex="0152"/>
  <outline>
    <contour>
      <point x="651" y="265" type="line"/>
      <point x="651" y="432" type="line"/>
      <point x="511" y="432" type="line"/>
      <point x="511" y="520" type="line"/>
      <point x="706" y="520" type="line"/>
      <point x="706" y="696" type="line"/>
      <point x="329" y="696" type="line"/>
      <point x="156" y="696"/>
      <point x="26" y="570"/>
      <point x="26" y="407" type="curve" smooth="yes"/>
      <point x="26" y="289" type="line" smooth="yes"/>
      <point x="26" y="127"/>
      <point x="156" y="0"/>
      <point x="329" y="0" type="curve"/>
      <point x="706" y="0" type="line"/>
      <point x="706" y="176" type="line"/>
      <point x="511" y="176" type="line"/>
      <point x="511" y="265" type="line"/>
    </contour>
    <contour>
      <point x="208" y="407" type="line" smooth="yes"/>
      <point x="208" y="469"/>
      <point x="258" y="513"/>
      <point x="329" y="513" type="curve"/>
      <point x="329" y="696" type="line"/>
      <point x="329" y="183" type="line"/>
      <point x="257" y="183"/>
      <point x="208" y="228"/>
      <point x="208" y="289" type="curve" smooth="yes"/>
    </contour>
  </outline>
</glyph>
<glyph name="oe" format="1">
  <advance width="740"/>
  <unicode hex="0153"/>
  <outline>
    <contour>
      <point x="684" y="696" type="line"/>
      <point x="353" y="696" type="line" smooth="yes"/>
      <point x="195" y="696"/>
      <point x="68" y="576"/>
      <point x="68" y="421" type="curve" smooth="yes"/>
      <point x="68" y="275" type="line" smooth="yes"/>
      <point x="68" y="120"/>
      <point x="196" y="0"/>
      <point x="353" y="0" type="curve" smooth="yes"/>
      <point x="684" y="0" type="line"/>
      <point x="684" y="37" type="line"/>
      <point x="390" y="37" type="line"/>
      <point x="390" y="340" type="line"/>
      <point x="628" y="340" type="line"/>
      <point x="628" y="377" type="line"/>
      <point x="390" y="377" type="line"/>
      <point x="390" y="659" type="line"/>
      <point x="684" y="659" type="line"/>
    </contour>
    <contour>
      <point x="106" y="420" type="line" smooth="yes"/>
      <point x="106" y="555"/>
      <point x="216" y="659"/>
      <point x="353" y="659" type="curve"/>
      <point x="353" y="36" type="line"/>
      <point x="217" y="36"/>
      <point x="106" y="139"/>
      <point x="106" y="275" type="curve" smooth="yes"/>
    </contour>
  </outline>
</glyph>
<glyph name="racute" format="1">
  <advance width="740"/>
  <unicode hex="0155"/>
  <outline>
    <contour>
      <point x="481" y="247" type="line"/>
      <point x="578" y="274"/>
      <point x="650" y="363"/>
      <point x="650" y="468" type="curve" smooth="yes"/>
      <point x="650" y="557"/>
      <point x="602" y="635"/>
      <point x="521" y="673" type="curve" smooth="yes"/>
      <point x="486" y="689"/>
      <point x="447" y="696"/>
      <point x="388" y="696" type="curve"/>
      <point x="123" y="696" type="line"/>
      <point x="123" y="0" type="line"/>
      <point x="160" y="0" type="line"/>
      <point x="160" y="239" type="line"/>
      <point x="411" y="239" type="line" smooth="yes"/>
      <point x="422" y="239"/>
      <point x="443" y="240"/>
      <point x="443" y="240" type="curve"/>
      <point x="614" y="0" type="line"/>
      <point x="658" y="0" type="line"/>
    </contour>
    <contour>
      <point x="421" y="276" type="curve"/>
      <point x="160" y="276" type="line"/>
      <point x="160" y="659" type="line"/>
      <point x="388" y="659" type="line"/>
      <point x="432" y="659"/>
      <point x="469" y="655"/>
      <point x="498" y="643" type="curve" smooth="yes"/>
      <point x="571" y="612"/>
      <point x="613" y="544"/>
      <point x="613" y="468" type="curve" smooth="yes"/>
      <point x="613" y="363"/>
      <point x="527" y="276"/>
    </contour>
    <component base="acutecomb"/>
  </outline>
</glyph>
<glyph name="rcommaaccent" format="1">
  <advance width="740"/>
  <unicode hex="0157"/>
  <outline>
    <contour>
      <point x="481" y="247" type="line"/>
      <point x="578" y="274"/>
      <point x="650" y="363"/>
      <point x="650" y="468" type="curve" smooth="yes"/>
      <point x="650" y="557"/>
      <point x="602" y="635"/>
      <point x="521" y="673" type="curve" smooth="yes"/>
      <point x="486" y="689"/>
      <point x="447" y="696"/>
      <point x="388" y="696" type="curve"/>
      <point x="123" y="696" type="line"/>
      <point x="123" y="0" type="line"/>
      <point x="160" y="0" type="line"/>
      <point x="160" y="239" type="line"/>
      <point x="411" y="239" type="line" smooth="yes"/>
      <point x="422" y="239"/>
      <point x="443" y="240"/>
      <point x="443" y="240" type="curve"/>
      <point x="614" y="0" type="line"/>
      <point x="658" y="0" type="line"/>
    </contour>
    <contour>
      <point x="421" y="276" type="curve"/>
      <point x="160" y="276" type="line"/>
      <point x="160" y="659" type="line"/>
      <point x="388" y="659" type="line"/>
      <point x="432" y="659"/>
      <point x="469" y="655"/>
      <point x="498" y="643" type="curve" smooth="yes"/>
      <point x="571" y="612"/>
      <point x="613" y="544"/>
      <point x="613" y="468" type="curve" smooth="yes"/>
      <point x="613" y="363"/>
      <point x="527" y="276"/>
    </contour>
    <contour>
      <point x="379" y="-223" type="line"/>
      <point x="419" y="-154" type="line" smooth="yes"/>
      <point x="427" y="-139"/>
      <point x="433" y="-126"/>
      <point x="433" y="-113" type="curve" smooth="yes"/>
      <point x="433" y="-78"/>
      <point x="405" y="-50"/>
      <point x="370" y="-50" type="curve" smooth="yes"/>
      <point x="335" y="-50"/>
      <point x="307" y="-78"/>
      <point x="307" y="-113" type="curve" smooth="yes"/>
      <point x="307" y="-147"/>
      <point x="335" y="-175"/>
      <point x="368" y="-176" type="curve"/>
      <point x="341" y="-223" type="line"/>
    </contour>
    <contour>
      <point x="370" y="0" type="move" name="bottom"/>
    </contour>
    <contour>
      <point x="370" y="696" type="move" name="top"/>
    </contour>
  </outline>
</glyph>
<glyph name="sacute" format="1">
  <advance width="740"/>
  <unicode hex="015B"/>
  <outline>
    <contour>
      <point x="632" y="479" type="line"/>
      <point x="632" y="619"/>
      <point x="517" y="712"/>
      <point x="376" y="712" type="curve" smooth="yes"/>
      <point x="231" y="712"/>
      <point x="133" y="637"/>
      <point x="132" y="520" type="curve" smooth="yes"/>
      <point x="131" y="401"/>
      <point x="233" y="363"/>
      <point x="385" y="333" type="curve" smooth="yes"/>
      <point x="504" y="309"/>
      <point x="596" y="294"/>
      <point x="595" y="182" type="curve"/>
      <point x="595" y="78"/>
      <point x="499" y="20"/>
      <point x="382" y="20" type="curve" smooth="yes"/>
      <point x="233" y="20"/>
      <point x="141" y="105"/>
      <point x="143" y="233" type="curve"/>
      <point x="106" y="233" type="line"/>
      <point x="104" y="85"/>
      <point x="213" y="-15"/>
      <point x="382" y="-15" type="curve" smooth="yes"/>
      <point x="510" y="-15"/>
      <point x="632" y="48"/>
      <point x="632" y="183" type="curve" smooth="yes"/>
      <point x="632" y="322"/>
      <point x="516" y="343"/>
      <point x="396" y="368" type="curve" smooth="yes"/>
      <point x="265" y="395"/>
      <point x="169" y="418"/>
      <point x="169" y="520" type="curve" smooth="yes"/>
      <point x="169" y="631"/>
      <point x="275" y="677"/>
      <point x="376" y="677" type="curve" smooth="yes"/>
      <point x="498" y="677"/>
      <point x="595" y="600"/>
      <point x="595" y="479" type="curve"/>
    </contour>
    <component base="acutecomb"/>
  </outline>
</glyph>
<glyph name="Scedilla" format="1">
  <advance width="740"/>
  <unicode hex="015E"/>
  <outline>
    <contour>
      <point x="495" y="456" type="line"/>
      <point x="495" y="529"/>
      <point x="457" y="561"/>
      <point x="376" y="561" type="curve" smooth="yes"/>
      <point x="311" y="561"/>
      <point x="273" y="537"/>
      <point x="273" y="498" type="curve" smooth="yes"/>
      <point x="273" y="448"/>
      <point x="363" y="432"/>
      <point x="400" y="424" type="curve" smooth="yes"/>
      <point x="526" y="399"/>
      <point x="665" y="377"/>
      <point x="665" y="213" type="curve" smooth="yes"/>
      <point x="665" y="71"/>
      <point x="539" y="-10"/>
      <point x="399" y="-17" type="curve"/>
      <point x="322" y="-173" type="line"/>
      <point x="289" y="-156" type="line"/>
      <point x="358" y="-18" type="line"/>
      <point x="181" y="-12"/>
      <point x="75" y="76"/>
      <point x="77" y="256" type="curve"/>
      <point x="240" y="256" type="line"/>
      <point x="239" y="179"/>
      <point x="289" y="139"/>
      <point x="372" y="139" type="curve" smooth="yes"/>
      <point x="440" y="139"/>
      <point x="484" y="160"/>
      <point x="484" y="208" type="curve" smooth="yes"/>
      <point x="484" y="257"/>
      <point x="403" y="266"/>
      <point x="356" y="276" type="curve"/>
      <point x="234" y="299"/>
      <point x="91" y="339"/>
      <point x="91" y="493" type="curve" smooth="yes"/>
      <point x="91" y="643"/>
      <point x="224" y="716"/>
      <point x="369" y="716" type="curve" smooth="yes"/>
      <point x="534" y="716"/>
      <point x="658" y="626"/>
      <point x="658" y="456" type="curve"/>
    </contour>
  </outline>
</glyph>
<glyph name="scedilla" format="1">
  <advance width="740"/>
  <unicode hex="015F"/>
  <outline>
    <contour>
      <point x="396" y="368" type="curve" smooth="yes"/>
      <point x="265" y="395"/>
      <point x="169" y="418"/>
      <point x="169" y="520" type="curve" smooth="yes"/>
      <point x="169" y="631"/>
      <point x="275" y="677"/>
      <point x="376" y="677" type="curve" smooth="yes"/>
      <point x="498" y="677"/>
      <point x="595" y="600"/>
      <point x="595" y="479" type="curve"/>
      <point x="632" y="479" type="line"/>
      <point x="632" y="619"/>
      <point x="517" y="712"/>
      <point x="377" y="712" type="curve" smooth="yes"/>
      <point x="231" y="712"/>
      <point x="134" y="637"/>
      <point x="132" y="520" type="curve"/>
      <point x="131" y="401"/>
      <point x="233" y="363"/>
      <point x="385" y="333" type="curve" smooth="yes"/>
      <point x="504" y="309"/>
      <point x="596" y="294"/>
      <point x="595" y="182" type="curve"/>
      <point x="595" y="78"/>
      <point x="499" y="20"/>
      <point x="382" y="20" type="curve"/>
      <point x="233" y="20"/>
      <point x="142" y="105"/>
      <point x="143" y="233" type="curve"/>
      <point x="106" y="233" type="line"/>
      <point x="105" y="91"/>
      <point x="205" y="-7"/>
      <point x="362" y="-14" type="curve"/>
      <point x="292" y="-156" type="line"/>
      <point x="325" y="-173" type="line"/>
      <point x="404" y="-14" type="line"/>
      <point x="523" y="-7"/>
      <point x="632" y="56"/>
      <point x="632" y="183" type="curve" smooth="yes"/>
      <point x="632" y="322"/>
      <point x="516" y="343"/>
    </contour>
  </outline>
</glyph>
<glyph name="tcaron" format="1">
  <advance width="740"/>
  <unicode hex="0165"/>
  <outline>
    <contour>
      <point x="89" y="696" type="line"/>
      <point x="89" y="659" type="line"/>
      <point x="352" y="659" type="line"/>
      <point x="352" y="0" type="line"/>
      <point x="388" y="0" type="line"/>
      <point x="388" y="659" type="line"/>
      <point x="651" y="659" type="line"/>
      <point x="651" y="696" type="line"/>
    </contour>
    <component base="caroncomb" xOffset="6"/>
  </outline>
</glyph>
<glyph name="tbar" format="1">
  <advance width="740"/>
  <unicode hex="0167"/>
  <outline>
    <contour>
      <point x="89" y="696" type="line"/>
      <point x="89" y="659" type="line"/>
      <point x="352" y="659" type="line"/>
      <point x="352" y="383" type="line"/>
      <point x="149" y="383" type="line"/>
      <point x="149" y="346" type="line"/>
      <point x="352" y="346" type="line"/>
      <point x="352" y="0" type="line"/>
      <point x="388" y="0" type="line"/>
      <point x="388" y="346" type="line"/>
      <point x="591" y="346" type="line"/>
      <point x="591" y="383" type="line"/>
      <point x="388" y="383" type="line"/>
      <point x="388" y="659" type="line"/>
      <point x="651" y="659" type="line"/>
      <point x="651" y="696" type="line"/>
    </contour>
  </outline>
</glyph>
<glyph name="utilde" format="1">
  <advance width="740"/>
  <unicode hex="0169"/>
  <outline>
    <contour>
      <point x="614" y="266" type="line" smooth="yes"/>
      <point x="614" y="132"/>
      <point x="505" y="22"/>
      <point x="370" y="22" type="curve" smooth="yes"/>
      <point x="235" y="22"/>
      <point x="126" y="132"/>
      <point x="126" y="266" type="curve" smooth="yes"/>
      <point x="126" y="696" type="line"/>
      <point x="89" y="696" type="line"/>
      <point x="89" y="266" type="line" smooth="yes"/>
      <point x="89" y="111"/>
      <point x="215" y="-15"/>
      <point x="370" y="-15" type="curve" smooth="yes"/>
      <point x="525" y="-15"/>
      <point x="651" y="111"/>
      <point x="651" y="266" type="curve" smooth="yes"/>
      <point x="651" y="696" type="line"/>
      <point x="614" y="696" type="line"/>
    </contour>
    <component base="tildecomb"/>
  </outline>
</glyph>
<glyph name="uogonek" format="1">
  <advance width="740"/>
  <unicode hex="0173"/>
  <outline>
    <contour>
      <point x="614" y="266" type="line" smooth="yes"/>
      <point x="614" y="132"/>
      <point x="505" y="22"/>
      <point x="370" y="22" type="curve" smooth="yes"/>
      <point x="235" y="22"/>
      <point x="126" y="132"/>
      <point x="126" y="266" type="curve" smooth="yes"/>
      <point x="126" y="696" type="line"/>
      <point x="89" y="696" type="line"/>
      <point x="89" y="266" type="line" smooth="yes"/>
      <point x="89" y="111"/>
      <point x="215" y="-15"/>
      <point x="370" y="-15" type="curve" smooth="yes"/>
      <point x="525" y="-15"/>
      <point x="651" y="111"/>
      <point x="651" y="266" type="curve" smooth="yes"/>
      <point x="651" y="696" type="line"/>
      <point x="614" y="696" type="line"/>
    </contour>
    <contour>
      <point x="561" y="-180" type="line"/>
      <point x="495" y="-180"/>
      <point x="447" y="-133"/>
      <point x="447" y="-75" type="curve" smooth="yes"/>
      <point x="447" y="-34"/>
      <point x="468" y="0"/>
      <point x="510" y="23" type="curve"/>
      <point x="500" y="48" type="line"/>
      <point x="447" y="25"/>
      <point x="410" y="-16"/>
      <point x="410" y="-76" type="curve"/>
      <point x="410" y="-154"/>
      <point x="476" y="-217"/>
      <point x="561" y="-217" type="curve"/>
    </contour>
    <contour>
      <point x="370" y="0" type="move" name="bottom"/>
    </contour>
    <contour>
      <point x="651" y="696" type="move" name="horn"/>
    </contour>
    <contour>
      <point x="560" y="0" type="move" name="ogonek"/>
    </contour>
    <contour>
      <point x="370" y="696" type="move" name="top"/>
    </contour>
  </outline>
</glyph>
<glyph name="zdotaccent" format="1">
  <advance width="740"/>
  <unicode hex="017C"/>
  <outline>
    <component base="z"/>
    <component base="dotaccentcomb"/>
    <contour>
      <point x="370" y="0" type="move" name="bottom"/>
    </contour>
    <contour>
      <point x="370" y="696" type="move" name="top"/>
    </contour>
  </outline>
</glyph>
<glyph name="Schwa" format="1">
  <advance width="702"/>
  <unicode hex="018F"/>
  <outline>
    <contour>
      <point x="65" y="409" type="line"/>
      <point x="65" y="263" type="line"/>
      <point x="63" y="86"/>
      <point x="174" y="-14"/>
      <point x="349" y="-15" type="curve"/>
      <point x="505" y="-15"/>
      <point x="639" y="99"/>
      <point x="639" y="275" type="curve" smooth="yes"/>
      <point x="639" y="421" type="line" smooth="yes"/>
      <point x="639" y="595"/>
      <point x="514" y="711"/>
      <point x="351" y="711" type="curve"/>
      <point x="175" y="711"/>
      <point x="68" y="585"/>
      <point x="67" y="459" type="curve"/>
      <point x="247" y="459" type="line"/>
      <point x="248" y="503"/>
      <point x="285" y="544"/>
      <point x="349" y="544" type="curve" smooth="yes"/>
      <point x="414" y="544"/>
      <point x="457" y="503"/>
      <point x="457" y="430" type="curve" smooth="yes"/>
      <point x="457" y="409" type="line"/>
    </contour>
    <contour>
      <point x="457" y="262" type="line"/>
      <point x="456" y="187"/>
      <point x="419" y="150"/>
      <point x="349" y="150" type="curve" smooth="yes"/>
      <point x="280" y="150"/>
      <point x="242" y="191"/>
      <point x="242" y="262" type="curve"/>
    </contour>
  </outline>
</glyph>
<glyph name="florin" format="1">
  <advance width="740"/>
  <unicode hex="0192"/>
  <outline>
    <contour>
      <point x="503" y="662" type="curve"/>
      <point x="560" y="662" type="line"/>
      <point x="560" y="699" type="line"/>
      <point x="503" y="699" type="line" smooth="yes"/>
      <point x="421" y="699"/>
      <point x="354" y="632"/>
      <point x="354" y="550" type="curve" smooth="yes"/>
      <point x="354" y="375" type="line"/>
      <point x="222" y="375" type="line"/>
      <point x="222" y="338" type="line"/>
      <point x="354" y="338" type="line"/>
      <point x="354" y="146" type="line" smooth="yes"/>
      <point x="354" y="84"/>
      <point x="304" y="34"/>
      <point x="242" y="34" type="curve" smooth="yes"/>
      <point x="185" y="34" type="line"/>
      <point x="185" y="-3" type="line"/>
      <point x="242" y="-3" type="line" smooth="yes"/>
      <point x="324" y="-3"/>
      <point x="391" y="64"/>
      <point x="391" y="146" type="curve" smooth="yes"/>
      <point x="391" y="338" type="line"/>
      <point x="535" y="338" type="line"/>
      <point x="535" y="375" type="line"/>
      <point x="391" y="375" type="line"/>
      <point x="391" y="550" type="line" smooth="yes"/>
      <point x="391" y="612"/>
      <point x="441" y="662"/>
    </contour>
  </outline>
</glyph>
<glyph name="Ohorn" format="1">
  <advance width="740"/>
  <unicode hex="01A0"/>
  <outline>
    <contour>
      <point x="522" y="633" type="line"/>
      <point x="603" y="633"/>
      <point x="666" y="685"/>
      <point x="666" y="775" type="curve"/>
      <point x="666" y="861" type="line"/>
      <point x="629" y="861" type="line"/>
      <point x="629" y="775" type="line"/>
      <point x="629" y="706"/>
      <point x="584" y="662"/>
      <point x="521" y="662" type="curve"/>
    </contour>
    <component base="O"/>
    <contour>
      <point x="370" y="0" type="move" name="bottom"/>
    </contour>
    <contour>
      <point x="370" y="348" type="move" name="center"/>
    </contour>
    <contour>
      <point x="583" y="696" type="move" name="horn"/>
    </contour>
    <contour>
      <point x="370" y="696" type="move" name="top"/>
    </contour>
  </outline>
</glyph>
<glyph name="Uhorn" format="1">
  <advance width="740"/>
  <unicode hex="01AF"/>
  <outline>
    <contour>
      <point x="623" y="659" type="line"/>
      <point x="686" y="659"/>
      <point x="735" y="705"/>
      <point x="734" y="775" type="curve"/>
      <point x="734" y="861" type="line"/>
      <point x="697" y="861" type="line"/>
      <point x="697" y="775" type="line"/>
      <point x="697" y="727"/>
      <point x="666" y="696"/>
      <point x="623" y="696" type="curve"/>
    </contour>
    <component base="U"/>
    <contour>
      <point x="370" y="0" type="move" name="bottom"/>
    </contour>
    <contour>
      <point x="651" y="696" type="move" name="horn"/>
    </contour>
    <contour>
      <point x="370" y="696" type="move" name="top"/>
    </contour>
  </outline>
</glyph>
<glyph name="uhorn" format="1">
  <advance width="740"/>
  <unicode hex="01B0"/>
  <outline>
    <contour>
      <point x="614" y="266" type="line" smooth="yes"/>
      <point x="614" y="132"/>
      <point x="505" y="22"/>
      <point x="370" y="22" type="curve" smooth="yes"/>
      <point x="235" y="22"/>
      <point x="126" y="132"/>
      <point x="126" y="266" type="curve" smooth="yes"/>
      <point x="126" y="696" type="line"/>
      <point x="89" y="696" type="line"/>
      <point x="89" y="266" type="line" smooth="yes"/>
      <point x="89" y="111"/>
      <point x="215" y="-15"/>
      <point x="370" y="-15" type="curve" smooth="yes"/>
      <point x="525" y="-15"/>
      <point x="651" y="111"/>
      <point x="651" y="266" type="curve" smooth="yes"/>
      <point x="651" y="696" type="line"/>
      <point x="614" y="696" type="line"/>
    </contour>
    <contour>
      <point x="623" y="659" type="line"/>
      <point x="686" y="659"/>
      <point x="735" y="705"/>
      <point x="734" y="776" type="curve"/>
      <point x="734" y="861" type="line"/>
      <point x="697" y="861" type="line"/>
      <point x="697" y="775" type="line"/>
      <point x="697" y="727"/>
      <point x="666" y="696"/>
      <point x="623" y="696" type="curve"/>
    </contour>
    <contour>
      <point x="370" y="0" type="move" name="bottom"/>
    </contour>
    <contour>
      <point x="651" y="696" type="move" name="horn"/>
    </contour>
    <contour>
      <point x="370" y="696" type="move" name="top"/>
    </contour>
  </outline>
</glyph>
